<?xml version="1.0" encoding="iso-8859-1"?>
<!-- Uploaded to: SVG Repo, www.svgrepo.com, Generator: SVG Repo Mixer Tools -->
<!DOCTYPE svg PUBLIC "-//W3C//DTD SVG 1.1//EN" "http://www.w3.org/Graphics/SVG/1.1/DTD/svg11.dtd">
<svg fill="#000000" version="1.1" id="Capa_1" xmlns="http://www.w3.org/2000/svg" xmlns:xlink="http://www.w3.org/1999/xlink" 
	 width="800px" height="800px" viewBox="0 0 45.765 45.765"
	 xml:space="preserve">
<g>
	<path d="M34.295,4.373l-11.19-4.274c-0.463-0.176-0.993-0.114-1.402,0.167c-0.409,0.282-0.662,0.746-0.662,1.243v12.558H12.51
		c-1.11,0-2.012,0.908-2.012,2.019c0,0.991,0.718,1.818,1.661,1.984l2.681,25.014c0.163,1.527,1.443,2.681,2.979,2.681h9.497
		c1.535,0,2.816-1.151,2.979-2.679l2.682-25.012c0.943-0.166,1.66-0.997,1.66-1.988c0-1.111-0.899-2.019-2.012-2.019h-8.546V3.7
		l9.142,3.493c0.773,0.298,1.648-0.092,1.946-0.871C35.466,5.542,35.075,4.671,34.295,4.373z M29.187,34.541l-12.712,4.937
		l-1.221-11.403l15.262-5.929L29.187,34.541z"/>
</g>
</svg>