<?xml version="1.0" encoding="UTF-8"?>
<svg id="Layer_1" xmlns="http://www.w3.org/2000/svg" version="1.1" viewBox="0 0 1000 1000">
  <!-- Generator: Adobe Illustrator 29.0.0, SVG Export Plug-In . SVG Version: 2.1.0 Build 186)  -->
  <defs>
    <style>
      .st0 {
        fill: none;
      }

      .st1 {
        fill: #9d5646;
      }
    </style>
  </defs>
  <path class="st0" d="M521.26,185.51l-22.38,9.23,1.99,33.07c4.54.33,32.51,1.42,42.87,4.83v-.05c-.09-6.15-.9-16.84-1.85-27.63-1.47-16.75-5.91-27.3-5.91-27.3-3.64,2.41-8.47,5.11-14.72,7.85Z"/>
  <path class="st0" d="M423.69,225.83l2.6-32.32c-5.11-1.18-9.65-2.51-13.82-4.02l-13.39-5.82c-6.07-3.3-10.41-6.5-13.44-9.14,0,.85.61,54.19-.52,60.29,0,0,13.77-6.58,38.56-8.99Z"/>
  <path class="st0" d="M446.69,196.82c-4.73-.19-4.35,30.24-4.35,30.24,4.54-.28,37.57-.71,41.02-.61l-2.56-29.62h-34.12Z"/>
  <path class="st0" d="M428.99,141.08l9.75-1.61c6.2-.66,13.06-1.09,20.58-1.09,48.55,0,76.18,17.79,84.65,24.23,2.32-3.17,4.73-7.9,3.69-14.05-1.09-6.53-47.6-28.2-80.63-41.5h-11.21c-33.03,13.3-75.38,34.97-76.46,41.5-1.04,6.15,1.37,10.88,3.69,14.05.66-.9,12.4-15.43,45.94-21.53Z"/>
  <path class="st0" d="M600.9,513.37l-22-135.99c-4.02-2.03-39.23-18.45-114.98-18.45-69.84,0-100.03,14.29-106.51,17.89l-20.72,135.61c18.36-7.62,56.97-18.88,127.05-18.88,74.52,0,118.01,12.54,137.17,19.83Z"/>
  <path class="st0" d="M621.53,687.88c-12.21-3.69-47.41-11.02-135.99-11.02-101.02,0-148.48,7.76-166.46,11.83l-31.32,173.32-13.55,5.99c12.2,1.03,21.97.83,24.62-.13,5.77-2.08,25.69-18.45,30.47-22.95,4.78-4.5,28.15-26.88,34.3-32.65,6.15-5.77,26.88-38.37,31.99-46.94,5.11-8.56,14.05-14.76,15.57-14.53s21.15-15.95,21.62-15.43c.47.52,16.89,3.12,31.94,1.7,15.05-1.42,49.59,14.01,57.63,16.23,8.04,2.22,61.23,48.59,72.68,65.3,11.45,16.7,37.48,26.92,42.68,25.88,1.94-.39,6.24-1.14,11.16-1.97l-27.34-154.65Z"/>
  <path class="st0" d="M608.94,309.01v-26.07c-5.06-6.58-37.76-39.98-135.47-39.98h-9.46c-97.66,0-130.41,33.36-135.47,39.98v20.87c10.17-5.35,58.67-28.67,139.35-28.67s129.98,27.25,141.05,33.88Z"/>
  <path class="st0" d="M464.48,332.29c70.41,0,107.32,13.58,118.81,18.69l13.01-16.14c-9.61-7.62-46.51-31.8-128.42-31.8-97.1,0-130.6,25.69-130.6,25.69l-1.28-.24h-.05s17.7,21.96,17.7,21.96c11.88-5.87,44.48-18.17,110.82-18.17Z"/>
  <path class="st1" d="M925.92,939.99l-19.97-16.32c-2.89-2.37-20.96-9.18-30.09-14.05l-9.37-5.02c-9.18-9.94-22.33-12.59-29.24-5.96l-9.51,2.93c-12.4,3.83-22.62-1.47-24.08-3.03l-2.56-2.74c-24.7-30.47-47.27-59.15-50.16-63.69-2.89-4.54-20.39-15.95-30.05-11.92-4.68,1.95-15.35,6.23-25.73,10.22l-97.68-474.73,21.81-26.36,5.63-60.24-.71-1.14c-.76-1.23-27.3-24.27-62.17-38.09l-7.9-57.02c3.45-3.31,10.93-12.02,8.9-24.23-.8-4.83-11.55-13.82-45.61-30.33-18.12-8.8-47.18-21.01-47.18-21.01v-5.77c5.77-2.37,9.75-7.38,9.75-13.2,0-7.19-6.1-13.2-14.1-14.43l-2.98-39.27h-1.04l-2.22,39.27c-8,1.23-14.1,7.24-14.1,14.43,0,5.82,3.97,10.84,9.75,13.2v5.77s-27.68,12.26-45.76,21.01c-34.07,16.51-44.24,25.5-45.05,30.33-2.03,12.21,5.39,20.91,8.9,24.23l-11.88,64.02c-26.69,12.92-49.64,39.7-50.35,40.79l-.71,1.14,7.29,56.02,20.58,27.44-95.35,500.71c-5.03-1.27-9.9-2.76-14.33-4.54l-8.09-3.64-8.14-3.64c-21.72-2.93-41.59-2.89-44.15.14-2.56,3.03-13.72,14.2-17.32,15.95-3.6,1.75-21.91,26.45-29.72,40.6l-8.56,3.83c-6.06,2.7-8-8.9-15.28-6.91-11.88,3.26-14.29,19.02-23.85,22.95l-15.47,6.34c-15.19,4.21-13.06,9.84,4.73,12.44l25.79,1.28,20.06.99c8.52-12.54,17.89-27.35,20.82-32.98s16.37-26.73,20.72-30.38,24.18-15.71,30.8-16.14c6.62-.43,19.78-.09,18.55,3.93-1.23,4.02-.09,20.25-2.79,22.1-2.7,1.85-13.82,10.65-16.75,14.24-2.93,3.6-8.9,17.7-12.02,19.4-3.12,1.7-16.04,10.5-20.11,14.1s-17.93,12.82-11.21,11.26c6.72-1.56,29.62-6.15,30.9-5.73,1.28.43,9.04,3.6,13.58,5.77,4.54,2.18,24.84-.33,27.54-.8,2.7-.47,38.71-1.66,47.79-2.65,9.08-.99,38.89-4.54,51.86-7.1l1.89-.09,1.89-.09c11.07-3.79,19.31-9.23,18.22-12.02-1.09-2.79,15.52-8.19,17.27-10.17,1.75-1.99-19.02-24.08-14.95-31.75l13.63-14.15c1.85-1.94,58.77-93.97,63.41-99.98l4.68-6.01c14.43-4.97,32.84-10.41,40.88-12.11,8.04-1.7,21.58,9.7,17.13,12.11-4.45,2.41-30.99,21.2-44.19,38.47l-11.21,60.76s-8,8.28-16.14,23.42c-7.05,13.11-10.17,26.5-16.51,27.73,0,0-.9,2.6-2.93,10.27l-2.03,7.62c-13.11,10.32,10.69,23.42,52.85,29.19l21.67-3.97,21.67-3.97c33.78-12.54,62.79-27.82,64.45-34.07l.8-4.31c28.25.38,51.77-.85,52.38-2.74s4.45-7.95,6.91-8.04,22.85,1.75,38,4.35l1.99-.47,1.99-.47c4.31-14.72,11.55-30.24,16.09-34.49,4.54-4.26,28.25-23.14,36.2-25.31,7.95-2.18,13.72,12.44,8.04,23.99-5.68,11.55-22.38,29.9-20.02,28.77,2.37-1.14-3.79,31.99,3.83,33.41,7.62,1.42,33.6,11.4,35.44,17.84,1.85,6.44,26.17,17.6,46.51,15.52,20.35-2.08,77.7-.19,103.91,1.14,26.21,1.28,77.46.52,79.3-8.33l.33.05c1.85-8.85-9.75-20.49-25.79-25.84ZM379.36,148.56c1.09-6.53,43.44-28.2,76.46-41.5h11.21c33.03,13.3,79.54,34.97,80.63,41.5,1.04,6.15-1.37,10.88-3.69,14.05-8.47-6.44-36.1-24.23-84.65-24.23-7.52,0-14.38.43-20.58,1.09l-9.75,1.61c-33.55,6.1-45.28,20.63-45.94,21.53-2.32-3.17-4.73-7.9-3.69-14.05ZM543.74,232.59v.05c-10.36-3.41-38.33-4.5-42.87-4.83l-1.99-33.07,22.38-9.23c6.25-2.74,11.07-5.44,14.72-7.85,0,0,4.45,10.55,5.91,27.3.95,10.79,1.75,21.48,1.85,27.63ZM483.36,226.44c-3.45-.09-36.48.33-41.02.61,0,0-.38-30.42,4.35-30.24h34.12l2.56,29.62ZM385.65,174.53c3.03,2.64,7.36,5.84,13.44,9.14l13.39,5.82c4.16,1.51,8.71,2.84,13.82,4.02l-2.6,32.32c-24.79,2.41-38.56,8.99-38.56,8.99,1.13-6.1.53-59.44.52-60.29ZM328.54,282.94c5.06-6.62,37.81-39.98,135.47-39.98h9.46c97.71,0,130.41,33.41,135.47,39.98v26.07c-11.07-6.62-60.38-33.88-141.05-33.88s-129.18,23.33-139.35,28.67v-20.87ZM335.97,328.51h.05s1.28.24,1.28.24c0,0,33.5-25.69,130.6-25.69,81.91,0,118.81,24.18,128.42,31.8l-13.01,16.14c-11.5-5.11-48.41-18.69-118.81-18.69-66.34,0-98.94,12.3-110.82,18.17l-17.7-21.95ZM357.4,376.82c6.48-3.6,36.67-17.89,106.51-17.89,75.75,0,110.96,16.42,114.98,18.45l22,135.99c-19.16-7.29-62.65-19.83-137.17-19.83-70.08,0-108.69,11.26-127.05,18.88l20.72-135.61ZM637.71,844.5c-5.21,1.04-31.23-9.18-42.68-25.88-11.45-16.7-64.64-63.07-72.68-65.3-8.04-2.22-42.59-17.65-57.63-16.23-15.05,1.42-31.47-1.18-31.94-1.7-.47-.52-20.11,15.66-21.62,15.43s-10.46,5.96-15.57,14.53c-5.11,8.56-25.84,41.17-31.99,46.94-6.15,5.77-29.53,28.15-34.3,32.65-4.78,4.5-24.7,20.87-30.47,22.95-2.66.96-12.43,1.16-24.62.13l13.55-5.99,31.32-173.32c17.98-4.07,65.44-11.83,166.46-11.83,88.58,0,123.78,7.33,135.99,11.02l27.34,154.65c-4.92.83-9.22,1.58-11.16,1.97Z"/>
</svg>