<svg xmlns="http://www.w3.org/2000/svg" xmlns:xlink="http://www.w3.org/1999/xlink" width="587" zoomAndPan="magnify" viewBox="0 0 440.25 467.249983" height="623" preserveAspectRatio="xMidYMid meet" version="1.0"><defs><clipPath id="9af38cf99c"><path d="M 390 46 L 439.5 46 L 439.5 274 L 390 274 Z M 390 46 " clip-rule="nonzero"/></clipPath></defs><g clip-path="url(#9af38cf99c)"><path fill="#ffffff" d="M 464.8125 46.324219 C 527.335938 46.324219 548.585938 83.347656 548.585938 123.425781 C 548.585938 182.011719 510.636719 207.175781 456.324219 207.175781 L 427.902344 207.175781 L 427.902344 273.820312 L 390.542969 273.820312 L 390.542969 46.324219 Z M 459.765625 169.25 C 494.367188 169.25 510.75 151.960938 510.75 126.75 C 510.75 104.574219 499.207031 83.957031 465.535156 83.957031 L 427.902344 83.957031 L 427.902344 169.25 Z M 459.765625 169.25 " fill-opacity="1" fill-rule="nonzero"/></g><path fill="#9d5646" d="M 436.117188 454.96875 C 437 450.738281 431.457031 445.171875 423.785156 442.613281 L 414.234375 434.808594 C 412.855469 433.675781 404.210938 430.417969 399.84375 428.085938 L 395.359375 425.6875 C 390.972656 420.933594 384.679688 419.667969 381.375 422.835938 L 376.828125 424.238281 C 370.898438 426.070312 366.011719 423.539062 365.308594 422.789062 L 364.085938 421.476562 C 352.273438 406.90625 341.480469 393.191406 340.101562 391.019531 C 338.71875 388.847656 330.347656 383.394531 325.730469 385.316406 C 321.113281 387.238281 304.34375 393.894531 301.699219 394.300781 C 299.050781 394.707031 288.4375 396.449219 285.949219 396.949219 C 283.457031 397.445312 271.011719 392.558594 265.535156 384.570312 C 260.058594 376.582031 234.625 354.402344 230.777344 353.339844 C 226.929688 352.277344 210.410156 344.898438 203.214844 345.578125 C 196.015625 346.257812 188.164062 345.011719 187.9375 344.765625 C 187.710938 344.515625 178.320312 352.253906 177.597656 352.140625 C 176.871094 352.027344 172.597656 354.992188 170.152344 359.089844 C 167.707031 363.183594 157.796875 378.777344 154.855469 381.535156 C 151.914062 384.296875 140.734375 395 138.449219 397.152344 C 136.164062 399.300781 126.636719 407.132812 123.875 408.125 C 121.113281 409.121094 102.375 408.445312 90.316406 403.601562 L 86.445312 401.859375 L 82.550781 400.117188 C 72.164062 398.710938 62.660156 398.734375 61.4375 400.183594 C 60.21875 401.632812 54.875 406.972656 53.15625 407.808594 C 51.4375 408.648438 42.679688 420.460938 38.945312 427.226562 L 34.847656 429.058594 C 31.953125 430.347656 31.023438 424.804688 27.539062 425.753906 C 21.859375 427.316406 20.707031 434.851562 16.136719 436.730469 L 8.734375 439.761719 C 1.472656 441.777344 2.488281 444.46875 10.996094 445.714844 L 23.332031 446.324219 L 32.925781 446.800781 C 37 440.804688 41.480469 433.722656 42.882812 431.027344 C 44.285156 428.335938 50.714844 418.242188 52.792969 416.5 C 54.875 414.757812 64.359375 408.988281 67.527344 408.78125 C 70.695312 408.578125 76.984375 408.738281 76.398438 410.660156 C 75.808594 412.585938 76.351562 420.347656 75.0625 421.230469 C 73.773438 422.113281 68.453125 426.320312 67.050781 428.039062 C 65.648438 429.761719 62.796875 436.503906 61.304688 437.320312 C 59.808594 438.132812 53.632812 442.34375 51.6875 444.0625 C 49.738281 445.78125 43.109375 450.195312 46.324219 449.449219 C 49.535156 448.703125 60.488281 446.507812 61.101562 446.710938 C 61.710938 446.914062 65.421875 448.429688 67.59375 449.472656 C 69.765625 450.511719 79.476562 449.3125 80.765625 449.085938 C 82.054688 448.859375 99.277344 448.292969 103.621094 447.820312 C 107.964844 447.34375 122.222656 445.648438 128.421875 444.425781 L 129.328125 444.378906 L 130.234375 444.335938 C 135.527344 442.523438 139.464844 439.921875 138.945312 438.585938 C 138.425781 437.25 146.367188 434.671875 147.207031 433.722656 C 148.042969 432.769531 138.109375 422.203125 140.054688 418.535156 L 146.570312 411.769531 C 147.453125 410.84375 174.675781 366.828125 176.894531 363.953125 L 179.136719 361.078125 C 186.039062 358.703125 194.839844 356.101562 198.6875 355.285156 C 202.535156 354.472656 209.007812 359.925781 206.878906 361.078125 C 204.753906 362.234375 192.058594 371.21875 185.742188 379.476562 L 180.378906 408.535156 C 180.378906 408.535156 176.554688 412.496094 172.664062 419.734375 C 169.292969 426.003906 167.796875 432.40625 164.765625 432.996094 C 164.765625 432.996094 164.335938 434.242188 163.363281 437.90625 L 162.390625 441.550781 C 156.121094 446.484375 167.503906 452.753906 187.667969 455.511719 L 198.03125 453.613281 L 208.394531 451.710938 C 224.554688 445.714844 238.425781 438.40625 239.21875 435.417969 L 239.601562 433.359375 C 253.113281 433.539062 264.359375 432.953125 264.652344 432.046875 C 264.945312 431.140625 266.78125 428.246094 267.957031 428.199219 C 269.132812 428.152344 278.886719 429.035156 286.128906 430.28125 L 288.027344 429.828125 C 290.089844 422.789062 293.550781 415.367188 295.722656 413.332031 C 297.894531 411.292969 309.234375 402.265625 313.035156 401.226562 C 316.835938 400.183594 319.597656 407.175781 316.882812 412.699219 C 314.167969 418.21875 306.179688 427 307.308594 426.457031 C 308.441406 425.914062 305.5 441.753906 309.140625 442.433594 C 312.785156 443.113281 325.210938 447.886719 326.09375 450.964844 C 326.976562 454.042969 338.605469 459.382812 348.335938 458.386719 C 358.066406 457.390625 385.496094 458.296875 398.03125 458.929688 C 410.566406 459.542969 435.074219 459.179688 435.957031 454.945312 Z M 436.117188 454.96875 " fill-opacity="1" fill-rule="nonzero"/><path fill="#9d5646" d="M 315.117188 398.417969 L 266.710938 163.160156 L 277.144531 150.558594 L 279.835938 121.75 L 279.496094 121.207031 C 279.136719 120.617188 266.441406 109.597656 249.761719 102.988281 L 245.984375 75.722656 C 247.636719 74.136719 251.210938 69.972656 250.238281 64.132812 C 249.851562 61.828125 244.714844 57.527344 228.421875 49.628906 C 219.753906 45.421875 205.859375 39.582031 205.859375 39.582031 L 205.859375 36.820312 C 208.621094 35.6875 210.523438 33.289062 210.523438 30.507812 C 210.523438 27.066406 207.605469 24.195312 203.78125 23.605469 L 202.355469 4.824219 L 201.855469 4.824219 L 200.792969 23.605469 C 196.96875 24.195312 194.046875 27.066406 194.046875 30.507812 C 194.046875 33.289062 195.949219 35.6875 198.710938 36.820312 L 198.710938 39.582031 C 198.710938 39.582031 185.472656 45.441406 176.828125 49.628906 C 160.535156 57.527344 155.667969 61.828125 155.285156 64.132812 C 154.3125 69.972656 157.863281 74.136719 159.539062 75.722656 L 153.859375 106.339844 C 141.09375 112.515625 130.121094 125.324219 129.78125 125.84375 L 129.441406 126.386719 L 132.925781 153.183594 L 142.769531 166.308594 L 95.292969 415.617188 L 118.578125 405.320312 L 133.558594 322.429688 C 142.160156 320.484375 164.855469 316.769531 213.171875 316.769531 C 255.53125 316.769531 272.371094 320.277344 278.207031 322.042969 L 292.960938 405.5 L 315.09375 398.417969 Z M 241.003906 104.324219 C 236.050781 102.695312 222.675781 102.175781 220.503906 102.015625 L 219.550781 86.199219 L 230.257812 81.785156 C 233.242188 80.472656 235.550781 79.183594 237.292969 78.027344 C 237.292969 78.027344 239.421875 83.074219 240.121094 91.085938 C 240.574219 96.246094 240.960938 101.359375 241.003906 104.300781 Z M 194.613281 87.195312 L 210.90625 87.195312 C 210.90625 87.195312 212.128906 101.359375 212.128906 101.359375 C 210.476562 101.316406 194.683594 101.519531 192.511719 101.65625 C 192.511719 101.65625 192.328125 87.105469 194.589844 87.195312 Z M 198.960938 44.265625 L 204.324219 44.265625 C 220.117188 50.625 242.363281 60.988281 242.882812 64.113281 C 243.382812 67.054688 242.226562 69.316406 241.117188 70.832031 C 237.066406 67.753906 223.851562 59.246094 200.632812 59.246094 C 197.035156 59.246094 193.753906 59.449219 190.789062 59.765625 L 186.128906 60.535156 C 170.082031 63.457031 164.472656 70.402344 164.15625 70.832031 C 163.046875 69.316406 161.890625 67.054688 162.390625 64.113281 C 162.910156 60.988281 183.164062 50.625 198.960938 44.265625 Z M 165.375 76.511719 C 166.824219 77.78125 168.90625 79.320312 171.828125 80.902344 L 178.230469 83.6875 C 180.222656 84.410156 182.394531 85.042969 184.839844 85.609375 L 183.59375 101.066406 C 171.734375 102.21875 165.152344 105.367188 165.152344 105.367188 C 165.695312 102.425781 165.398438 76.511719 165.398438 76.511719 Z M 138.085938 128.378906 C 140.507812 125.210938 156.167969 109.257812 202.875 109.257812 L 207.398438 109.257812 C 254.128906 109.257812 269.765625 125.234375 272.1875 128.378906 L 272.1875 140.847656 C 266.894531 137.679688 243.3125 124.644531 204.730469 124.644531 C 166.144531 124.644531 142.949219 135.800781 138.085938 138.359375 Z M 141.660156 150.171875 L 142.273438 150.285156 C 142.273438 150.285156 158.292969 137.996094 204.730469 137.996094 C 243.902344 137.996094 261.550781 149.5625 266.144531 153.203125 L 259.921875 160.921875 C 254.425781 158.476562 236.773438 151.984375 203.101562 151.984375 C 171.375 151.984375 155.78125 157.867188 150.101562 160.671875 L 141.636719 150.171875 Z M 151.890625 173.277344 C 154.988281 171.558594 169.425781 164.722656 202.828125 164.722656 C 239.058594 164.722656 255.894531 172.574219 257.820312 173.546875 L 268.339844 238.585938 C 259.175781 235.101562 238.378906 229.105469 202.738281 229.105469 C 169.222656 229.105469 150.757812 234.488281 141.976562 238.132812 Z M 151.890625 173.277344 " fill-opacity="1" fill-rule="nonzero"/></svg>