<svg xmlns="http://www.w3.org/2000/svg" xmlns:xlink="http://www.w3.org/1999/xlink" width="1000" zoomAndPan="magnify" viewBox="0 0 750 235.499993" height="314" preserveAspectRatio="xMidYMid meet" version="1.0"><path fill="#091f2c" d="M 191.300781 192.492188 C 188.976562 192.492188 186.84375 192.070312 184.882812 191.226562 C 182.921875 190.378906 181.222656 189.226562 179.785156 187.777344 C 178.355469 186.308594 177.238281 184.582031 176.417969 182.589844 C 175.609375 180.605469 175.195312 178.480469 175.195312 176.214844 L 175.195312 176.117188 C 175.195312 173.863281 175.59375 171.738281 176.394531 169.761719 C 177.203125 167.785156 178.316406 166.050781 179.777344 164.5625 C 181.222656 163.070312 182.933594 161.882812 184.933594 161.027344 C 186.917969 160.167969 189.125 159.734375 191.535156 159.734375 C 192.992188 159.734375 194.304688 159.859375 195.5 160.101562 C 196.683594 160.332031 197.777344 160.675781 198.777344 161.109375 C 199.773438 161.542969 200.695312 162.0625 201.539062 162.660156 C 202.386719 163.257812 203.1875 163.917969 203.9375 164.636719 L 200.367188 168.746094 C 199.101562 167.570312 197.761719 166.617188 196.339844 165.894531 C 194.917969 165.175781 193.308594 164.816406 191.503906 164.816406 C 189.992188 164.816406 188.59375 165.105469 187.3125 165.699219 C 186.035156 166.28125 184.933594 167.097656 184.011719 168.109375 C 183.085938 169.117188 182.367188 170.300781 181.84375 171.664062 C 181.3125 173.023438 181.042969 174.46875 181.042969 176.019531 L 181.042969 176.101562 C 181.042969 177.648438 181.304688 179.109375 181.820312 180.480469 C 182.335938 181.855469 183.054688 183.054688 183.992188 184.058594 C 184.933594 185.066406 186.035156 185.867188 187.3125 186.464844 C 188.59375 187.050781 189.992188 187.351562 191.503906 187.351562 C 193.429688 187.351562 195.082031 186.984375 196.472656 186.257812 C 197.875 185.539062 199.242188 184.542969 200.597656 183.277344 L 204.175781 186.894531 C 203.351562 187.777344 202.507812 188.546875 201.617188 189.226562 C 200.726562 189.910156 199.757812 190.492188 198.742188 190.988281 C 197.722656 191.488281 196.59375 191.871094 195.375 192.117188 C 194.152344 192.378906 192.800781 192.507812 191.324219 192.507812 Z M 191.300781 192.492188 " fill-opacity="1" fill-rule="nonzero"/><path fill="#091f2c" d="M 245.90625 192.492188 C 243.464844 192.492188 241.238281 192.070312 239.214844 191.195312 C 237.1875 190.335938 235.457031 189.175781 234.007812 187.703125 C 232.5625 186.21875 231.433594 184.5 230.617188 182.523438 C 229.808594 180.539062 229.398438 178.4375 229.398438 176.207031 L 229.398438 176.109375 C 229.398438 173.878906 229.808594 171.773438 230.617188 169.808594 C 231.441406 167.824219 232.578125 166.09375 234.058594 164.605469 C 235.542969 163.101562 237.285156 161.925781 239.304688 161.050781 C 241.328125 160.183594 243.554688 159.734375 246.011719 159.734375 C 248.464844 159.734375 250.679688 160.167969 252.703125 161.027344 C 254.722656 161.890625 256.460938 163.054688 257.902344 164.539062 C 259.347656 166.019531 260.484375 167.742188 261.292969 169.71875 C 262.101562 171.691406 262.515625 173.789062 262.515625 176.035156 L 262.515625 176.117188 C 262.515625 178.347656 262.101562 180.457031 261.292969 182.433594 C 260.484375 184.410156 259.332031 186.144531 257.851562 187.632812 C 256.371094 189.125 254.625 190.3125 252.605469 191.179688 C 250.585938 192.066406 248.355469 192.5 245.914062 192.5 Z M 246.003906 187.335938 C 247.566406 187.335938 249.011719 187.042969 250.320312 186.453125 C 251.625 185.851562 252.753906 185.066406 253.691406 184.070312 C 254.617188 183.078125 255.359375 181.902344 255.882812 180.539062 C 256.398438 179.175781 256.667969 177.726562 256.667969 176.183594 L 256.667969 176.085938 C 256.667969 174.542969 256.398438 173.09375 255.882812 171.714844 C 255.351562 170.339844 254.617188 169.140625 253.667969 168.136719 C 252.71875 167.128906 251.578125 166.320312 250.253906 165.707031 C 248.929688 165.105469 247.472656 164.800781 245.914062 164.800781 C 244.355469 164.800781 242.90625 165.09375 241.597656 165.683594 C 240.277344 166.265625 239.15625 167.082031 238.226562 168.09375 C 237.285156 169.101562 236.558594 170.285156 236.035156 171.648438 C 235.503906 173.011719 235.234375 174.453125 235.234375 176.003906 L 235.234375 176.085938 C 235.234375 177.636719 235.503906 179.078125 236.035156 180.441406 C 236.566406 181.804688 237.300781 183 238.25 184.019531 C 239.199219 185.050781 240.339844 185.851562 241.664062 186.453125 C 242.988281 187.035156 244.433594 187.335938 246.003906 187.335938 Z M 246.003906 187.335938 " fill-opacity="1" fill-rule="nonzero"/><path fill="#091f2c" d="M 290.0625 160.289062 L 295.21875 160.289062 L 312.1875 182.1875 L 312.1875 160.289062 L 317.65625 160.289062 L 317.65625 191.953125 L 313.007812 191.953125 L 295.542969 169.425781 L 295.542969 191.953125 L 290.070312 191.953125 L 290.070312 160.289062 Z M 290.0625 160.289062 " fill-opacity="1" fill-rule="nonzero"/><path fill="#091f2c" d="M 357.695312 192.410156 C 355.257812 192.410156 352.921875 191.988281 350.683594 191.167969 C 348.4375 190.335938 346.386719 189.054688 344.488281 187.34375 L 347.832031 183.359375 C 349.375 184.683594 350.929688 185.710938 352.519531 186.414062 C 354.105469 187.117188 355.863281 187.484375 357.824219 187.484375 C 359.554688 187.484375 360.914062 187.109375 361.917969 186.371094 C 362.929688 185.628906 363.429688 184.679688 363.429688 183.496094 L 363.429688 183.414062 C 363.429688 182.835938 363.332031 182.335938 363.136719 181.902344 C 362.949219 181.453125 362.582031 181.039062 362.058594 180.660156 C 361.527344 180.261719 360.800781 179.894531 359.890625 179.566406 C 358.960938 179.238281 357.765625 178.90625 356.28125 178.570312 C 354.605469 178.183594 353.101562 177.738281 351.785156 177.246094 C 350.46875 176.746094 349.367188 176.144531 348.484375 175.433594 C 347.59375 174.714844 346.910156 173.847656 346.441406 172.832031 C 345.96875 171.8125 345.746094 170.5625 345.746094 169.117188 L 345.746094 169.019531 C 345.746094 167.675781 346.015625 166.425781 346.554688 165.285156 C 347.089844 164.15625 347.847656 163.199219 348.796875 162.398438 C 349.75 161.597656 350.886719 160.96875 352.210938 160.519531 C 353.535156 160.0625 354.980469 159.839844 356.550781 159.839844 C 358.863281 159.839844 360.953125 160.175781 362.808594 160.855469 C 364.664062 161.535156 366.414062 162.523438 368.03125 163.8125 L 365.054688 168.027344 C 363.609375 166.96875 362.179688 166.164062 360.757812 165.59375 C 359.335938 165.039062 357.90625 164.761719 356.460938 164.761719 C 354.832031 164.761719 353.566406 165.128906 352.660156 165.855469 C 351.753906 166.574219 351.3125 167.464844 351.3125 168.519531 L 351.3125 168.617188 C 351.3125 169.214844 351.417969 169.753906 351.628906 170.210938 C 351.828125 170.683594 352.226562 171.101562 352.800781 171.476562 C 353.378906 171.851562 354.140625 172.21875 355.101562 172.546875 C 356.066406 172.875 357.316406 173.226562 358.855469 173.578125 C 360.511719 173.996094 361.976562 174.46875 363.25 174.984375 C 364.515625 175.503906 365.578125 176.125 366.445312 176.863281 C 367.304688 177.605469 367.933594 178.457031 368.363281 179.445312 C 368.78125 180.417969 368.996094 181.558594 368.996094 182.851562 L 368.996094 182.949219 C 368.996094 184.429688 368.726562 185.753906 368.167969 186.929688 C 367.605469 188.105469 366.828125 189.101562 365.839844 189.925781 C 364.84375 190.734375 363.648438 191.355469 362.261719 191.78125 C 360.878906 192.199219 359.351562 192.417969 357.695312 192.417969 Z M 357.695312 192.410156 " fill-opacity="1" fill-rule="nonzero"/><path fill="#091f2c" d="M 409.367188 192.445312 C 407.308594 192.445312 405.460938 192.15625 403.796875 191.5625 C 402.128906 190.980469 400.722656 190.097656 399.546875 188.921875 C 398.367188 187.746094 397.460938 186.292969 396.824219 184.550781 C 396.1875 182.8125 395.875 180.808594 395.875 178.519531 L 395.875 160.289062 L 401.441406 160.289062 L 401.441406 178.285156 C 401.441406 181.242188 402.160156 183.488281 403.574219 185 C 404.980469 186.527344 406.941406 187.289062 409.441406 187.289062 C 411.941406 187.289062 413.863281 186.5625 415.285156 185.097656 C 416.695312 183.636719 417.414062 181.445312 417.414062 178.527344 L 417.414062 160.292969 L 422.980469 160.292969 L 422.980469 178.25 C 422.980469 180.605469 422.652344 182.671875 422.007812 184.445312 C 421.363281 186.226562 420.445312 187.707031 419.277344 188.90625 C 418.09375 190.089844 416.671875 190.988281 415.003906 191.570312 C 413.324219 192.15625 411.449219 192.453125 409.367188 192.453125 Z M 409.367188 192.445312 " fill-opacity="1" fill-rule="nonzero"/><path fill="#091f2c" d="M 451.441406 160.289062 L 457.011719 160.289062 L 457.011719 186.878906 L 473.65625 186.878906 L 473.65625 191.953125 L 451.441406 191.953125 Z M 451.441406 160.289062 " fill-opacity="1" fill-rule="nonzero"/><path fill="#091f2c" d="M 503.507812 165.445312 L 493.457031 165.445312 L 493.457031 160.289062 L 519.160156 160.289062 L 519.160156 165.445312 L 509.109375 165.445312 L 509.109375 191.953125 L 503.507812 191.953125 Z M 503.507812 165.445312 " fill-opacity="1" fill-rule="nonzero"/><path fill="#091f2c" d="M 559.25 192.492188 C 556.8125 192.492188 554.582031 192.070312 552.558594 191.195312 C 550.53125 190.335938 548.804688 189.175781 547.34375 187.703125 C 545.898438 186.21875 544.769531 184.5 543.953125 182.523438 C 543.144531 180.539062 542.734375 178.4375 542.734375 176.207031 L 542.734375 176.109375 C 542.734375 173.878906 543.144531 171.773438 543.953125 169.808594 C 544.777344 167.824219 545.914062 166.09375 547.394531 164.605469 C 548.878906 163.101562 550.621094 161.925781 552.644531 161.050781 C 554.664062 160.183594 556.894531 159.734375 559.347656 159.734375 C 561.804688 159.734375 564.019531 160.167969 566.039062 161.027344 C 568.058594 161.890625 569.796875 163.054688 571.242188 164.539062 C 572.683594 166.019531 573.824219 167.742188 574.632812 169.71875 C 575.441406 171.691406 575.851562 173.789062 575.851562 176.035156 L 575.851562 176.117188 C 575.851562 178.347656 575.441406 180.457031 574.632812 182.433594 C 573.824219 184.410156 572.671875 186.144531 571.1875 187.632812 C 569.707031 189.125 567.960938 190.3125 565.941406 191.179688 C 563.921875 192.066406 561.691406 192.5 559.25 192.5 Z M 559.347656 187.335938 C 560.914062 187.335938 562.355469 187.042969 563.667969 186.453125 C 564.96875 185.851562 566.097656 185.066406 567.035156 184.070312 C 567.960938 183.078125 568.703125 181.902344 569.226562 180.539062 C 569.742188 179.175781 570.011719 177.726562 570.011719 176.183594 L 570.011719 176.085938 C 570.011719 174.542969 569.742188 173.09375 569.226562 171.714844 C 568.695312 170.339844 567.960938 169.140625 567.011719 168.136719 C 566.0625 167.128906 564.925781 166.320312 563.59375 165.707031 C 562.265625 165.105469 560.808594 164.800781 559.25 164.800781 C 557.695312 164.800781 556.242188 165.09375 554.933594 165.683594 C 553.617188 166.265625 552.492188 167.082031 551.566406 168.09375 C 550.628906 169.101562 549.894531 170.285156 549.371094 171.648438 C 548.839844 173.011719 548.570312 174.453125 548.570312 176.003906 L 548.570312 176.085938 C 548.570312 177.636719 548.839844 179.078125 549.371094 180.441406 C 549.902344 181.804688 550.636719 183 551.585938 184.019531 C 552.539062 185.050781 553.675781 185.851562 555.007812 186.453125 C 556.332031 187.035156 557.777344 187.335938 559.347656 187.335938 Z M 559.347656 187.335938 " fill-opacity="1" fill-rule="nonzero"/><path fill="#091f2c" d="M 603.40625 160.289062 L 617.523438 160.289062 C 619.519531 160.289062 621.28125 160.554688 622.8125 161.117188 C 624.355469 161.671875 625.628906 162.457031 626.667969 163.445312 C 627.5 164.328125 628.15625 165.339844 628.605469 166.476562 C 629.0625 167.628906 629.289062 168.894531 629.289062 170.277344 L 629.289062 170.375 C 629.289062 172.972656 628.585938 175.0625 627.183594 176.648438 C 625.777344 178.21875 623.980469 179.335938 621.773438 179.96875 L 630.335938 191.960938 L 623.726562 191.960938 L 615.945312 180.921875 L 608.984375 180.921875 L 608.984375 191.960938 L 603.414062 191.960938 L 603.414062 160.292969 Z M 617.109375 175.980469 C 619.109375 175.980469 620.6875 175.503906 621.863281 174.550781 C 623.039062 173.601562 623.621094 172.320312 623.621094 170.691406 L 623.621094 170.59375 C 623.621094 168.878906 623.046875 167.578125 621.910156 166.6875 C 620.753906 165.796875 619.148438 165.347656 617.074219 165.347656 L 608.976562 165.347656 L 608.976562 175.980469 Z M 617.109375 175.980469 " fill-opacity="1" fill-rule="nonzero"/><path fill="#091f2c" d="M 656.917969 160.289062 L 680.398438 160.289062 L 680.398438 165.257812 L 662.480469 165.257812 L 662.480469 173.496094 L 678.351562 173.496094 L 678.351562 178.472656 L 662.480469 178.472656 L 662.480469 186.976562 L 680.621094 186.976562 L 680.621094 191.953125 L 656.917969 191.953125 Z M 656.917969 160.289062 " fill-opacity="1" fill-rule="nonzero"/><path fill="#091f2c" d="M 719.125 192.410156 C 716.6875 192.410156 714.351562 191.988281 712.113281 191.167969 C 709.867188 190.335938 707.816406 189.054688 705.917969 187.34375 L 709.261719 183.359375 C 710.804688 184.683594 712.359375 185.710938 713.949219 186.414062 C 715.535156 187.117188 717.292969 187.484375 719.253906 187.484375 C 720.984375 187.484375 722.34375 187.109375 723.347656 186.371094 C 724.359375 185.628906 724.859375 184.679688 724.859375 183.496094 L 724.859375 183.414062 C 724.859375 182.835938 724.761719 182.335938 724.566406 181.902344 C 724.378906 181.453125 724.015625 181.039062 723.488281 180.660156 C 722.957031 180.261719 722.234375 179.894531 721.320312 179.566406 C 720.390625 179.238281 719.195312 178.90625 717.710938 178.570312 C 716.035156 178.183594 714.53125 177.738281 713.214844 177.246094 C 711.898438 176.746094 710.796875 176.144531 709.914062 175.433594 C 709.023438 174.714844 708.34375 173.847656 707.871094 172.832031 C 707.398438 171.8125 707.175781 170.5625 707.175781 169.117188 L 707.175781 169.019531 C 707.175781 167.675781 707.445312 166.425781 707.984375 165.285156 C 708.523438 164.15625 709.277344 163.199219 710.226562 162.398438 C 711.179688 161.597656 712.316406 160.96875 713.640625 160.519531 C 714.964844 160.0625 716.410156 159.839844 717.980469 159.839844 C 720.292969 159.839844 722.382812 160.175781 724.238281 160.855469 C 726.09375 161.535156 727.847656 162.523438 729.460938 163.8125 L 726.484375 168.027344 C 725.039062 166.96875 723.609375 166.164062 722.1875 165.59375 C 720.765625 165.039062 719.335938 164.761719 717.890625 164.761719 C 716.261719 164.761719 714.996094 165.128906 714.089844 165.855469 C 713.183594 166.574219 712.742188 167.464844 712.742188 168.519531 L 712.742188 168.617188 C 712.742188 169.214844 712.847656 169.753906 713.058594 170.210938 C 713.257812 170.683594 713.65625 171.101562 714.230469 171.476562 C 714.808594 171.851562 715.570312 172.21875 716.53125 172.546875 C 717.496094 172.875 718.746094 173.226562 720.285156 173.578125 C 721.941406 173.996094 723.40625 174.46875 724.679688 174.984375 C 725.945312 175.503906 727.007812 176.125 727.875 176.863281 C 728.730469 177.605469 729.363281 178.457031 729.792969 179.445312 C 730.210938 180.417969 730.429688 181.558594 730.429688 182.851562 L 730.429688 182.949219 C 730.429688 184.429688 730.160156 185.753906 729.597656 186.929688 C 729.035156 188.105469 728.257812 189.101562 727.269531 189.925781 C 726.273438 190.734375 725.078125 191.355469 723.691406 191.78125 C 722.308594 192.199219 720.78125 192.417969 719.125 192.417969 Z M 719.125 192.410156 " fill-opacity="1" fill-rule="nonzero"/><path fill="#091f2c" d="M 174.621094 55.398438 C 195.300781 55.398438 202.328125 67.640625 202.328125 80.894531 C 202.328125 100.273438 189.777344 108.59375 171.8125 108.59375 L 162.414062 108.59375 L 162.414062 130.636719 L 150.058594 130.636719 L 150.058594 55.398438 Z M 172.953125 96.050781 C 184.394531 96.050781 189.8125 90.332031 189.8125 81.996094 C 189.8125 74.660156 185.996094 67.84375 174.859375 67.84375 L 162.414062 67.84375 L 162.414062 96.050781 Z M 172.953125 96.050781 " fill-opacity="1" fill-rule="nonzero"/><path fill="#091f2c" d="M 291.8125 92.945312 C 291.8125 114.085938 274.609375 131.1875 253.179688 131.1875 C 231.753906 131.1875 214.554688 114.085938 214.554688 92.945312 C 214.554688 71.800781 231.859375 54.703125 253.179688 54.703125 C 274.503906 54.703125 291.8125 71.800781 291.8125 92.945312 Z M 278.433594 92.945312 C 278.433594 78.394531 267.070312 66.429688 253.167969 66.429688 C 239.261719 66.429688 228.011719 78.394531 228.011719 92.945312 C 228.011719 107.496094 239.269531 119.460938 253.167969 119.460938 C 267.0625 119.460938 278.433594 107.605469 278.433594 92.945312 Z M 278.433594 92.945312 " fill-opacity="1" fill-rule="nonzero"/><path fill="#091f2c" d="M 499.339844 92.945312 C 499.339844 114.085938 482.136719 131.1875 460.707031 131.1875 C 439.28125 131.1875 422.082031 114.085938 422.082031 92.945312 C 422.082031 71.800781 439.386719 54.703125 460.707031 54.703125 C 482.03125 54.703125 499.339844 71.800781 499.339844 92.945312 Z M 485.96875 92.945312 C 485.96875 78.394531 474.605469 66.429688 460.699219 66.429688 C 446.796875 66.429688 435.546875 78.394531 435.546875 92.945312 C 435.546875 107.496094 446.800781 119.460938 460.699219 119.460938 C 474.597656 119.460938 485.96875 107.605469 485.96875 92.945312 Z M 485.96875 92.945312 " fill-opacity="1" fill-rule="nonzero"/><path fill="#091f2c" d="M 625.441406 115.390625 L 591.980469 115.390625 L 585.289062 130.644531 L 569.929688 130.644531 L 605.621094 55.449219 L 611.492188 55.449219 L 647.285156 130.644531 L 632.238281 130.644531 Z M 597.390625 102.695312 L 620.015625 102.695312 L 608.644531 77.84375 L 597.382812 102.695312 Z M 597.390625 102.695312 " fill-opacity="1" fill-rule="nonzero"/><path fill="#091f2c" d="M 400.109375 109.164062 C 400.109375 109.164062 393.882812 122.484375 377.371094 122.484375 C 360.863281 122.484375 348.199219 100.292969 344.113281 99.34375 L 344.113281 98.992188 C 344.113281 98.992188 352.972656 94.472656 352.972656 79.136719 C 352.972656 58.277344 334.316406 56.191406 324.027344 56.191406 L 305.082031 56.191406 L 305.082031 130.6875 L 317.785156 130.6875 L 317.785156 104.035156 L 327.339844 104.035156 C 341.074219 104.035156 351.386719 135.460938 374.976562 135.460938 C 398.566406 135.460938 406.277344 119.960938 406.277344 119.960938 L 400.109375 109.148438 Z M 317.671875 93.003906 L 317.671875 68.15625 L 327.871094 68.15625 C 330.125 68.15625 340.773438 68.53125 340.773438 80.910156 C 340.773438 92.519531 330.976562 92.996094 327.769531 92.996094 L 317.679688 92.996094 Z M 317.671875 93.003906 " fill-opacity="1" fill-rule="nonzero"/><path fill="#091f2c" d="M 513.589844 55.21875 L 513.589844 130.605469 L 562.28125 130.605469 L 562.28125 117.980469 L 526.171875 117.980469 L 526.171875 55.21875 Z M 513.589844 55.21875 " fill-opacity="1" fill-rule="nonzero"/><path fill="#091f2c" d="M 364.125 55.34375 L 416.894531 55.34375 L 416.894531 67.214844 L 396.847656 67.214844 L 396.847656 99.007812 C 396.847656 101.34375 395.679688 105.332031 392.648438 108.398438 C 390.238281 110.839844 387.738281 112.703125 384.308594 112.703125 L 384.308594 67.214844 L 364.125 67.214844 Z M 364.125 55.34375 " fill-opacity="1" fill-rule="nonzero"/><path fill="#091f2c" d="M 659.957031 55.308594 L 659.957031 130.695312 L 672.117188 130.695312 L 672.117188 78.957031 L 673.160156 78.957031 L 715.175781 130.546875 L 726.640625 130.546875 L 726.640625 55.328125 L 714.589844 55.328125 L 714.589844 106.894531 L 713.699219 106.894531 L 672.433594 55.308594 Z M 659.957031 55.308594 " fill-opacity="1" fill-rule="nonzero"/><path fill="#8a391b" d="M 165.128906 190.546875 C 165.421875 189.144531 163.589844 187.304688 161.050781 186.460938 L 157.894531 183.878906 C 157.4375 183.503906 154.578125 182.425781 153.132812 181.65625 L 151.652344 180.859375 C 150.199219 179.289062 148.121094 178.871094 147.027344 179.917969 L 145.523438 180.382812 C 143.5625 180.988281 141.945312 180.148438 141.710938 179.902344 L 141.308594 179.46875 C 137.402344 174.648438 133.832031 170.113281 133.375 169.394531 C 132.917969 168.675781 130.148438 166.875 128.625 167.507812 C 127.097656 168.144531 121.550781 170.347656 120.675781 170.480469 C 119.800781 170.617188 116.289062 171.191406 115.464844 171.355469 C 114.644531 171.519531 110.527344 169.902344 108.714844 167.261719 C 106.902344 164.621094 98.492188 157.285156 97.21875 156.933594 C 95.949219 156.582031 90.484375 154.144531 88.105469 154.367188 C 85.722656 154.589844 83.128906 154.179688 83.050781 154.097656 C 82.976562 154.015625 79.871094 156.574219 79.632812 156.539062 C 79.394531 156.5 77.976562 157.480469 77.167969 158.835938 C 76.363281 160.191406 73.082031 165.347656 72.109375 166.257812 C 71.136719 167.171875 67.441406 170.710938 66.683594 171.421875 C 65.929688 172.132812 62.777344 174.722656 61.863281 175.054688 C 60.953125 175.382812 54.753906 175.15625 50.765625 173.554688 L 49.484375 172.980469 L 48.199219 172.402344 C 44.761719 171.941406 41.621094 171.949219 41.214844 172.425781 C 40.8125 172.90625 39.046875 174.671875 38.476562 174.949219 C 37.910156 175.226562 35.011719 179.132812 33.777344 181.371094 L 32.421875 181.976562 C 31.464844 182.402344 31.15625 180.570312 30.003906 180.882812 C 28.125 181.398438 27.746094 183.890625 26.234375 184.511719 L 23.785156 185.515625 C 21.382812 186.183594 21.71875 187.074219 24.535156 187.484375 L 28.613281 187.6875 L 31.785156 187.84375 C 33.132812 185.859375 34.613281 183.519531 35.078125 182.628906 C 35.542969 181.738281 37.667969 178.398438 38.355469 177.824219 C 39.046875 177.246094 42.179688 175.335938 43.230469 175.269531 C 44.277344 175.203125 46.359375 175.253906 46.164062 175.890625 C 45.96875 176.527344 46.148438 179.09375 45.722656 179.386719 C 45.296875 179.679688 43.535156 181.070312 43.070312 181.640625 C 42.609375 182.207031 41.664062 184.4375 41.171875 184.707031 C 40.675781 184.976562 38.632812 186.371094 37.992188 186.9375 C 37.347656 187.507812 35.152344 188.964844 36.214844 188.71875 C 37.28125 188.472656 40.902344 187.746094 41.105469 187.8125 C 41.304688 187.882812 42.535156 188.382812 43.25 188.726562 C 43.96875 189.070312 47.179688 188.675781 47.609375 188.597656 C 48.035156 188.523438 53.730469 188.335938 55.167969 188.179688 C 56.601562 188.023438 61.320312 187.460938 63.371094 187.058594 L 63.667969 187.042969 L 63.96875 187.027344 C 65.71875 186.429688 67.019531 185.570312 66.847656 185.125 C 66.675781 184.683594 69.304688 183.832031 69.582031 183.519531 C 69.859375 183.203125 66.574219 179.707031 67.214844 178.496094 L 69.371094 176.257812 C 69.664062 175.953125 78.667969 161.394531 79.398438 160.445312 L 80.140625 159.492188 C 82.421875 158.707031 85.335938 157.847656 86.605469 157.578125 C 87.878906 157.308594 90.019531 159.113281 89.316406 159.492188 C 88.613281 159.875 84.414062 162.847656 82.328125 165.578125 L 80.550781 175.1875 C 80.550781 175.1875 79.289062 176.496094 78 178.894531 C 76.886719 180.964844 76.390625 183.082031 75.386719 183.277344 C 75.386719 183.277344 75.246094 183.691406 74.925781 184.902344 L 74.601562 186.105469 C 72.53125 187.738281 76.292969 189.8125 82.960938 190.726562 L 86.390625 190.097656 L 89.816406 189.46875 C 95.160156 187.484375 99.75 185.066406 100.011719 184.078125 L 100.136719 183.398438 C 104.605469 183.457031 108.328125 183.261719 108.421875 182.964844 C 108.519531 182.664062 109.128906 181.707031 109.515625 181.691406 C 109.90625 181.675781 113.132812 181.96875 115.527344 182.378906 L 115.839844 182.304688 L 116.15625 182.230469 C 116.835938 179.902344 117.980469 177.449219 118.699219 176.773438 C 119.417969 176.101562 123.167969 173.113281 124.425781 172.769531 C 125.683594 172.425781 126.59375 174.738281 125.695312 176.566406 C 124.796875 178.390625 122.15625 181.296875 122.53125 181.117188 C 122.90625 180.9375 121.933594 186.175781 123.136719 186.398438 C 124.34375 186.625 128.449219 188.203125 128.742188 189.222656 C 129.035156 190.238281 132.882812 192.003906 136.101562 191.675781 C 139.316406 191.347656 148.386719 191.644531 152.535156 191.855469 C 156.679688 192.058594 164.785156 191.9375 165.078125 190.539062 Z M 165.128906 190.546875 " fill-opacity="1" fill-rule="nonzero"/><path fill="#8a391b" d="M 125.113281 171.84375 L 109.105469 94.039062 L 112.554688 89.871094 L 113.445312 80.34375 L 113.332031 80.164062 C 113.214844 79.96875 109.015625 76.324219 103.5 74.136719 L 102.25 65.121094 C 102.796875 64.59375 103.976562 63.21875 103.65625 61.289062 C 103.527344 60.523438 101.828125 59.101562 96.441406 56.488281 C 93.574219 55.097656 88.980469 53.167969 88.980469 53.167969 L 88.980469 52.253906 C 89.894531 51.878906 90.523438 51.085938 90.523438 50.164062 C 90.523438 49.027344 89.554688 48.078125 88.292969 47.882812 L 87.820312 41.671875 L 87.65625 41.671875 L 87.304688 47.882812 C 86.039062 48.078125 85.074219 49.027344 85.074219 50.164062 C 85.074219 51.085938 85.703125 51.878906 86.613281 52.253906 L 86.613281 53.167969 C 86.613281 53.167969 82.238281 55.105469 79.378906 56.488281 C 73.988281 59.101562 72.378906 60.523438 72.253906 61.289062 C 71.929688 63.21875 73.105469 64.59375 73.660156 65.121094 L 71.78125 75.246094 C 67.558594 77.289062 63.929688 81.523438 63.816406 81.695312 L 63.707031 81.875 L 64.859375 90.738281 L 68.113281 95.078125 L 52.414062 177.53125 L 60.113281 174.125 L 65.066406 146.710938 C 67.910156 146.066406 75.417969 144.839844 91.398438 144.839844 C 105.40625 144.839844 110.976562 146 112.90625 146.582031 L 117.785156 174.183594 L 125.105469 171.84375 Z M 100.601562 74.578125 C 98.964844 74.039062 94.539062 73.867188 93.820312 73.816406 L 93.507812 68.585938 L 97.046875 67.125 C 98.035156 66.691406 98.800781 66.265625 99.375 65.882812 C 99.375 65.882812 100.078125 67.550781 100.3125 70.199219 C 100.460938 71.90625 100.585938 73.597656 100.601562 74.570312 Z M 85.261719 68.914062 L 90.648438 68.914062 C 90.648438 68.914062 91.054688 73.597656 91.054688 73.597656 C 90.507812 73.582031 85.28125 73.652344 84.5625 73.695312 C 84.5625 73.695312 84.503906 68.882812 85.253906 68.914062 Z M 86.695312 54.714844 L 88.472656 54.714844 C 93.695312 56.820312 101.050781 60.246094 101.222656 61.28125 C 101.386719 62.253906 101.007812 63 100.640625 63.503906 C 99.300781 62.484375 94.929688 59.671875 87.25 59.671875 C 86.0625 59.671875 84.976562 59.738281 83.996094 59.84375 L 82.453125 60.097656 C 77.148438 61.0625 75.292969 63.359375 75.1875 63.503906 C 74.820312 63 74.4375 62.253906 74.601562 61.28125 C 74.773438 60.246094 81.472656 56.820312 86.695312 54.714844 Z M 75.589844 65.382812 C 76.070312 65.800781 76.757812 66.308594 77.722656 66.832031 L 79.839844 67.753906 C 80.5 67.992188 81.21875 68.203125 82.027344 68.390625 L 81.617188 73.5 C 77.695312 73.882812 75.515625 74.921875 75.515625 74.921875 C 75.695312 73.949219 75.597656 65.382812 75.597656 65.382812 Z M 66.566406 82.535156 C 67.367188 81.488281 72.542969 76.210938 87.992188 76.210938 L 89.488281 76.210938 C 104.945312 76.210938 110.113281 81.496094 110.914062 82.535156 L 110.914062 86.660156 C 109.164062 85.609375 101.367188 81.300781 88.605469 81.300781 C 75.84375 81.300781 68.175781 84.988281 66.566406 85.835938 Z M 67.746094 89.742188 L 67.949219 89.78125 C 67.949219 89.78125 73.25 85.714844 88.605469 85.714844 C 101.5625 85.714844 107.398438 89.539062 108.917969 90.746094 L 106.859375 93.296875 C 105.039062 92.488281 99.203125 90.339844 88.066406 90.339844 C 77.574219 90.339844 72.417969 92.285156 70.539062 93.214844 L 67.738281 89.742188 Z M 71.128906 97.382812 C 72.15625 96.8125 76.929688 94.554688 87.976562 94.554688 C 99.957031 94.554688 105.527344 97.152344 106.164062 97.472656 L 109.644531 118.980469 C 106.613281 117.828125 99.734375 115.847656 87.945312 115.847656 C 76.863281 115.847656 70.757812 117.628906 67.851562 118.832031 Z M 71.128906 97.382812 " fill-opacity="1" fill-rule="nonzero"/></svg>