<?xml version="1.0" standalone="no"?>
<!DOCTYPE svg PUBLIC "-//W3C//DTD SVG 20010904//EN"
 "http://www.w3.org/TR/2001/REC-SVG-20010904/DTD/svg10.dtd">
<svg version="1.0" xmlns="http://www.w3.org/2000/svg"
 width="1000.000000pt" height="314.000000pt" viewBox="0 0 1000.000000 314.000000"
 preserveAspectRatio="xMidYMid meet">

<g transform="translate(0.000000,314.000000) scale(0.100000,-0.100000)"
fill="#000000" stroke="none">
<path d="M1271 2686 c0 -11 -8 -28 -17 -38 -14 -14 -14 -20 -4 -33 16 -20 16
-20 -82 -69 -64 -32 -84 -47 -86 -65 -2 -13 1 -28 6 -33 13 -13 -15 -140 -34
-151 -8 -5 -31 -23 -51 -40 -34 -30 -35 -32 -28 -86 3 -31 15 -68 26 -83 10
-15 19 -35 19 -44 0 -13 -141 -762 -181 -961 l-10 -53 -36 15 c-60 25 -104 20
-144 -18 -18 -18 -46 -49 -60 -67 -22 -30 -28 -33 -42 -22 -13 11 -19 9 -39
-12 -12 -14 -36 -30 -52 -36 -37 -14 -33 -16 36 -24 l58 -7 41 66 c43 67 78
95 124 95 44 0 32 -40 -32 -106 l-58 -59 60 -3 c109 -4 277 16 307 38 15 11
32 20 39 20 7 0 6 9 -5 25 -20 30 -20 49 -1 65 8 6 42 57 76 112 66 106 84
123 139 132 64 11 68 -6 12 -60 -44 -44 -50 -55 -56 -104 -4 -30 -13 -62 -20
-70 -8 -8 -28 -44 -47 -79 -31 -61 -32 -64 -14 -77 27 -20 79 -27 137 -21 55
7 178 59 178 76 0 7 23 11 54 11 30 0 58 5 62 11 4 7 24 9 49 6 42 -4 44 -3
60 33 16 36 90 94 106 84 16 -9 9 -51 -11 -77 -11 -14 -20 -40 -20 -60 0 -29
5 -37 28 -46 15 -6 40 -21 55 -33 28 -22 35 -23 237 -23 115 0 211 3 214 6 18
18 -27 54 -152 120 -44 24 -57 26 -77 17 -39 -18 -67 -1 -128 77 -61 78 -90
95 -127 75 -12 -7 -26 -8 -30 -3 -4 4 -51 223 -105 486 l-98 477 23 25 c20 21
24 36 24 92 l1 67 -60 37 c-59 35 -60 37 -68 90 -5 36 -4 61 4 76 17 32 -1 49
-98 95 -46 22 -83 42 -83 46 0 5 5 13 12 20 9 9 8 16 -4 29 -9 10 -18 27 -21
38 -4 19 -5 19 -6 1z m104 -153 c53 -25 75 -42 75 -55 0 -22 3 -22 -56 3 -67
30 -183 30 -241 0 -43 -22 -66 -14 -43 14 19 23 132 74 162 75 16 0 62 -16
103 -37z m-207 -122 c27 -11 32 -18 32 -47 0 -34 -2 -36 -60 -46 -9 -2 -17 0
-18 5 -6 19 -1 108 6 105 4 -3 22 -10 40 -17z m266 -3 c3 -13 6 -38 6 -55 0
-32 -1 -33 -45 -33 l-45 0 0 38 c0 33 4 41 33 55 42 21 44 21 51 -5z m-114
-48 c0 -29 -2 -30 -45 -30 -40 0 -45 2 -45 23 0 32 7 37 52 37 36 0 38 -2 38
-30z m102 -74 c106 -23 158 -57 158 -103 0 -20 -3 -24 -17 -17 -164 72 -345
80 -509 24 l-54 -19 0 24 c0 78 240 129 422 91z m43 -137 c71 -22 93 -40 71
-58 -11 -9 -31 -9 -90 3 -94 20 -242 20 -321 1 -78 -19 -78 -19 -94 6 -15 26
-8 33 54 50 111 32 273 31 380 -2z m10 -110 l39 -14 23 -135 c12 -74 21 -136
19 -138 -2 -2 -38 4 -80 12 -97 21 -300 21 -385 1 -35 -9 -66 -13 -69 -11 -4
5 23 202 35 253 5 21 32 35 93 47 50 9 285 -2 325 -15z m63 -635 c35 -4 55
-11 61 -22 4 -9 18 -75 30 -147 12 -71 25 -138 27 -147 12 -41 -75 -11 -119
41 -60 71 -137 128 -195 145 -113 31 -166 14 -222 -74 -17 -27 -63 -78 -101
-114 -55 -53 -76 -66 -101 -66 -27 0 -30 2 -16 13 10 7 24 55 37 132 39 220
40 223 64 231 60 19 381 24 535 8z"/>
<path d="M3277 2555 c-176 -48 -320 -199 -356 -373 -63 -305 174 -592 489
-592 273 0 492 218 492 490 0 228 -147 417 -369 475 -69 18 -190 18 -256 0z
m268 -167 c61 -32 129 -103 158 -166 18 -38 22 -66 22 -142 0 -84 -3 -102 -28
-151 -138 -283 -527 -235 -603 74 -30 118 7 240 98 329 67 65 132 89 228 85
56 -3 88 -10 125 -29z"/>
<path d="M5951 2554 c-157 -42 -288 -167 -341 -325 -18 -53 -21 -81 -18 -170
3 -101 5 -110 45 -191 66 -132 172 -221 312 -260 314 -87 631 150 631 472 0
221 -153 417 -371 475 -68 19 -188 18 -258 -1z m243 -154 c76 -29 139 -88 178
-168 30 -59 33 -76 33 -152 0 -76 -3 -92 -33 -152 -98 -200 -338 -248 -501
-102 -29 26 -62 69 -78 102 -25 50 -28 68 -28 152 0 76 4 104 22 142 39 85
126 162 213 189 49 14 138 9 194 -11z"/>
<path d="M6767 2564 c-4 -4 -7 -223 -7 -486 l0 -478 315 0 315 0 0 80 0 80
-230 0 -230 0 -2 403 -3 402 -75 3 c-42 1 -79 0 -83 -4z"/>
<path d="M2080 2081 l0 -481 80 0 80 0 0 139 0 139 123 4 c148 6 217 29 288
95 72 68 94 126 94 253 0 125 -22 187 -87 246 -81 73 -106 78 -355 82 l-223 4
0 -481z m439 290 c59 -43 88 -145 60 -218 -29 -78 -107 -113 -251 -113 l-88 0
0 181 0 181 123 -4 c110 -3 125 -5 156 -27z"/>
<path d="M4840 2485 l0 -75 130 0 130 0 0 -290 c0 -270 1 -290 18 -290 30 0
80 38 109 81 l28 42 3 229 3 228 130 0 129 0 0 75 0 75 -340 0 -340 0 0 -75z"/>
<path d="M7910 2478 c-21 -46 -122 -258 -224 -473 -102 -214 -186 -393 -186
-397 0 -5 43 -7 96 -6 l97 3 40 93 40 92 217 0 217 0 43 -95 43 -95 93 0 c52
0 94 3 94 6 0 6 -352 746 -421 887 -32 65 -34 67 -72 67 -38 0 -38 0 -77 -82z
m154 -363 c36 -80 66 -150 66 -155 0 -12 -280 -14 -280 -2 0 14 133 302 140
302 4 0 37 -65 74 -145z"/>
<path d="M8652 2078 l3 -483 75 0 75 0 3 333 c1 182 6 332 10 331 4 0 128
-148 275 -330 l268 -329 74 0 75 0 0 480 0 480 -75 0 -75 0 0 -330 c0 -181 -4
-330 -8 -330 -4 0 -127 149 -272 330 l-264 330 -83 0 -83 0 2 -482z"/>
<path d="M4080 2071 l0 -481 80 0 80 0 0 175 0 175 70 0 c41 0 86 -7 108 -15
23 -10 91 -71 182 -163 158 -161 220 -203 325 -223 145 -27 352 50 434 162
l22 29 -37 69 -38 68 -53 -57 c-70 -76 -132 -104 -233 -105 -114 0 -163 27
-315 176 l-124 122 25 19 c47 38 77 114 82 209 6 110 -13 172 -69 228 -71 71
-124 84 -346 89 l-193 4 0 -481z m387 303 c50 -38 66 -69 67 -131 0 -119 -55
-162 -206 -163 l-88 0 0 161 0 161 100 -4 c80 -3 105 -8 127 -24z"/>
<path d="M2525 1201 c-160 -72 -160 -310 0 -382 69 -32 163 -20 221 27 l29 23
-22 22 -23 23 -39 -22 c-51 -29 -119 -29 -155 -1 -85 67 -72 203 24 252 41 21
88 16 136 -14 l31 -19 24 26 c27 28 25 31 -46 64 -51 25 -128 25 -180 1z"/>
<path d="M3225 1201 c-134 -61 -165 -233 -61 -337 151 -152 406 -11 356 197
-23 95 -106 159 -205 159 -27 0 -68 -9 -90 -19z m163 -68 c37 -23 62 -73 62
-123 0 -82 -57 -140 -137 -140 -50 0 -82 18 -111 60 -20 29 -23 44 -20 93 4
46 10 63 33 87 48 50 117 59 173 23z"/>
<path d="M4675 1206 c-60 -27 -89 -90 -66 -148 13 -36 44 -55 127 -78 80 -23
99 -38 90 -73 -12 -50 -104 -55 -173 -10 -23 15 -26 15 -45 -4 -11 -12 -17
-26 -14 -32 13 -21 87 -52 135 -58 94 -11 160 32 168 109 8 65 -26 101 -120
129 -83 24 -112 46 -102 78 13 43 85 49 147 13 26 -15 28 -14 47 9 l20 24 -20
17 c-43 36 -139 48 -194 24z"/>
<path d="M7265 1201 c-134 -61 -165 -233 -61 -337 150 -151 406 -11 356 195
-30 128 -174 197 -295 142z m163 -67 c85 -55 81 -203 -7 -249 -17 -8 -50 -15
-74 -15 -77 0 -127 58 -127 149 0 39 6 56 27 82 49 58 121 71 181 33z"/>
<path d="M9335 1207 c-50 -24 -70 -54 -70 -107 0 -72 31 -97 162 -130 70 -18
83 -78 21 -99 -35 -12 -94 -1 -135 26 -23 15 -26 15 -45 -4 -25 -25 -19 -37
33 -63 80 -41 182 -35 228 14 14 15 25 42 28 68 8 65 -26 101 -120 129 -83 24
-112 46 -102 78 13 43 85 49 147 13 26 -15 29 -15 43 3 22 30 18 41 -22 61
-49 23 -130 28 -168 11z"/>
<path d="M3880 1010 l0 -200 35 0 34 0 3 143 3 142 110 -142 c101 -132 113
-143 143 -143 l32 0 0 200 0 200 -35 0 -34 0 -3 -137 -3 -136 -105 136 c-101
132 -106 136 -142 137 l-38 0 0 -200z"/>
<path d="M5252 1056 c3 -138 5 -158 24 -182 35 -48 68 -65 130 -71 49 -4 67 0
103 19 71 37 85 74 89 246 l4 142 -41 0 -41 0 0 -145 c0 -142 -1 -147 -25
-170 -37 -37 -106 -35 -146 4 l-29 29 0 141 0 141 -36 0 -35 0 3 -154z"/>
<path d="M5960 1010 l0 -200 145 0 145 0 0 30 0 30 -105 0 -105 0 0 170 0 170
-40 0 -40 0 0 -200z"/>
<path d="M6510 1180 l0 -30 60 0 60 0 0 -170 0 -170 40 0 40 0 0 170 0 170 65
0 65 0 0 30 0 30 -165 0 -165 0 0 -30z"/>
<path d="M7920 1010 l0 -200 35 0 35 0 0 70 0 70 48 0 47 0 48 -70 c46 -67 50
-70 88 -70 21 0 39 3 39 8 0 4 -23 36 -50 72 -43 56 -47 66 -34 75 47 29 65
50 74 84 14 54 -5 109 -49 138 -31 21 -45 23 -157 23 l-124 0 0 -200z m230
127 c38 -19 40 -78 4 -106 -23 -18 -39 -21 -93 -19 l-66 3 -3 68 -3 67 68 0
c37 0 79 -6 93 -13z"/>
<path d="M8610 1010 l0 -200 155 0 155 0 0 30 0 30 -120 0 -120 0 0 55 0 55
105 0 105 0 0 30 0 29 -102 3 -103 3 -3 53 -3 52 115 0 116 0 0 30 0 30 -150
0 -150 0 0 -200z"/>
</g>
</svg>
