<svg xmlns="http://www.w3.org/2000/svg" xmlns:xlink="http://www.w3.org/1999/xlink" width="587" zoomAndPan="magnify" viewBox="0 0 440.25 467.249983" height="623" preserveAspectRatio="xMidYMid meet" version="1.0"><defs><filter x="0%" y="0%" width="100%" height="100%" id="943046ecab"><feColorMatrix values="0 0 0 0 1 0 0 0 0 1 0 0 0 0 1 0 0 0 1 0" color-interpolation-filters="sRGB"/></filter><clipPath id="44c9547883"><path d="M 30 0.0234375 L 357 0.0234375 L 357 323 L 30 323 Z M 30 0.0234375 " clip-rule="nonzero"/></clipPath><mask id="4e8cdeac04"><g filter="url(#943046ecab)"><rect x="-44.025" width="528.3" fill="#000000" y="-46.724998" height="560.69998" fill-opacity="0.35"/></g></mask><clipPath id="d11bf9d758"><rect x="0" width="327" y="0" height="323"/></clipPath></defs><g clip-path="url(#44c9547883)"><g mask="url(#4e8cdeac04)"><g transform="matrix(1, 0, 0, 1, 30, -0.000000000000006373)"><g clip-path="url(#d11bf9d758)"><path fill="#9d5646" d="M 301.679688 301.878906 L 295.191406 296.574219 C 294.253906 295.804688 288.378906 293.589844 285.414062 292.007812 L 282.367188 290.378906 C 279.386719 287.148438 275.113281 286.285156 272.867188 288.441406 L 269.777344 289.390625 C 265.75 290.636719 262.425781 288.914062 261.953125 288.40625 L 261.121094 287.519531 C 253.09375 277.617188 245.761719 268.296875 244.820312 266.820312 C 243.882812 265.347656 238.195312 261.640625 235.058594 262.949219 C 233.535156 263.582031 230.070312 264.972656 226.695312 266.269531 L 194.957031 112.007812 L 202.042969 103.441406 L 203.871094 83.867188 L 203.640625 83.496094 C 203.394531 83.097656 194.769531 75.609375 183.4375 71.121094 L 180.871094 52.589844 C 181.992188 51.515625 184.421875 48.683594 183.765625 44.71875 C 183.503906 43.148438 180.011719 40.226562 168.941406 34.863281 C 163.054688 32.003906 153.613281 28.035156 153.613281 28.035156 L 153.613281 26.160156 C 155.488281 25.390625 156.78125 23.761719 156.78125 21.871094 C 156.78125 19.535156 154.796875 17.582031 152.199219 17.183594 L 151.230469 4.421875 L 150.890625 4.421875 L 150.171875 17.183594 C 147.570312 17.582031 145.589844 19.535156 145.589844 21.871094 C 145.589844 23.761719 146.878906 25.394531 148.757812 26.160156 L 148.757812 28.035156 C 148.757812 28.035156 139.761719 32.019531 133.886719 34.863281 C 122.816406 40.226562 119.511719 43.148438 119.25 44.71875 C 118.589844 48.683594 121 51.511719 122.140625 52.589844 L 118.28125 73.394531 C 109.609375 77.59375 102.152344 86.292969 101.917969 86.648438 L 101.6875 87.019531 L 104.058594 105.222656 L 110.746094 114.140625 L 79.761719 276.84375 C 78.128906 276.429688 76.542969 275.945312 75.105469 275.367188 L 72.476562 274.183594 L 69.832031 273.003906 C 62.773438 272.050781 56.316406 272.0625 55.484375 273.046875 C 54.652344 274.03125 51.027344 277.660156 49.855469 278.230469 C 48.6875 278.800781 42.738281 286.824219 40.199219 291.421875 L 37.417969 292.667969 C 35.449219 293.546875 34.820312 289.777344 32.453125 290.421875 C 28.59375 291.480469 27.808594 296.601562 24.703125 297.878906 L 19.675781 299.941406 C 14.738281 301.308594 15.433594 303.136719 21.214844 303.984375 L 29.59375 304.398438 L 36.113281 304.71875 C 38.878906 300.644531 41.925781 295.832031 42.878906 294.003906 C 43.828125 292.175781 48.195312 285.316406 49.609375 284.132812 C 51.023438 282.945312 57.46875 279.027344 59.617188 278.886719 C 61.769531 278.746094 66.046875 278.859375 65.644531 280.164062 C 65.246094 281.46875 65.617188 286.746094 64.738281 287.34375 C 63.863281 287.945312 60.25 290.804688 59.296875 291.972656 C 58.34375 293.140625 56.40625 297.722656 55.390625 298.277344 C 54.378906 298.828125 50.179688 301.6875 48.855469 302.859375 C 47.535156 304.027344 43.03125 307.023438 45.214844 306.515625 C 47.398438 306.011719 54.839844 304.519531 55.253906 304.65625 C 55.671875 304.796875 58.191406 305.824219 59.667969 306.53125 C 61.140625 307.238281 67.738281 306.421875 68.617188 306.269531 C 69.492188 306.117188 81.195312 305.730469 84.144531 305.410156 C 87.097656 305.085938 96.78125 303.933594 100.996094 303.101562 L 101.609375 303.074219 L 102.226562 303.042969 C 105.824219 301.8125 108.5 300.042969 108.144531 299.136719 C 107.792969 298.230469 113.1875 296.476562 113.757812 295.832031 C 114.328125 295.1875 107.578125 288.007812 108.898438 285.515625 L 113.328125 280.917969 C 113.929688 280.289062 132.425781 250.382812 133.933594 248.429688 L 135.453125 246.476562 C 140.144531 244.863281 146.125 243.09375 148.738281 242.542969 C 151.351562 241.988281 155.75 245.695312 154.304688 246.476562 C 152.859375 247.261719 144.234375 253.367188 139.945312 258.976562 L 136.300781 278.722656 C 136.300781 278.722656 133.703125 281.410156 131.058594 286.332031 C 128.765625 290.589844 127.753906 294.941406 125.691406 295.34375 C 125.691406 295.34375 125.402344 296.1875 124.742188 298.679688 L 124.082031 301.15625 C 119.820312 304.507812 127.554688 308.765625 141.253906 310.640625 L 148.296875 309.351562 L 155.335938 308.0625 C 166.316406 303.984375 175.742188 299.019531 176.28125 296.988281 L 176.539062 295.589844 C 185.71875 295.710938 193.363281 295.3125 193.5625 294.699219 C 193.757812 294.085938 195.007812 292.117188 195.804688 292.085938 C 196.605469 292.058594 203.230469 292.65625 208.15625 293.5 L 208.800781 293.347656 L 209.449219 293.195312 C 210.847656 288.410156 213.199219 283.367188 214.675781 281.988281 C 216.152344 280.601562 223.855469 274.46875 226.4375 273.761719 C 229.023438 273.054688 230.898438 277.804688 229.050781 281.558594 C 227.207031 285.3125 221.78125 291.273438 222.546875 290.90625 C 223.316406 290.535156 221.316406 301.300781 223.792969 301.761719 C 226.265625 302.226562 234.710938 305.46875 235.308594 307.558594 C 235.910156 309.652344 243.8125 313.28125 250.421875 312.605469 C 257.03125 311.925781 275.667969 312.542969 284.1875 312.972656 C 292.703125 313.390625 309.355469 313.144531 309.953125 310.265625 L 310.0625 310.285156 C 310.664062 307.40625 306.894531 303.625 301.679688 301.886719 Z M 124.078125 44.703125 C 124.433594 42.582031 138.195312 35.542969 148.921875 31.21875 L 152.566406 31.21875 C 163.300781 35.542969 178.414062 42.582031 178.765625 44.703125 C 179.105469 46.703125 178.320312 48.238281 177.566406 49.269531 C 174.816406 47.175781 165.835938 41.398438 150.0625 41.398438 C 147.617188 41.398438 145.386719 41.535156 143.375 41.75 L 140.203125 42.273438 C 129.304688 44.257812 125.492188 48.976562 125.277344 49.269531 C 124.523438 48.238281 123.738281 46.703125 124.078125 44.703125 Z M 177.492188 72.011719 L 177.492188 72.027344 C 174.125 70.917969 165.039062 70.5625 163.5625 70.457031 L 162.914062 59.710938 L 170.1875 56.710938 C 172.21875 55.820312 173.785156 54.945312 174.972656 54.160156 C 174.972656 54.160156 176.417969 57.589844 176.890625 63.03125 C 177.199219 66.539062 177.460938 70.011719 177.492188 72.011719 Z M 157.871094 70.011719 C 156.75 69.980469 146.019531 70.117188 144.542969 70.210938 C 144.542969 70.210938 144.417969 60.324219 145.957031 60.382812 L 157.042969 60.382812 L 157.875 70.007812 Z M 126.121094 53.144531 C 127.105469 54 128.511719 55.042969 130.488281 56.113281 L 134.839844 58.003906 C 136.191406 58.496094 137.671875 58.925781 139.332031 59.3125 L 138.484375 69.8125 C 130.429688 70.597656 125.957031 72.734375 125.957031 72.734375 C 126.324219 70.753906 126.128906 53.417969 126.125 53.144531 Z M 107.5625 88.371094 C 109.207031 86.21875 119.851562 75.378906 151.585938 75.378906 L 154.660156 75.378906 C 186.410156 75.378906 197.035156 86.234375 198.679688 88.371094 L 198.679688 96.84375 C 195.082031 94.691406 179.058594 85.832031 152.84375 85.832031 C 126.632812 85.832031 110.867188 93.414062 107.5625 95.148438 L 107.5625 88.367188 Z M 109.980469 103.179688 L 109.996094 103.179688 C 109.996094 103.179688 110.410156 103.257812 110.410156 103.257812 C 110.410156 103.257812 121.296875 94.910156 152.847656 94.910156 C 179.464844 94.910156 191.457031 102.765625 194.578125 105.242188 L 190.351562 110.488281 C 186.613281 108.828125 174.621094 104.414062 151.742188 104.414062 C 130.1875 104.414062 119.59375 108.410156 115.734375 110.316406 L 109.980469 103.183594 Z M 116.941406 118.878906 C 119.046875 117.707031 128.859375 113.0625 151.550781 113.0625 C 176.167969 113.0625 187.609375 118.398438 188.914062 119.058594 L 196.0625 163.25 C 189.835938 160.878906 175.707031 156.804688 151.492188 156.804688 C 128.71875 156.804688 116.171875 160.464844 110.207031 162.941406 L 116.9375 118.875 Z M 208.027344 270.847656 C 206.335938 271.1875 197.878906 267.863281 194.160156 262.4375 C 190.4375 257.011719 173.15625 241.945312 170.542969 241.21875 C 167.929688 240.496094 156.703125 235.484375 151.816406 235.945312 C 146.925781 236.40625 141.589844 235.5625 141.4375 235.394531 C 141.285156 235.222656 134.902344 240.480469 134.410156 240.40625 C 133.921875 240.332031 131.011719 242.34375 129.351562 245.128906 C 127.691406 247.910156 120.957031 258.507812 118.957031 260.382812 C 116.957031 262.257812 109.359375 269.527344 107.8125 270.992188 C 106.257812 272.453125 99.785156 277.773438 97.910156 278.449219 C 97.046875 278.761719 93.871094 278.824219 89.910156 278.492188 L 94.3125 276.542969 L 104.488281 220.222656 C 110.332031 218.902344 125.753906 216.378906 158.582031 216.378906 C 187.363281 216.378906 198.800781 218.761719 202.769531 219.960938 L 211.652344 270.214844 C 210.054688 270.484375 208.660156 270.726562 208.027344 270.855469 Z M 208.027344 270.847656 " fill-opacity="1" fill-rule="nonzero"/></g></g></g></g></svg>