<svg xmlns="http://www.w3.org/2000/svg" xmlns:xlink="http://www.w3.org/1999/xlink" width="587" zoomAndPan="magnify" viewBox="0 0 440.25 467.249983" height="623" preserveAspectRatio="xMidYMid meet" version="1.0"><defs><filter x="0%" y="0%" width="100%" height="100%" id="c52b8842c5"><feColorMatrix values="0 0 0 0 1 0 0 0 0 1 0 0 0 0 1 0 0 0 1 0" color-interpolation-filters="sRGB"/></filter><mask id="5e659b380b"><g filter="url(#c52b8842c5)"><rect x="-44.025" width="528.3" fill="#000000" y="-46.724998" height="560.69998" fill-opacity="0.4"/></g></mask><clipPath id="5f23bfde1d"><path d="M 264 29 L 297.691406 29 L 297.691406 185 L 264 185 Z M 264 29 " clip-rule="nonzero"/></clipPath><clipPath id="6edd692350"><rect x="0" width="374" y="0" height="312"/></clipPath></defs><g mask="url(#5e659b380b)"><g transform="matrix(1, 0, 0, 1, 45, 2)"><g clip-path="url(#6edd692350)"><g clip-path="url(#5f23bfde1d)"><path fill="#ffffff" d="M 314.984375 29.894531 C 357.496094 29.894531 371.941406 55.066406 371.941406 82.316406 C 371.941406 122.148438 346.140625 139.257812 309.214844 139.257812 L 289.886719 139.257812 L 289.886719 184.570312 L 264.484375 184.570312 L 264.484375 29.894531 Z M 311.550781 113.472656 C 335.078125 113.472656 346.21875 101.71875 346.21875 84.578125 C 346.21875 69.5 338.371094 55.480469 315.476562 55.480469 L 289.886719 55.480469 L 289.886719 113.472656 Z M 311.550781 113.472656 " fill-opacity="1" fill-rule="nonzero"/></g><path fill="#9d5646" d="M 295.472656 307.738281 C 296.074219 304.859375 292.304688 301.074219 287.089844 299.335938 L 280.59375 294.027344 C 279.65625 293.261719 273.777344 291.042969 270.808594 289.460938 L 267.761719 287.828125 C 264.777344 284.597656 260.5 283.734375 258.253906 285.890625 L 255.160156 286.84375 C 251.128906 288.089844 247.808594 286.367188 247.332031 285.859375 L 246.5 284.964844 C 238.46875 275.058594 231.128906 265.734375 230.191406 264.257812 C 229.25 262.78125 223.558594 259.070312 220.421875 260.378906 C 217.28125 261.6875 205.878906 266.210938 204.078125 266.488281 C 202.28125 266.765625 195.0625 267.949219 193.371094 268.289062 C 191.679688 268.625 183.214844 265.304688 179.492188 259.871094 C 175.769531 254.441406 158.476562 239.363281 155.859375 238.640625 C 153.242188 237.914062 142.011719 232.898438 137.117188 233.363281 C 132.226562 233.824219 126.886719 232.976562 126.734375 232.808594 C 126.578125 232.636719 120.195312 237.898438 119.703125 237.824219 C 119.210938 237.746094 116.300781 239.761719 114.640625 242.546875 C 112.976562 245.332031 106.238281 255.933594 104.238281 257.808594 C 102.238281 259.6875 94.636719 266.964844 93.082031 268.425781 C 91.53125 269.886719 85.050781 275.210938 83.175781 275.890625 C 81.296875 276.566406 68.558594 276.105469 60.355469 272.8125 L 57.726562 271.625 L 55.078125 270.441406 C 48.019531 269.488281 41.554688 269.503906 40.722656 270.488281 C 39.894531 271.472656 36.261719 275.105469 35.09375 275.671875 C 33.921875 276.242188 27.96875 284.273438 25.429688 288.875 L 22.644531 290.121094 C 20.675781 291 20.046875 287.226562 17.675781 287.875 C 13.8125 288.9375 13.03125 294.058594 9.921875 295.335938 L 4.890625 297.398438 C -0.0507812 298.769531 0.644531 300.597656 6.429688 301.445312 L 14.8125 301.859375 L 21.339844 302.183594 C 24.109375 298.105469 27.152344 293.289062 28.109375 291.460938 C 29.0625 289.628906 33.429688 282.765625 34.847656 281.582031 C 36.261719 280.398438 42.710938 276.472656 44.863281 276.335938 C 47.015625 276.195312 51.292969 276.304688 50.894531 277.613281 C 50.496094 278.921875 50.863281 284.199219 49.988281 284.796875 C 49.109375 285.398438 45.496094 288.257812 44.539062 289.429688 C 43.585938 290.597656 41.648438 295.183594 40.632812 295.738281 C 39.617188 296.289062 35.417969 299.152344 34.09375 300.320312 C 32.769531 301.492188 28.261719 304.492188 30.445312 303.984375 C 32.632812 303.476562 40.078125 301.984375 40.492188 302.121094 C 40.910156 302.261719 43.433594 303.292969 44.910156 304 C 46.386719 304.707031 52.988281 303.890625 53.863281 303.738281 C 54.742188 303.585938 66.449219 303.199219 69.40625 302.875 C 72.359375 302.554688 82.050781 301.398438 86.269531 300.566406 L 86.882812 300.539062 L 87.5 300.507812 C 91.097656 299.277344 93.777344 297.507812 93.421875 296.597656 C 93.066406 295.691406 98.46875 293.9375 99.039062 293.289062 C 99.609375 292.644531 92.851562 285.460938 94.175781 282.964844 L 98.605469 278.367188 C 99.207031 277.734375 117.71875 247.808594 119.226562 245.855469 L 120.75 243.902344 C 125.441406 242.285156 131.425781 240.515625 134.042969 239.960938 C 136.65625 239.40625 141.058594 243.117188 139.613281 243.902344 C 138.164062 244.6875 129.535156 250.792969 125.242188 256.410156 L 121.59375 276.164062 C 121.59375 276.164062 118.992188 278.859375 116.347656 283.78125 C 114.054688 288.042969 113.039062 292.398438 110.976562 292.796875 C 110.976562 292.796875 110.6875 293.644531 110.023438 296.136719 L 109.363281 298.613281 C 105.101562 301.96875 112.839844 306.230469 126.546875 308.109375 L 140.640625 305.523438 C 151.628906 301.445312 161.058594 296.476562 161.597656 294.445312 L 161.859375 293.042969 C 171.046875 293.167969 178.691406 292.765625 178.890625 292.152344 C 179.09375 291.535156 180.339844 289.566406 181.140625 289.535156 C 181.9375 289.503906 188.570312 290.105469 193.492188 290.953125 L 194.140625 290.796875 L 194.785156 290.644531 C 196.1875 285.859375 198.539062 280.8125 200.019531 279.425781 C 201.496094 278.042969 209.203125 271.902344 211.789062 271.195312 C 214.375 270.488281 216.25 275.242188 214.402344 278.996094 C 212.558594 282.75 207.125 288.722656 207.894531 288.351562 C 208.664062 287.980469 206.664062 298.753906 209.140625 299.214844 C 211.617188 299.675781 220.066406 302.921875 220.667969 305.015625 C 221.265625 307.105469 229.175781 310.738281 235.789062 310.0625 C 242.40625 309.382812 261.054688 310 269.578125 310.429688 C 278.101562 310.847656 294.765625 310.601562 295.367188 307.722656 Z M 295.472656 307.738281 " fill-opacity="1" fill-rule="nonzero"/><path fill="#9d5646" d="M 213.203125 269.289062 L 180.292969 109.332031 L 187.386719 100.761719 L 189.214844 81.175781 L 188.984375 80.808594 C 188.738281 80.40625 180.109375 72.914062 168.769531 68.421875 L 166.199219 49.882812 C 167.320312 48.804688 169.753906 45.972656 169.089844 42.003906 C 168.828125 40.433594 165.335938 37.511719 154.257812 32.140625 C 148.367188 29.277344 138.917969 25.308594 138.917969 25.308594 L 138.917969 23.433594 C 140.796875 22.664062 142.089844 21.03125 142.089844 19.140625 C 142.089844 16.800781 140.105469 14.847656 137.503906 14.445312 L 136.535156 1.675781 L 136.195312 1.675781 L 135.472656 14.445312 C 132.871094 14.847656 130.886719 16.800781 130.886719 19.140625 C 130.886719 21.03125 132.179688 22.664062 134.058594 23.433594 L 134.058594 25.308594 C 134.058594 25.308594 125.054688 29.292969 119.179688 32.140625 C 108.101562 37.511719 104.792969 40.433594 104.53125 42.003906 C 103.871094 45.972656 106.285156 48.804688 107.421875 49.882812 L 103.5625 70.699219 C 94.882812 74.898438 87.421875 83.609375 87.191406 83.960938 L 86.960938 84.332031 L 89.328125 102.546875 L 96.023438 111.472656 L 63.742188 280.980469 L 79.574219 273.980469 L 89.761719 217.621094 C 95.605469 216.296875 111.039062 213.773438 143.890625 213.773438 C 172.691406 213.773438 184.140625 216.160156 188.109375 217.359375 L 198.140625 274.105469 L 213.1875 269.289062 Z M 162.8125 69.328125 C 159.445312 68.222656 150.351562 67.867188 148.875 67.761719 L 148.226562 57.003906 L 155.503906 54.003906 C 157.535156 53.113281 159.105469 52.234375 160.289062 51.449219 C 160.289062 51.449219 161.738281 54.882812 162.214844 60.328125 C 162.523438 63.835938 162.785156 67.3125 162.8125 69.3125 Z M 131.273438 57.683594 L 142.351562 57.683594 C 142.351562 57.683594 143.179688 67.3125 143.179688 67.3125 C 142.058594 67.28125 131.320312 67.421875 129.839844 67.511719 C 129.839844 67.511719 129.71875 57.621094 131.257812 57.683594 Z M 134.226562 28.496094 L 137.871094 28.496094 C 148.613281 32.816406 163.738281 39.863281 164.089844 41.988281 C 164.429688 43.988281 163.644531 45.527344 162.890625 46.558594 C 160.136719 44.464844 151.152344 38.679688 135.363281 38.679688 C 132.917969 38.679688 130.6875 38.816406 128.671875 39.035156 L 125.503906 39.558594 C 114.59375 41.542969 110.777344 46.265625 110.5625 46.558594 C 109.808594 45.527344 109.023438 43.988281 109.363281 41.988281 C 109.714844 39.863281 123.488281 32.816406 134.226562 28.496094 Z M 111.394531 50.417969 C 112.378906 51.28125 113.792969 52.328125 115.777344 53.40625 L 120.132812 55.296875 C 121.488281 55.789062 122.964844 56.21875 124.625 56.605469 L 123.777344 67.113281 C 115.71875 67.898438 111.238281 70.035156 111.238281 70.035156 C 111.609375 68.035156 111.410156 50.417969 111.410156 50.417969 Z M 92.835938 85.683594 C 94.484375 83.53125 105.132812 72.683594 136.886719 72.683594 L 139.964844 72.683594 C 171.738281 72.683594 182.371094 83.546875 184.015625 85.683594 L 184.015625 94.164062 C 180.414062 92.007812 164.382812 83.144531 138.148438 83.144531 C 111.917969 83.144531 96.144531 90.730469 92.835938 92.46875 Z M 95.269531 100.5 L 95.683594 100.578125 C 95.683594 100.578125 106.578125 92.222656 138.148438 92.222656 C 164.785156 92.222656 176.785156 100.085938 179.90625 102.5625 L 175.675781 107.808594 C 171.9375 106.148438 159.9375 101.734375 137.042969 101.734375 C 115.46875 101.734375 104.871094 105.734375 101.007812 107.640625 L 95.253906 100.5 Z M 102.222656 116.210938 C 104.332031 115.042969 114.148438 110.394531 136.859375 110.394531 C 161.492188 110.394531 172.9375 115.734375 174.246094 116.394531 L 181.402344 160.617188 C 175.167969 158.246094 161.027344 154.167969 136.796875 154.167969 C 114.007812 154.167969 101.453125 157.832031 95.484375 160.308594 Z M 102.222656 116.210938 " fill-opacity="1" fill-rule="nonzero"/></g></g></g></svg>