<svg xmlns="http://www.w3.org/2000/svg" xmlns:xlink="http://www.w3.org/1999/xlink" width="500" zoomAndPan="magnify" viewBox="0 0 375 374.999991" height="500" preserveAspectRatio="xMidYMid meet" version="1.0"><defs><clipPath id="ccfcbdb8bc"><path d="M 8 34 L 371 34 L 371 341.25 L 8 341.25 Z M 8 34 " clip-rule="nonzero"/></clipPath></defs><g clip-path="url(#ccfcbdb8bc)"><path fill="#091f2c" d="M 202.398438 141.894531 C 198.109375 143.128906 193.96875 146.183594 190.988281 150.179688 C 181.03125 163.699219 179.503906 180.558594 179.941406 192.261719 C 180.304688 202.289062 182.484375 221.113281 192.296875 234.703125 C 193.605469 236.519531 194.984375 238.121094 196.4375 239.5 C 200.871094 243.644531 206.179688 245.824219 211.410156 245.824219 C 214.535156 245.824219 217.589844 245.097656 220.421875 243.5 C 226.601562 240.15625 231.46875 233.613281 234.742188 223.949219 C 240.480469 207.160156 240.335938 187.316406 234.304688 169.585938 C 230.816406 159.410156 226.09375 148.4375 217.007812 143.566406 C 212.5 141.09375 207.269531 140.515625 202.398438 141.894531 Z M 220.933594 180.195312 C 224.273438 192.1875 224.421875 205.34375 221.367188 217.1875 C 220.496094 220.53125 219.40625 223.4375 217.953125 226.128906 C 216.136719 229.398438 214.101562 231.214844 211.847656 231.652344 C 208.214844 232.304688 204.941406 228.960938 203.34375 226.855469 C 190.117188 210.210938 190.042969 181.503906 197.601562 164.425781 C 198.621094 162.097656 200.074219 159.335938 202.542969 158.175781 C 204.652344 157.15625 206.613281 157.085938 208.578125 158.027344 C 211.773438 159.484375 216.570312 164.570312 220.933594 180.195312 Z M 78.703125 261.523438 C 79.71875 261.085938 85.824219 259.414062 89.023438 258.542969 C 88.65625 256 88.222656 252.65625 87.714844 248.804688 C 82.769531 213.046875 80.519531 195.386719 79.792969 188.625 C 76.957031 192.261719 72.449219 197.421875 70.78125 198.65625 C 67.652344 200.980469 63.875 200.546875 61.984375 198.875 C 60.3125 197.347656 60.167969 195.09375 61.550781 192.839844 C 63.730469 189.351562 66.855469 185.136719 69.90625 181.066406 C 73.324219 176.5625 76.8125 171.910156 79.066406 168.058594 C 80.371094 165.878906 83.207031 164.789062 85.96875 165.296875 C 88.441406 165.734375 90.183594 167.40625 90.546875 169.65625 C 92.21875 179.761719 97.671875 217.261719 100.941406 239.71875 L 100.941406 239.9375 C 102.03125 247.496094 102.902344 253.382812 103.265625 255.925781 C 103.484375 255.851562 103.703125 255.851562 103.921875 255.78125 C 106.683594 255.199219 111.84375 254.109375 112.933594 253.964844 C 116.128906 253.527344 119.546875 253.746094 120.417969 258.6875 C 121.289062 263.921875 118.3125 265.375 115.332031 266.171875 C 113.296875 266.683594 106.027344 268.207031 98.25 269.734375 C 96.144531 270.171875 93.964844 270.679688 91.855469 271.1875 C 87.421875 272.207031 83.207031 273.222656 80.734375 273.222656 L 80.664062 273.222656 C 78.121094 273.222656 75.941406 271.625 75.140625 269.152344 C 74.269531 266.609375 74.996094 263.195312 78.703125 261.523438 Z M 349.644531 260.214844 C 328.859375 290.957031 293.171875 315.011719 246.515625 329.914062 C 221.875 337.472656 195.566406 341.25 169.984375 341.25 C 152.179688 341.25 134.664062 339.359375 118.382812 335.652344 C 85.605469 328.09375 41.855469 309.054688 19.757812 261.449219 C 0.0625 215.445312 7.476562 168.640625 40.472656 129.683594 C 60.675781 105.847656 89.53125 86.660156 121.726562 75.613281 C 154.578125 64.421875 189.390625 62.3125 219.769531 69.652344 C 221.441406 70.015625 222.167969 71.613281 221.949219 73.070312 C 221.730469 74.742188 220.421875 75.757812 218.898438 75.613281 C 180.59375 71.46875 136.625 80.335938 101.304688 99.449219 C 61.621094 120.890625 35.75 153.160156 28.480469 190.296875 C 23.320312 227.292969 32.695312 258.980469 55.664062 282.015625 C 71.433594 297.859375 93.746094 309.636719 120.128906 316.03125 C 145.347656 322.136719 173.835938 323.296875 202.472656 319.375 C 215.699219 317.847656 244.769531 310.941406 262.285156 303.019531 C 281.691406 294.953125 310.109375 277.800781 327.40625 255.5625 C 327.40625 255.273438 327.476562 254.835938 328.566406 253.964844 C 344.195312 233.03125 351.460938 208.539062 349.71875 183.25 C 348.046875 158.683594 337.941406 134.84375 320.71875 114.421875 C 293.027344 81.644531 251.746094 60.351562 207.488281 55.988281 C 200.144531 55.261719 190.988281 55.042969 182.921875 54.828125 C 180.085938 54.753906 177.398438 54.679688 175 54.609375 L 174.925781 54.609375 C 168.3125 53.738281 165.480469 48.722656 165.625 44.433594 C 165.769531 40.289062 168.675781 35.859375 174.925781 35.421875 C 200 33.75 224.273438 36.292969 247.097656 42.90625 C 268.464844 49.085938 288.160156 58.679688 305.601562 71.46875 C 338.742188 95.816406 361.707031 130.773438 368.6875 167.476562 C 374.9375 200.546875 368.394531 232.597656 349.644531 260.214844 Z M 132.554688 252.875 C 136.554688 256.652344 141.496094 258.6875 146.4375 258.6875 C 150.871094 258.6875 155.085938 257.015625 158.355469 253.890625 C 166.058594 246.550781 171.074219 233.757812 171.800781 219.734375 C 172.671875 204.398438 170.640625 190.226562 166.058594 178.597656 C 162.207031 168.859375 156.175781 160.789062 149.925781 157.085938 C 145.492188 154.46875 140.984375 153.8125 136.40625 155.195312 C 132.046875 156.503906 128.050781 159.554688 125.214844 163.84375 C 112.859375 182.738281 113.949219 211.300781 120.492188 231.289062 C 122.597656 237.683594 126.160156 246.769531 132.554688 252.875 Z M 128.339844 200.035156 C 128.414062 192.84375 129.066406 183.683594 133.210938 176.125 C 135.390625 172.203125 137.644531 170.238281 140.042969 170.238281 C 140.1875 170.238281 140.40625 170.238281 140.550781 170.238281 C 146.945312 170.964844 153.269531 184.484375 155.160156 191.242188 C 158.285156 202.507812 159.011719 214.644531 157.265625 226.128906 C 157.046875 227.4375 156.757812 228.890625 156.394531 230.34375 C 155.085938 235.578125 152.03125 242.261719 147.816406 243.714844 C 145.78125 244.441406 143.53125 243.863281 141.203125 241.972656 C 135.972656 237.828125 133.28125 230.851562 131.394531 224.53125 C 129.285156 217.1875 128.265625 209.195312 128.339844 200.035156 Z M 269.261719 135.0625 C 263.375 129.976562 253.273438 128.304688 246.515625 134.410156 C 245.351562 135.425781 244.699219 136.734375 244.625 138.117188 C 244.1875 138.480469 243.824219 138.914062 243.535156 139.496094 C 239.683594 146.402344 241.5 154.976562 247.96875 160.0625 C 250.65625 162.171875 253.855469 163.261719 257.269531 163.261719 C 262.140625 163.261719 267.082031 161.082031 270.425781 157.375 C 273.40625 154.105469 274.929688 149.960938 274.640625 145.746094 C 274.351562 141.53125 272.460938 137.824219 269.261719 135.0625 Z M 254.507812 152.070312 C 251.964844 150.542969 250.292969 147.417969 251.890625 144.21875 C 252.472656 144.148438 253.054688 144.003906 253.5625 143.785156 C 256.542969 142.546875 260.46875 143.277344 262.285156 145.457031 C 263.375 146.835938 263.304688 148.4375 262.066406 150.324219 C 259.160156 154.394531 255.527344 152.722656 254.507812 152.070312 Z M 307.347656 133.246094 C 290.992188 159.410156 280.527344 188.117188 273.332031 226.128906 C 272.824219 233.324219 268.679688 236.59375 265.121094 236.59375 C 265.046875 236.59375 264.902344 236.59375 264.828125 236.59375 C 260.394531 236.375 258.507812 232.085938 258.578125 227.871094 L 258.578125 227.65625 C 264.828125 190.007812 274.714844 161.371094 289.757812 137.535156 C 289.832031 137.460938 294.046875 130.847656 296.878906 127.867188 C 299.570312 125.105469 303.855469 125.179688 306.253906 127.066406 C 308.21875 128.59375 308.652344 131.066406 307.347656 133.246094 Z M 305.746094 188.699219 C 304.730469 188.335938 303.566406 188.261719 302.402344 188.410156 C 298.988281 188.988281 296.082031 190.953125 293.972656 194.078125 C 291.136719 198.292969 289.976562 204.398438 291.066406 209.558594 C 292.738281 217.335938 299.132812 222.566406 306.980469 222.566406 C 308.074219 222.566406 309.164062 222.496094 310.253906 222.277344 C 319.121094 220.605469 325.296875 212.539062 324.207031 203.960938 C 323.117188 194.804688 314.832031 187.972656 305.746094 188.699219 Z M 307.199219 199.964844 C 307.417969 199.820312 307.5625 199.671875 307.710938 199.527344 C 308.726562 199.746094 309.816406 200.472656 310.6875 201.417969 C 311.851562 202.796875 312.507812 204.46875 312.289062 205.921875 C 311.996094 208.175781 309.597656 209.484375 307.417969 209.628906 C 305.238281 209.777344 303.855469 208.539062 303.640625 206.433594 C 303.421875 203.527344 305.457031 201.273438 307.199219 199.964844 Z M 307.199219 199.964844 " fill-opacity="1" fill-rule="nonzero"/></g></svg>