<svg xmlns="http://www.w3.org/2000/svg" xmlns:xlink="http://www.w3.org/1999/xlink" width="500" zoomAndPan="magnify" viewBox="0 0 375 374.999991" height="500" preserveAspectRatio="xMidYMid meet" version="1.0"><defs><clipPath id="b2182ea690"><path d="M 6.09375 241 L 73 241 L 73 255 L 6.09375 255 Z M 6.09375 241 " clip-rule="nonzero"/></clipPath></defs><path fill="#091f2c" d="M 84.703125 207.878906 L 84.703125 344.71875 C 84.703125 345.117188 84.742188 345.507812 84.820312 345.898438 C 84.898438 346.289062 85.011719 346.664062 85.164062 347.03125 C 85.316406 347.398438 85.5 347.746094 85.722656 348.078125 C 85.941406 348.410156 86.195312 348.714844 86.472656 348.996094 C 86.753906 349.273438 87.058594 349.527344 87.390625 349.746094 C 87.71875 349.96875 88.070312 350.152344 88.4375 350.304688 C 88.804688 350.457031 89.179688 350.570312 89.570312 350.648438 C 89.960938 350.726562 90.351562 350.765625 90.75 350.765625 L 117.960938 350.765625 C 117.960938 349.675781 118.015625 348.589844 118.121094 347.503906 C 118.226562 346.421875 118.386719 345.34375 118.601562 344.277344 C 118.8125 343.210938 119.078125 342.152344 119.394531 341.113281 C 119.710938 340.070312 120.074219 339.042969 120.492188 338.039062 C 120.910156 337.03125 121.375 336.046875 121.886719 335.089844 C 122.402344 334.128906 122.960938 333.195312 123.566406 332.289062 C 124.171875 331.382812 124.820312 330.507812 125.511719 329.667969 C 126.199219 328.824219 126.933594 328.019531 127.703125 327.25 C 128.472656 326.480469 129.277344 325.746094 130.121094 325.058594 C 130.960938 324.367188 131.835938 323.71875 132.742188 323.113281 C 133.648438 322.507812 134.582031 321.949219 135.542969 321.433594 C 136.5 320.921875 137.484375 320.457031 138.492188 320.039062 C 139.496094 319.621094 140.523438 319.257812 141.566406 318.941406 C 142.605469 318.625 143.664062 318.359375 144.730469 318.148438 C 145.796875 317.933594 146.875 317.773438 147.957031 317.667969 C 149.042969 317.5625 150.128906 317.507812 151.21875 317.507812 C 152.308594 317.507812 153.394531 317.5625 154.480469 317.667969 C 155.5625 317.773438 156.640625 317.933594 157.707031 318.148438 C 158.773438 318.359375 159.832031 318.625 160.871094 318.941406 C 161.914062 319.257812 162.941406 319.621094 163.945312 320.039062 C 164.953125 320.457031 165.9375 320.921875 166.894531 321.433594 C 167.855469 321.949219 168.789062 322.507812 169.695312 323.113281 C 170.601562 323.71875 171.476562 324.367188 172.316406 325.058594 C 173.160156 325.746094 173.964844 326.480469 174.734375 327.25 C 175.503906 328.019531 176.238281 328.824219 176.925781 329.667969 C 177.617188 330.507812 178.265625 331.382812 178.871094 332.289062 C 179.476562 333.195312 180.035156 334.128906 180.550781 335.089844 C 181.0625 336.046875 181.527344 337.03125 181.945312 338.039062 C 182.363281 339.042969 182.726562 340.070312 183.042969 341.113281 C 183.359375 342.152344 183.625 343.210938 183.835938 344.277344 C 184.050781 345.34375 184.210938 346.421875 184.316406 347.503906 C 184.421875 348.589844 184.476562 349.675781 184.476562 350.765625 L 254.015625 350.765625 L 254.015625 207.878906 C 254.015625 207.480469 253.976562 207.085938 253.898438 206.699219 C 253.820312 206.308594 253.707031 205.929688 253.554688 205.5625 C 253.402344 205.195312 253.21875 204.847656 252.996094 204.519531 C 252.777344 204.1875 252.523438 203.882812 252.246094 203.601562 C 251.964844 203.320312 251.660156 203.070312 251.328125 202.851562 C 250.996094 202.628906 250.648438 202.441406 250.28125 202.292969 C 249.914062 202.140625 249.539062 202.023438 249.148438 201.945312 C 248.757812 201.871094 248.367188 201.832031 247.96875 201.832031 L 90.75 201.832031 C 90.351562 201.832031 89.960938 201.871094 89.570312 201.945312 C 89.179688 202.023438 88.804688 202.140625 88.4375 202.292969 C 88.070312 202.441406 87.71875 202.628906 87.390625 202.851562 C 87.058594 203.070312 86.753906 203.320312 86.472656 203.601562 C 86.195312 203.882812 85.941406 204.1875 85.722656 204.519531 C 85.5 204.847656 85.316406 205.195312 85.164062 205.5625 C 85.011719 205.929688 84.898438 206.308594 84.820312 206.699219 C 84.742188 207.085938 84.703125 207.480469 84.703125 207.878906 Z M 84.703125 207.878906 " fill-opacity="1" fill-rule="nonzero"/><g clip-path="url(#b2182ea690)"><path fill="#091f2c" d="M 6.09375 241.921875 L 72.609375 241.921875 L 72.609375 254.015625 L 6.09375 254.015625 Z M 6.09375 241.921875 " fill-opacity="1" fill-rule="nonzero"/></g><path fill="#091f2c" d="M 18.1875 278.203125 L 72.609375 278.203125 L 72.609375 290.296875 L 18.1875 290.296875 Z M 18.1875 278.203125 " fill-opacity="1" fill-rule="nonzero"/><path fill="#091f2c" d="M 30.28125 314.484375 L 72.609375 314.484375 L 72.609375 326.578125 L 30.28125 326.578125 Z M 30.28125 314.484375 " fill-opacity="1" fill-rule="nonzero"/><path fill="#091f2c" d="M 108.890625 42.375 C 108.890625 40.988281 108.824219 39.605469 108.6875 38.226562 C 108.550781 36.847656 108.347656 35.476562 108.078125 34.117188 C 107.808594 32.757812 107.46875 31.414062 107.066406 30.085938 C 106.664062 28.761719 106.199219 27.457031 105.667969 26.175781 C 105.136719 24.894531 104.546875 23.644531 103.890625 22.421875 C 103.238281 21.199219 102.527344 20.011719 101.757812 18.859375 C 100.988281 17.707031 100.160156 16.59375 99.28125 15.523438 C 98.402344 14.449219 97.472656 13.425781 96.492188 12.445312 C 95.511719 11.464844 94.488281 10.535156 93.414062 9.65625 C 92.34375 8.777344 91.230469 7.949219 90.078125 7.179688 C 88.925781 6.410156 87.738281 5.699219 86.515625 5.046875 C 85.292969 4.390625 84.042969 3.800781 82.761719 3.269531 C 81.480469 2.738281 80.175781 2.273438 78.851562 1.871094 C 77.523438 1.46875 76.179688 1.128906 74.820312 0.859375 C 73.460938 0.589844 72.089844 0.386719 70.710938 0.25 C 69.332031 0.113281 67.949219 0.046875 66.5625 0.046875 C 65.175781 0.046875 63.792969 0.113281 62.414062 0.25 C 61.035156 0.386719 59.664062 0.589844 58.304688 0.859375 C 56.945312 1.128906 55.601562 1.46875 54.273438 1.871094 C 52.949219 2.273438 51.644531 2.738281 50.363281 3.269531 C 49.082031 3.800781 47.832031 4.390625 46.609375 5.046875 C 45.386719 5.699219 44.199219 6.410156 43.046875 7.179688 C 41.894531 7.949219 40.78125 8.777344 39.710938 9.65625 C 38.636719 10.535156 37.613281 11.464844 36.632812 12.445312 C 35.652344 13.425781 34.722656 14.449219 33.84375 15.523438 C 32.964844 16.59375 32.136719 17.707031 31.367188 18.859375 C 30.597656 20.011719 29.886719 21.199219 29.234375 22.421875 C 28.578125 23.644531 27.988281 24.894531 27.457031 26.175781 C 26.925781 27.457031 26.460938 28.761719 26.058594 30.085938 C 25.65625 31.414062 25.316406 32.757812 25.046875 34.117188 C 24.777344 35.476562 24.574219 36.847656 24.4375 38.226562 C 24.300781 39.605469 24.234375 40.988281 24.234375 42.375 C 24.234375 65.753906 66.5625 120.984375 66.5625 120.984375 C 66.5625 120.984375 108.890625 65.753906 108.890625 42.375 Z M 45.398438 42.375 C 45.398438 41.683594 45.433594 40.992188 45.5 40.300781 C 45.566406 39.609375 45.667969 38.925781 45.804688 38.246094 C 45.941406 37.566406 46.109375 36.894531 46.308594 36.230469 C 46.511719 35.566406 46.746094 34.917969 47.007812 34.277344 C 47.273438 33.636719 47.570312 33.007812 47.898438 32.398438 C 48.222656 31.785156 48.582031 31.191406 48.964844 30.617188 C 49.351562 30.039062 49.761719 29.484375 50.203125 28.949219 C 50.640625 28.414062 51.105469 27.898438 51.597656 27.410156 C 52.085938 26.917969 52.601562 26.453125 53.136719 26.015625 C 53.671875 25.574219 54.226562 25.164062 54.804688 24.777344 C 55.378906 24.394531 55.972656 24.035156 56.585938 23.710938 C 57.195312 23.382812 57.824219 23.085938 58.464844 22.820312 C 59.105469 22.558594 59.753906 22.324219 60.417969 22.121094 C 61.082031 21.921875 61.753906 21.753906 62.433594 21.617188 C 63.113281 21.480469 63.796875 21.378906 64.488281 21.3125 C 65.179688 21.246094 65.871094 21.210938 66.5625 21.210938 C 67.253906 21.210938 67.945312 21.246094 68.636719 21.3125 C 69.328125 21.378906 70.011719 21.480469 70.691406 21.617188 C 71.371094 21.753906 72.042969 21.921875 72.707031 22.121094 C 73.371094 22.324219 74.019531 22.558594 74.660156 22.820312 C 75.300781 23.085938 75.929688 23.382812 76.539062 23.710938 C 77.152344 24.035156 77.746094 24.394531 78.320312 24.777344 C 78.898438 25.164062 79.453125 25.574219 79.988281 26.015625 C 80.523438 26.453125 81.039062 26.917969 81.527344 27.410156 C 82.019531 27.898438 82.484375 28.414062 82.921875 28.949219 C 83.363281 29.484375 83.773438 30.039062 84.160156 30.617188 C 84.542969 31.191406 84.902344 31.785156 85.226562 32.398438 C 85.554688 33.007812 85.851562 33.636719 86.117188 34.277344 C 86.378906 34.917969 86.613281 35.566406 86.816406 36.230469 C 87.015625 36.894531 87.183594 37.566406 87.320312 38.246094 C 87.457031 38.925781 87.558594 39.609375 87.625 40.300781 C 87.691406 40.992188 87.726562 41.683594 87.726562 42.375 C 87.726562 43.066406 87.691406 43.757812 87.625 44.449219 C 87.558594 45.140625 87.457031 45.824219 87.320312 46.503906 C 87.183594 47.183594 87.015625 47.855469 86.816406 48.519531 C 86.613281 49.183594 86.378906 49.832031 86.117188 50.472656 C 85.851562 51.113281 85.554688 51.742188 85.226562 52.351562 C 84.902344 52.964844 84.542969 53.558594 84.160156 54.132812 C 83.773438 54.710938 83.363281 55.265625 82.921875 55.800781 C 82.484375 56.335938 82.019531 56.851562 81.527344 57.339844 C 81.039062 57.832031 80.523438 58.296875 79.988281 58.734375 C 79.453125 59.175781 78.898438 59.585938 78.320312 59.972656 C 77.746094 60.355469 77.152344 60.714844 76.539062 61.039062 C 75.929688 61.367188 75.300781 61.664062 74.660156 61.929688 C 74.019531 62.191406 73.371094 62.425781 72.707031 62.628906 C 72.042969 62.828125 71.371094 62.996094 70.691406 63.132812 C 70.011719 63.269531 69.328125 63.371094 68.636719 63.4375 C 67.945312 63.503906 67.253906 63.539062 66.5625 63.539062 C 65.871094 63.539062 65.179688 63.503906 64.488281 63.4375 C 63.796875 63.371094 63.113281 63.269531 62.433594 63.132812 C 61.753906 62.996094 61.082031 62.828125 60.417969 62.628906 C 59.753906 62.425781 59.105469 62.191406 58.464844 61.929688 C 57.824219 61.664062 57.195312 61.367188 56.585938 61.039062 C 55.972656 60.714844 55.378906 60.355469 54.804688 59.972656 C 54.226562 59.585938 53.671875 59.175781 53.136719 58.734375 C 52.601562 58.296875 52.085938 57.832031 51.597656 57.339844 C 51.105469 56.851562 50.640625 56.335938 50.203125 55.800781 C 49.761719 55.265625 49.351562 54.710938 48.964844 54.132812 C 48.582031 53.558594 48.222656 52.964844 47.898438 52.351562 C 47.570312 51.742188 47.273438 51.113281 47.007812 50.472656 C 46.746094 49.832031 46.511719 49.183594 46.308594 48.519531 C 46.109375 47.855469 45.941406 47.183594 45.804688 46.503906 C 45.667969 45.824219 45.566406 45.140625 45.5 44.449219 C 45.433594 43.757812 45.398438 43.066406 45.398438 42.375 Z M 45.398438 42.375 " fill-opacity="1" fill-rule="nonzero"/><path fill="#091f2c" d="M 350.765625 54.46875 C 350.765625 53.082031 350.699219 51.699219 350.5625 50.320312 C 350.425781 48.941406 350.222656 47.570312 349.953125 46.210938 C 349.683594 44.851562 349.34375 43.507812 348.941406 42.179688 C 348.539062 40.855469 348.074219 39.550781 347.542969 38.269531 C 347.011719 36.988281 346.421875 35.738281 345.765625 34.515625 C 345.113281 33.292969 344.402344 32.105469 343.632812 30.953125 C 342.863281 29.800781 342.035156 28.6875 341.15625 27.617188 C 340.277344 26.542969 339.347656 25.519531 338.367188 24.539062 C 337.386719 23.558594 336.363281 22.628906 335.289062 21.75 C 334.21875 20.871094 333.105469 20.042969 331.953125 19.273438 C 330.800781 18.503906 329.613281 17.792969 328.390625 17.140625 C 327.167969 16.484375 325.917969 15.894531 324.636719 15.363281 C 323.355469 14.832031 322.050781 14.367188 320.726562 13.964844 C 319.398438 13.5625 318.054688 13.222656 316.695312 12.953125 C 315.335938 12.683594 313.964844 12.480469 312.585938 12.34375 C 311.207031 12.207031 309.824219 12.140625 308.4375 12.140625 C 307.050781 12.140625 305.667969 12.207031 304.289062 12.34375 C 302.910156 12.480469 301.539062 12.683594 300.179688 12.953125 C 298.820312 13.222656 297.476562 13.5625 296.148438 13.964844 C 294.824219 14.367188 293.519531 14.832031 292.238281 15.363281 C 290.957031 15.894531 289.707031 16.484375 288.484375 17.140625 C 287.261719 17.792969 286.074219 18.503906 284.921875 19.273438 C 283.769531 20.042969 282.65625 20.871094 281.585938 21.75 C 280.511719 22.628906 279.488281 23.558594 278.507812 24.539062 C 277.527344 25.519531 276.597656 26.542969 275.71875 27.617188 C 274.839844 28.6875 274.011719 29.800781 273.242188 30.953125 C 272.472656 32.105469 271.761719 33.292969 271.105469 34.515625 C 270.453125 35.738281 269.863281 36.988281 269.332031 38.269531 C 268.800781 39.550781 268.335938 40.855469 267.933594 42.179688 C 267.53125 43.507812 267.191406 44.851562 266.921875 46.210938 C 266.652344 47.570312 266.449219 48.941406 266.3125 50.320312 C 266.175781 51.699219 266.109375 53.082031 266.109375 54.46875 C 266.109375 77.847656 308.4375 133.078125 308.4375 133.078125 C 308.4375 133.078125 350.765625 77.847656 350.765625 54.46875 Z M 287.273438 54.46875 C 287.273438 53.777344 287.308594 53.085938 287.375 52.394531 C 287.441406 51.703125 287.542969 51.019531 287.679688 50.339844 C 287.816406 49.660156 287.984375 48.988281 288.183594 48.324219 C 288.386719 47.660156 288.617188 47.011719 288.882812 46.371094 C 289.148438 45.730469 289.445312 45.101562 289.773438 44.492188 C 290.097656 43.878906 290.457031 43.285156 290.839844 42.710938 C 291.226562 42.132812 291.636719 41.578125 292.078125 41.042969 C 292.515625 40.507812 292.980469 39.992188 293.472656 39.503906 C 293.960938 39.011719 294.476562 38.546875 295.011719 38.109375 C 295.546875 37.667969 296.101562 37.257812 296.679688 36.871094 C 297.253906 36.488281 297.847656 36.128906 298.460938 35.804688 C 299.070312 35.476562 299.699219 35.179688 300.339844 34.914062 C 300.980469 34.652344 301.628906 34.417969 302.292969 34.214844 C 302.957031 34.015625 303.628906 33.847656 304.308594 33.710938 C 304.988281 33.574219 305.671875 33.472656 306.363281 33.40625 C 307.054688 33.339844 307.746094 33.304688 308.4375 33.304688 C 309.128906 33.304688 309.820312 33.339844 310.511719 33.40625 C 311.203125 33.472656 311.886719 33.574219 312.566406 33.710938 C 313.246094 33.847656 313.917969 34.015625 314.582031 34.214844 C 315.246094 34.417969 315.894531 34.652344 316.535156 34.914062 C 317.175781 35.179688 317.804688 35.476562 318.414062 35.804688 C 319.027344 36.128906 319.621094 36.488281 320.195312 36.871094 C 320.773438 37.257812 321.328125 37.667969 321.863281 38.109375 C 322.398438 38.546875 322.914062 39.011719 323.402344 39.503906 C 323.894531 39.992188 324.359375 40.507812 324.796875 41.042969 C 325.238281 41.578125 325.648438 42.132812 326.035156 42.710938 C 326.417969 43.285156 326.777344 43.878906 327.101562 44.492188 C 327.429688 45.101562 327.726562 45.730469 327.992188 46.371094 C 328.253906 47.011719 328.488281 47.660156 328.691406 48.324219 C 328.890625 48.988281 329.058594 49.660156 329.195312 50.339844 C 329.332031 51.019531 329.433594 51.703125 329.5 52.394531 C 329.566406 53.085938 329.601562 53.777344 329.601562 54.46875 C 329.601562 55.160156 329.566406 55.851562 329.5 56.542969 C 329.433594 57.234375 329.332031 57.917969 329.195312 58.597656 C 329.058594 59.277344 328.890625 59.949219 328.691406 60.613281 C 328.488281 61.277344 328.253906 61.925781 327.992188 62.566406 C 327.726562 63.207031 327.429688 63.835938 327.101562 64.445312 C 326.777344 65.058594 326.417969 65.652344 326.035156 66.226562 C 325.648438 66.804688 325.238281 67.359375 324.796875 67.894531 C 324.359375 68.429688 323.894531 68.945312 323.402344 69.433594 C 322.914062 69.925781 322.398438 70.390625 321.863281 70.828125 C 321.328125 71.269531 320.773438 71.679688 320.195312 72.066406 C 319.621094 72.449219 319.027344 72.808594 318.414062 73.132812 C 317.804688 73.460938 317.175781 73.757812 316.535156 74.023438 C 315.894531 74.285156 315.246094 74.519531 314.582031 74.722656 C 313.917969 74.921875 313.246094 75.089844 312.566406 75.226562 C 311.886719 75.363281 311.203125 75.464844 310.511719 75.53125 C 309.820312 75.597656 309.128906 75.632812 308.4375 75.632812 C 307.746094 75.632812 307.054688 75.597656 306.363281 75.53125 C 305.671875 75.464844 304.988281 75.363281 304.308594 75.226562 C 303.628906 75.089844 302.957031 74.921875 302.292969 74.722656 C 301.628906 74.519531 300.980469 74.285156 300.339844 74.023438 C 299.699219 73.757812 299.070312 73.460938 298.460938 73.132812 C 297.847656 72.808594 297.253906 72.449219 296.679688 72.066406 C 296.101562 71.679688 295.546875 71.269531 295.011719 70.828125 C 294.476562 70.390625 293.960938 69.925781 293.472656 69.433594 C 292.980469 68.945312 292.515625 68.429688 292.078125 67.894531 C 291.636719 67.359375 291.226562 66.804688 290.839844 66.226562 C 290.457031 65.652344 290.097656 65.058594 289.773438 64.445312 C 289.445312 63.835938 289.148438 63.207031 288.882812 62.566406 C 288.621094 61.925781 288.386719 61.277344 288.183594 60.613281 C 287.984375 59.949219 287.816406 59.277344 287.679688 58.597656 C 287.542969 57.917969 287.441406 57.234375 287.375 56.542969 C 287.308594 55.851562 287.273438 55.160156 287.273438 54.46875 Z M 287.273438 54.46875 " fill-opacity="1" fill-rule="nonzero"/><path fill="#091f2c" d="M 287.636719 144.503906 C 283.851562 144.933594 280.050781 145.15625 276.242188 145.171875 L 276.261719 157.265625 C 280.519531 157.25 284.761719 157.003906 288.992188 156.523438 Z M 287.636719 144.503906 " fill-opacity="1" fill-rule="nonzero"/><path fill="#091f2c" d="M 264.96875 144.480469 C 261.261719 144.003906 257.605469 143.257812 254.007812 142.242188 L 250.695312 153.871094 C 254.867188 155.054688 259.105469 155.921875 263.40625 156.476562 Z M 264.96875 144.480469 " fill-opacity="1" fill-rule="nonzero"/><path fill="#091f2c" d="M 243.601562 138.355469 C 240.238281 136.773438 237.019531 134.929688 233.953125 132.828125 L 227.171875 142.84375 C 230.765625 145.300781 234.53125 147.457031 238.472656 149.308594 Z M 243.601562 138.355469 " fill-opacity="1" fill-rule="nonzero"/><path fill="#091f2c" d="M 102.550781 119.273438 C 98.722656 120.386719 94.792969 121.632812 90.75 123.007812 L 94.675781 134.453125 C 98.523438 133.132812 102.273438 131.941406 105.929688 130.886719 Z M 102.550781 119.273438 " fill-opacity="1" fill-rule="nonzero"/><path fill="#091f2c" d="M 224.390625 125.847656 C 220.949219 123.257812 217.347656 120.914062 213.585938 118.820312 L 207.792969 129.4375 C 211.078125 131.269531 214.222656 133.320312 217.222656 135.585938 Z M 224.390625 125.847656 " fill-opacity="1" fill-rule="nonzero"/><path fill="#091f2c" d="M 128.867188 125.433594 L 126.660156 113.542969 C 122.789062 114.261719 118.746094 115.117188 114.53125 116.113281 L 117.332031 127.875 C 121.339844 126.921875 125.1875 126.117188 128.867188 125.433594 Z M 128.867188 125.433594 " fill-opacity="1" fill-rule="nonzero"/><path fill="#091f2c" d="M 152.214844 122.335938 L 151.25 110.277344 C 147.496094 110.578125 143.371094 111 138.910156 111.59375 L 140.503906 123.582031 C 144.738281 123.019531 148.65625 122.621094 152.214844 122.335938 Z M 152.214844 122.335938 " fill-opacity="1" fill-rule="nonzero"/><path fill="#091f2c" d="M 197.691406 125.058594 L 201.546875 113.597656 C 200.355469 113.199219 199.117188 112.816406 197.828125 112.445312 C 194.902344 111.597656 191.941406 110.914062 188.941406 110.394531 L 186.882812 122.3125 C 189.453125 122.761719 191.992188 123.34375 194.496094 124.070312 C 195.609375 124.386719 196.671875 124.714844 197.691406 125.058594 Z M 197.691406 125.058594 " fill-opacity="1" fill-rule="nonzero"/><path fill="#091f2c" d="M 175.742188 121.269531 L 176.03125 109.183594 C 172.390625 109.09375 168.515625 109.179688 163.46875 109.453125 L 164.125 121.527344 C 168.84375 121.273438 172.429688 121.195312 175.742188 121.269531 Z M 175.742188 121.269531 " fill-opacity="1" fill-rule="nonzero"/><path fill="#091f2c" d="M 175.40625 350.765625 C 175.40625 351.558594 175.367188 352.347656 175.289062 353.136719 C 175.210938 353.925781 175.097656 354.707031 174.941406 355.484375 C 174.785156 356.261719 174.59375 357.027344 174.363281 357.785156 C 174.136719 358.546875 173.867188 359.289062 173.566406 360.023438 C 173.261719 360.753906 172.921875 361.46875 172.550781 362.167969 C 172.175781 362.867188 171.769531 363.542969 171.328125 364.203125 C 170.890625 364.863281 170.417969 365.496094 169.914062 366.109375 C 169.414062 366.722656 168.882812 367.308594 168.320312 367.867188 C 167.761719 368.429688 167.175781 368.960938 166.5625 369.460938 C 165.949219 369.964844 165.316406 370.4375 164.65625 370.875 C 163.996094 371.316406 163.320312 371.722656 162.621094 372.097656 C 161.921875 372.46875 161.207031 372.808594 160.476562 373.113281 C 159.742188 373.414062 159 373.679688 158.238281 373.910156 C 157.480469 374.140625 156.714844 374.332031 155.9375 374.488281 C 155.160156 374.644531 154.378906 374.757812 153.589844 374.835938 C 152.800781 374.914062 152.011719 374.953125 151.21875 374.953125 C 150.425781 374.953125 149.636719 374.914062 148.847656 374.835938 C 148.058594 374.757812 147.277344 374.644531 146.5 374.488281 C 145.722656 374.332031 144.957031 374.140625 144.199219 373.910156 C 143.4375 373.679688 142.695312 373.414062 141.960938 373.113281 C 141.230469 372.808594 140.515625 372.46875 139.816406 372.097656 C 139.117188 371.722656 138.441406 371.316406 137.78125 370.875 C 137.121094 370.4375 136.488281 369.964844 135.875 369.460938 C 135.261719 368.960938 134.675781 368.429688 134.117188 367.867188 C 133.554688 367.308594 133.023438 366.722656 132.523438 366.109375 C 132.019531 365.496094 131.546875 364.863281 131.109375 364.203125 C 130.667969 363.542969 130.261719 362.867188 129.886719 362.167969 C 129.515625 361.46875 129.175781 360.753906 128.871094 360.023438 C 128.570312 359.289062 128.300781 358.546875 128.074219 357.785156 C 127.84375 357.027344 127.652344 356.261719 127.496094 355.484375 C 127.339844 354.707031 127.226562 353.925781 127.148438 353.136719 C 127.070312 352.347656 127.03125 351.558594 127.03125 350.765625 C 127.03125 349.972656 127.070312 349.183594 127.148438 348.394531 C 127.226562 347.605469 127.339844 346.824219 127.496094 346.046875 C 127.652344 345.269531 127.84375 344.503906 128.074219 343.746094 C 128.300781 342.984375 128.570312 342.242188 128.871094 341.507812 C 129.175781 340.777344 129.515625 340.0625 129.886719 339.363281 C 130.261719 338.664062 130.667969 337.988281 131.109375 337.328125 C 131.546875 336.667969 132.019531 336.035156 132.523438 335.421875 C 133.023438 334.808594 133.554688 334.222656 134.117188 333.664062 C 134.675781 333.101562 135.261719 332.570312 135.875 332.070312 C 136.488281 331.566406 137.121094 331.09375 137.78125 330.65625 C 138.441406 330.214844 139.117188 329.808594 139.816406 329.433594 C 140.515625 329.0625 141.230469 328.722656 141.960938 328.417969 C 142.695312 328.117188 143.4375 327.847656 144.199219 327.621094 C 144.957031 327.390625 145.722656 327.199219 146.5 327.042969 C 147.277344 326.886719 148.058594 326.773438 148.847656 326.695312 C 149.636719 326.617188 150.425781 326.578125 151.21875 326.578125 C 152.011719 326.578125 152.800781 326.617188 153.589844 326.695312 C 154.378906 326.773438 155.160156 326.886719 155.9375 327.042969 C 156.714844 327.199219 157.480469 327.390625 158.238281 327.621094 C 159 327.847656 159.742188 328.117188 160.476562 328.417969 C 161.207031 328.722656 161.921875 329.0625 162.621094 329.433594 C 163.320312 329.808594 163.996094 330.214844 164.65625 330.65625 C 165.316406 331.09375 165.949219 331.566406 166.5625 332.070312 C 167.175781 332.570312 167.761719 333.101562 168.320312 333.664062 C 168.882812 334.222656 169.414062 334.808594 169.914062 335.421875 C 170.417969 336.035156 170.890625 336.667969 171.328125 337.328125 C 171.769531 337.988281 172.175781 338.664062 172.550781 339.363281 C 172.921875 340.0625 173.261719 340.777344 173.566406 341.507812 C 173.867188 342.242188 174.136719 342.984375 174.363281 343.746094 C 174.59375 344.503906 174.785156 345.269531 174.941406 346.046875 C 175.097656 346.824219 175.210938 347.605469 175.289062 348.394531 C 175.367188 349.183594 175.40625 349.972656 175.40625 350.765625 Z M 175.40625 350.765625 " fill-opacity="1" fill-rule="nonzero"/><path fill="#091f2c" d="M 332.625 350.765625 C 332.625 351.558594 332.585938 352.347656 332.507812 353.136719 C 332.429688 353.925781 332.316406 354.707031 332.160156 355.484375 C 332.003906 356.261719 331.8125 357.027344 331.582031 357.785156 C 331.351562 358.546875 331.085938 359.289062 330.785156 360.023438 C 330.480469 360.753906 330.140625 361.46875 329.769531 362.167969 C 329.394531 362.867188 328.988281 363.542969 328.546875 364.203125 C 328.109375 364.863281 327.636719 365.496094 327.132812 366.109375 C 326.632812 366.722656 326.101562 367.308594 325.539062 367.867188 C 324.980469 368.429688 324.394531 368.960938 323.78125 369.460938 C 323.167969 369.964844 322.535156 370.4375 321.875 370.875 C 321.214844 371.316406 320.539062 371.722656 319.839844 372.097656 C 319.140625 372.46875 318.425781 372.808594 317.695312 373.113281 C 316.960938 373.414062 316.214844 373.679688 315.457031 373.910156 C 314.699219 374.140625 313.933594 374.332031 313.15625 374.488281 C 312.378906 374.644531 311.597656 374.757812 310.808594 374.835938 C 310.019531 374.914062 309.230469 374.953125 308.4375 374.953125 C 307.644531 374.953125 306.855469 374.914062 306.066406 374.835938 C 305.277344 374.757812 304.496094 374.644531 303.71875 374.488281 C 302.941406 374.332031 302.175781 374.140625 301.417969 373.910156 C 300.65625 373.679688 299.914062 373.414062 299.179688 373.113281 C 298.449219 372.808594 297.734375 372.46875 297.035156 372.097656 C 296.335938 371.722656 295.660156 371.316406 295 370.875 C 294.339844 370.4375 293.707031 369.964844 293.09375 369.460938 C 292.480469 368.960938 291.894531 368.429688 291.335938 367.867188 C 290.773438 367.308594 290.242188 366.722656 289.742188 366.109375 C 289.238281 365.496094 288.765625 364.863281 288.328125 364.203125 C 287.886719 363.542969 287.480469 362.867188 287.105469 362.167969 C 286.734375 361.46875 286.394531 360.753906 286.089844 360.023438 C 285.789062 359.289062 285.519531 358.546875 285.292969 357.785156 C 285.0625 357.027344 284.871094 356.261719 284.714844 355.484375 C 284.558594 354.707031 284.445312 353.925781 284.367188 353.136719 C 284.289062 352.347656 284.25 351.558594 284.25 350.765625 C 284.25 349.972656 284.289062 349.183594 284.367188 348.394531 C 284.445312 347.605469 284.558594 346.824219 284.714844 346.046875 C 284.871094 345.269531 285.0625 344.503906 285.292969 343.746094 C 285.519531 342.984375 285.789062 342.242188 286.089844 341.507812 C 286.394531 340.777344 286.734375 340.0625 287.105469 339.363281 C 287.480469 338.664062 287.886719 337.988281 288.328125 337.328125 C 288.765625 336.667969 289.238281 336.035156 289.742188 335.421875 C 290.242188 334.808594 290.773438 334.222656 291.335938 333.664062 C 291.894531 333.101562 292.480469 332.570312 293.09375 332.070312 C 293.707031 331.566406 294.339844 331.09375 295 330.65625 C 295.660156 330.214844 296.335938 329.808594 297.035156 329.433594 C 297.734375 329.0625 298.449219 328.722656 299.179688 328.417969 C 299.914062 328.117188 300.65625 327.847656 301.417969 327.621094 C 302.175781 327.390625 302.941406 327.199219 303.71875 327.042969 C 304.496094 326.886719 305.277344 326.773438 306.066406 326.695312 C 306.855469 326.617188 307.644531 326.578125 308.4375 326.578125 C 309.230469 326.578125 310.019531 326.617188 310.808594 326.695312 C 311.597656 326.773438 312.378906 326.886719 313.15625 327.042969 C 313.933594 327.199219 314.699219 327.390625 315.457031 327.621094 C 316.214844 327.847656 316.960938 328.117188 317.695312 328.417969 C 318.425781 328.722656 319.140625 329.0625 319.839844 329.433594 C 320.539062 329.808594 321.214844 330.214844 321.875 330.65625 C 322.535156 331.09375 323.167969 331.566406 323.78125 332.070312 C 324.394531 332.570312 324.980469 333.101562 325.539062 333.664062 C 326.101562 334.222656 326.632812 334.808594 327.132812 335.421875 C 327.636719 336.035156 328.109375 336.667969 328.546875 337.328125 C 328.988281 337.988281 329.394531 338.664062 329.769531 339.363281 C 330.140625 340.0625 330.480469 340.777344 330.785156 341.507812 C 331.085938 342.242188 331.351562 342.984375 331.582031 343.746094 C 331.8125 344.503906 332.003906 345.269531 332.160156 346.046875 C 332.316406 346.824219 332.429688 347.605469 332.507812 348.394531 C 332.585938 349.183594 332.625 349.972656 332.625 350.765625 Z M 332.625 350.765625 " fill-opacity="1" fill-rule="nonzero"/><path fill="#091f2c" d="M 320.289062 219.972656 L 260.0625 219.972656 L 260.0625 350.765625 L 275.179688 350.765625 C 275.179688 349.675781 275.234375 348.589844 275.339844 347.503906 C 275.445312 346.421875 275.605469 345.34375 275.820312 344.277344 C 276.03125 343.210938 276.296875 342.152344 276.613281 341.113281 C 276.929688 340.070312 277.292969 339.042969 277.710938 338.039062 C 278.128906 337.03125 278.59375 336.046875 279.105469 335.089844 C 279.621094 334.128906 280.179688 333.195312 280.785156 332.289062 C 281.390625 331.382812 282.039062 330.507812 282.730469 329.667969 C 283.417969 328.824219 284.152344 328.019531 284.921875 327.25 C 285.691406 326.480469 286.496094 325.746094 287.339844 325.058594 C 288.179688 324.367188 289.054688 323.71875 289.960938 323.113281 C 290.867188 322.507812 291.800781 321.949219 292.761719 321.433594 C 293.71875 320.921875 294.703125 320.457031 295.710938 320.039062 C 296.714844 319.621094 297.742188 319.257812 298.785156 318.941406 C 299.824219 318.625 300.882812 318.359375 301.949219 318.148438 C 303.015625 317.933594 304.09375 317.773438 305.175781 317.667969 C 306.261719 317.5625 307.347656 317.507812 308.4375 317.507812 C 309.527344 317.507812 310.613281 317.5625 311.699219 317.667969 C 312.78125 317.773438 313.859375 317.933594 314.925781 318.148438 C 315.992188 318.359375 317.050781 318.625 318.089844 318.941406 C 319.132812 319.257812 320.160156 319.621094 321.164062 320.039062 C 322.171875 320.457031 323.15625 320.921875 324.113281 321.433594 C 325.074219 321.949219 326.007812 322.507812 326.914062 323.113281 C 327.820312 323.71875 328.695312 324.367188 329.535156 325.058594 C 330.378906 325.746094 331.183594 326.480469 331.953125 327.25 C 332.722656 328.019531 333.457031 328.824219 334.144531 329.667969 C 334.835938 330.507812 335.484375 331.382812 336.089844 332.289062 C 336.695312 333.195312 337.253906 334.128906 337.769531 335.089844 C 338.28125 336.046875 338.746094 337.03125 339.164062 338.039062 C 339.582031 339.042969 339.945312 340.070312 340.261719 341.113281 C 340.578125 342.152344 340.84375 343.210938 341.054688 344.277344 C 341.269531 345.34375 341.429688 346.421875 341.535156 347.503906 C 341.640625 348.589844 341.695312 349.675781 341.695312 350.765625 L 356.8125 350.765625 C 357.605469 350.761719 358.390625 350.683594 359.167969 350.527344 C 359.945312 350.371094 360.703125 350.140625 361.433594 349.835938 C 362.167969 349.53125 362.863281 349.15625 363.523438 348.714844 C 364.183594 348.273438 364.792969 347.773438 365.355469 347.214844 C 365.914062 346.652344 366.414062 346.042969 366.855469 345.382812 C 367.296875 344.722656 367.671875 344.027344 367.976562 343.292969 C 368.28125 342.5625 368.511719 341.804688 368.667969 341.027344 C 368.824219 340.25 368.902344 339.464844 368.90625 338.671875 L 368.90625 284.25 C 368.890625 281.710938 368.164062 279.390625 366.730469 277.296875 L 330.207031 225.113281 C 329.644531 224.320312 328.996094 223.605469 328.261719 222.96875 C 327.527344 222.332031 326.730469 221.792969 325.867188 221.34375 C 325.007812 220.898438 324.105469 220.558594 323.160156 220.324219 C 322.21875 220.09375 321.261719 219.976562 320.289062 219.972656 Z M 284.25 268.347656 L 284.25 232.066406 L 320.53125 232.066406 L 344.71875 268.347656 Z M 284.25 268.347656 " fill-opacity="1" fill-rule="nonzero"/><path stroke-linecap="butt" transform="matrix(0.75, 0, 0, 0.75, 127.499996, 185.999988)" fill="none" stroke-linejoin="miter" d="M 0.00000516333 2.000016 L 160.000016 2.000016 " stroke="#000000" stroke-width="4" stroke-opacity="1" stroke-miterlimit="4"/></svg>