<svg xmlns="http://www.w3.org/2000/svg" xmlns:xlink="http://www.w3.org/1999/xlink" width="500" zoomAndPan="magnify" viewBox="0 0 375 374.999991" height="500" preserveAspectRatio="xMidYMid meet" version="1.0"><defs><clipPath id="b35b43481c"><path d="M 11.015625 75 L 141 75 L 141 159 L 11.015625 159 Z M 11.015625 75 " clip-rule="nonzero"/></clipPath></defs><path fill="#091f2c" d="M 168.527344 165.730469 C 170.671875 167.785156 173.46875 169.015625 176.429688 169.207031 L 236.71875 173.105469 C 236.996094 173.125 237.269531 173.132812 237.542969 173.132812 C 244.125 173.132812 249.664062 168.015625 250.09375 161.355469 C 250.542969 154.417969 245.28125 148.429688 238.34375 147.980469 L 182.640625 144.378906 L 178.886719 140.777344 L 165.289062 162.621094 Z M 168.527344 165.730469 " fill-opacity="1" fill-rule="nonzero"/><path fill="#091f2c" d="M 205.976562 324.285156 L 201.839844 327.410156 L 197.976562 324.285156 L 193.5625 327.410156 L 189.238281 324.285156 L 186.265625 327.410156 L 186.265625 285.46875 L 145.917969 285.46875 L 145.917969 372.75 L 250.894531 372.75 L 250.894531 285.46875 L 210.546875 285.46875 L 210.546875 327.410156 Z M 205.976562 324.285156 " fill-opacity="1" fill-rule="nonzero"/><path fill="#091f2c" d="M 323.472656 327.410156 L 318.902344 324.285156 L 314.765625 327.410156 L 310.902344 324.285156 L 306.488281 327.410156 L 302.164062 324.285156 L 299.191406 327.410156 L 299.191406 285.46875 L 258.84375 285.46875 L 258.84375 372.75 L 363.816406 372.75 L 363.816406 285.46875 L 323.472656 285.46875 Z M 323.472656 327.410156 " fill-opacity="1" fill-rule="nonzero"/><path fill="#091f2c" d="M 250.894531 189.613281 L 210.546875 189.613281 L 210.546875 231.554688 L 205.976562 228.429688 L 201.839844 231.554688 L 197.976562 228.429688 L 193.5625 231.554688 L 189.238281 228.429688 L 186.265625 231.554688 L 186.265625 189.613281 L 145.917969 189.613281 L 145.917969 276.894531 L 250.894531 276.894531 Z M 250.894531 189.613281 " fill-opacity="1" fill-rule="nonzero"/><path fill="#091f2c" d="M 323.472656 231.554688 L 318.902344 228.429688 L 314.765625 231.554688 L 310.902344 228.429688 L 306.488281 231.554688 L 302.164062 228.429688 L 299.191406 231.554688 L 299.191406 189.613281 L 258.84375 189.613281 L 258.84375 276.894531 L 363.816406 276.894531 L 363.816406 189.613281 L 323.472656 189.613281 Z M 323.472656 231.554688 " fill-opacity="1" fill-rule="nonzero"/><path fill="#091f2c" d="M 106.675781 3.859375 C 87.511719 -0.0234375 68.828125 12.367188 64.949219 31.535156 C 61.070312 50.703125 73.460938 69.382812 92.625 73.265625 C 111.792969 77.144531 130.476562 64.753906 134.355469 45.585938 C 138.234375 26.421875 125.84375 7.738281 106.675781 3.859375 Z M 106.675781 3.859375 " fill-opacity="1" fill-rule="nonzero"/><path fill="#091f2c" d="M 109.957031 355.480469 L 109.957031 202.160156 L 117.742188 163.703125 L 99.980469 157.039062 C 99.53125 156.871094 99.105469 156.667969 98.691406 156.445312 L 31.3125 161.640625 L 25.363281 191.015625 C 25.246094 191.605469 25.1875 192.191406 25.152344 192.777344 C 24.957031 193.890625 24.835938 195.027344 24.835938 196.195312 L 24.835938 355.480469 C 24.835938 366.226562 33.550781 374.933594 44.292969 374.933594 C 55.035156 374.933594 63.75 366.226562 63.75 355.480469 L 63.75 211.195312 L 71.042969 212.671875 L 71.042969 355.480469 C 71.042969 366.226562 79.757812 374.933594 90.5 374.933594 C 101.242188 374.933594 109.957031 366.226562 109.957031 355.480469 Z M 109.957031 355.480469 " fill-opacity="1" fill-rule="nonzero"/><path fill="#091f2c" d="M 150.964844 172.304688 C 152.867188 173.019531 155.007812 172.289062 156.082031 170.566406 L 196.679688 105.34375 C 198.101562 103.058594 197.078125 100.046875 194.558594 99.101562 L 143.8125 80.0625 C 140.6875 78.886719 137.167969 80.082031 135.40625 82.917969 L 110.441406 123.027344 L 127.015625 121.746094 C 127.441406 121.714844 127.863281 121.699219 128.277344 121.699219 C 136.6875 121.699219 143.777344 128.273438 144.425781 136.664062 C 144.757812 140.980469 143.390625 145.167969 140.574219 148.453125 C 137.753906 151.742188 133.828125 153.734375 129.507812 154.070312 L 106.992188 155.804688 Z M 140.015625 90.3125 C 140.964844 88.664062 143.039062 88.085938 144.648438 89.015625 C 146.261719 89.945312 146.796875 92.03125 145.847656 93.679688 C 144.898438 95.324219 142.824219 95.902344 141.210938 94.972656 C 139.601562 94.042969 139.066406 91.957031 140.015625 90.3125 Z M 140.015625 90.3125 " fill-opacity="1" fill-rule="nonzero"/><g clip-path="url(#b35b43481c)"><path fill="#091f2c" d="M 14.761719 153.925781 C 17.164062 156.835938 20.730469 158.5 24.46875 158.5 C 24.792969 158.5 25.113281 158.488281 25.4375 158.460938 L 129.230469 150.460938 C 136.164062 149.925781 141.351562 143.871094 140.816406 136.941406 C 140.28125 130.007812 134.265625 124.824219 127.296875 125.355469 L 41.972656 131.933594 C 45.054688 123.207031 47.972656 116.910156 50.523438 112.359375 L 54.273438 113.066406 C 52.238281 116.550781 49.878906 121.339844 47.328125 127.890625 L 105.960938 123.371094 L 126.28125 90.726562 C 126.050781 90.582031 125.8125 90.453125 125.574219 90.328125 C 124.160156 89.253906 122.5 88.460938 120.644531 88.085938 L 61.054688 76.019531 C 59.792969 75.765625 58.535156 75.71875 57.320312 75.851562 C 49.59375 76.1875 37.105469 81.570312 24.832031 107.492188 C 20.566406 116.496094 16.332031 127.972656 12.328125 142.582031 C 11.246094 146.535156 12.15625 150.765625 14.761719 153.925781 Z M 14.761719 153.925781 " fill-opacity="1" fill-rule="nonzero"/></g></svg>