<svg xmlns="http://www.w3.org/2000/svg" xmlns:xlink="http://www.w3.org/1999/xlink" width="500" zoomAndPan="magnify" viewBox="0 0 375 374.999991" height="500" preserveAspectRatio="xMidYMid meet" version="1.0"><defs><clipPath id="eb090df6ce"><path d="M 49 5.859375 L 185 5.859375 L 185 77 L 49 77 Z M 49 5.859375 " clip-rule="nonzero"/></clipPath><clipPath id="f84770899c"><path d="M 140 328 L 182 328 L 182 368.859375 L 140 368.859375 Z M 140 328 " clip-rule="nonzero"/></clipPath><clipPath id="457b5a14d9"><path d="M 304 328 L 346 328 L 346 368.859375 L 304 368.859375 Z M 304 328 " clip-rule="nonzero"/></clipPath></defs><g clip-path="url(#eb090df6ce)"><path fill="#091f2c" d="M 58.59375 76.171875 L 175.78125 76.171875 C 180.761719 76.171875 184.570312 72.070312 184.570312 67.089844 L 184.570312 53.90625 C 184.570312 43.652344 176.660156 35.15625 166.992188 35.15625 L 146.484375 35.15625 C 146.484375 34.863281 146.484375 34.570312 146.484375 34.277344 C 146.484375 19.335938 132.714844 5.859375 117.480469 5.859375 C 101.367188 5.859375 87.890625 19.042969 87.890625 34.277344 C 87.890625 34.570312 87.890625 34.863281 87.890625 35.15625 L 67.382812 35.15625 C 57.714844 35.15625 49.804688 43.652344 49.804688 53.90625 L 49.804688 67.089844 C 49.804688 72.070312 53.613281 76.171875 58.59375 76.171875 Z M 117.1875 41.015625 C 120.410156 41.015625 123.046875 43.652344 123.046875 46.875 C 123.046875 50.097656 120.410156 52.734375 117.1875 52.734375 C 113.964844 52.734375 111.328125 50.097656 111.328125 46.875 C 111.328125 43.652344 113.964844 41.015625 117.1875 41.015625 Z M 117.1875 41.015625 " fill-opacity="1" fill-rule="nonzero"/></g><path fill="#091f2c" d="M 31.933594 113.085938 C 29.296875 114.84375 28.710938 118.652344 30.46875 121.289062 C 30.46875 121.289062 34.570312 126.855469 34.570312 126.855469 C 36.328125 129.199219 39.257812 130.078125 41.894531 128.90625 L 55.371094 122.460938 C 58.300781 120.996094 59.472656 117.480469 58.007812 114.550781 C 56.542969 111.621094 53.027344 110.449219 50.097656 111.914062 L 41.015625 116.308594 L 39.84375 114.550781 C 38.085938 111.914062 34.570312 111.328125 31.933594 113.085938 Z M 31.933594 113.085938 " fill-opacity="1" fill-rule="nonzero"/><path fill="#091f2c" d="M 199.21875 111.328125 L 76.171875 111.328125 C 72.949219 111.328125 70.3125 113.964844 70.3125 117.1875 C 70.3125 120.410156 72.949219 123.046875 76.171875 123.046875 L 199.21875 123.046875 C 202.441406 123.046875 205.078125 120.410156 205.078125 117.1875 C 205.078125 113.964844 202.441406 111.328125 199.21875 111.328125 Z M 199.21875 111.328125 " fill-opacity="1" fill-rule="nonzero"/><path fill="#091f2c" d="M 58.007812 143.847656 C 56.542969 140.917969 53.027344 139.746094 50.097656 141.210938 L 41.015625 145.605469 L 39.84375 143.847656 C 38.085938 141.210938 34.277344 140.625 31.640625 142.382812 C 29.003906 144.140625 28.417969 147.949219 30.175781 150.585938 C 30.175781 150.585938 34.277344 156.152344 34.277344 156.152344 C 35.742188 158.496094 38.964844 159.375 41.601562 158.203125 L 55.078125 151.757812 C 58.300781 150.292969 59.472656 146.777344 58.007812 143.847656 Z M 58.007812 143.847656 " fill-opacity="1" fill-rule="nonzero"/><path fill="#091f2c" d="M 199.21875 140.625 L 76.171875 140.625 C 72.949219 140.625 70.3125 143.261719 70.3125 146.484375 C 70.3125 149.707031 72.949219 152.34375 76.171875 152.34375 L 199.21875 152.34375 C 202.441406 152.34375 205.078125 149.707031 205.078125 146.484375 C 205.078125 143.261719 202.441406 140.625 199.21875 140.625 Z M 199.21875 140.625 " fill-opacity="1" fill-rule="nonzero"/><path fill="#091f2c" d="M 58.007812 173.144531 C 56.542969 170.214844 53.027344 169.042969 50.097656 170.507812 L 41.015625 174.902344 L 39.84375 173.144531 C 38.085938 170.507812 34.277344 169.921875 31.640625 171.679688 C 29.003906 173.4375 28.417969 177.246094 30.175781 179.882812 C 30.175781 179.882812 34.277344 185.449219 34.277344 185.449219 C 35.742188 187.792969 38.964844 188.671875 41.601562 187.5 L 55.078125 181.054688 C 58.300781 179.589844 59.472656 176.074219 58.007812 173.144531 Z M 58.007812 173.144531 " fill-opacity="1" fill-rule="nonzero"/><path fill="#091f2c" d="M 199.21875 169.921875 L 76.171875 169.921875 C 72.949219 169.921875 70.3125 172.558594 70.3125 175.78125 C 70.3125 179.003906 72.949219 181.640625 76.171875 181.640625 L 199.21875 181.640625 C 202.441406 181.640625 205.078125 179.003906 205.078125 175.78125 C 205.078125 172.558594 202.441406 169.921875 199.21875 169.921875 Z M 199.21875 169.921875 " fill-opacity="1" fill-rule="nonzero"/><path fill="#091f2c" d="M 58.007812 202.441406 C 56.542969 199.511719 53.027344 198.339844 50.097656 199.804688 L 41.015625 204.199219 L 39.84375 202.441406 C 38.085938 199.804688 34.277344 199.21875 31.640625 200.976562 C 29.003906 202.734375 28.417969 206.542969 30.175781 209.179688 C 30.175781 209.179688 34.277344 214.746094 34.277344 214.746094 C 35.742188 217.089844 38.964844 217.96875 41.601562 216.796875 L 55.078125 210.351562 C 58.300781 208.886719 59.472656 205.371094 58.007812 202.441406 Z M 58.007812 202.441406 " fill-opacity="1" fill-rule="nonzero"/><path fill="#091f2c" d="M 199.21875 199.21875 L 76.171875 199.21875 C 72.949219 199.21875 70.3125 201.855469 70.3125 205.078125 C 70.3125 208.300781 72.949219 210.9375 76.171875 210.9375 L 199.21875 210.9375 C 202.441406 210.9375 205.078125 208.300781 205.078125 205.078125 C 205.078125 201.855469 202.441406 199.21875 199.21875 199.21875 Z M 199.21875 199.21875 " fill-opacity="1" fill-rule="nonzero"/><path fill="#091f2c" d="M 58.007812 231.738281 C 56.542969 228.808594 53.027344 227.636719 50.097656 229.101562 L 41.015625 233.496094 L 39.84375 231.738281 C 38.085938 229.101562 34.277344 228.515625 31.640625 230.273438 C 29.003906 232.03125 28.417969 235.839844 30.175781 238.476562 C 30.175781 238.476562 34.277344 244.042969 34.277344 244.042969 C 35.742188 246.386719 38.964844 247.265625 41.601562 246.09375 L 55.078125 239.648438 C 58.300781 238.183594 59.472656 234.667969 58.007812 231.738281 Z M 58.007812 231.738281 " fill-opacity="1" fill-rule="nonzero"/><path fill="#091f2c" d="M 58.007812 261.035156 C 56.542969 258.105469 53.027344 256.933594 50.097656 258.398438 L 41.015625 262.792969 L 39.84375 261.035156 C 38.085938 258.398438 34.277344 257.8125 31.640625 259.570312 C 29.003906 261.328125 28.417969 265.136719 30.175781 267.773438 C 30.175781 267.773438 34.277344 273.339844 34.277344 273.339844 C 35.742188 275.683594 38.964844 276.5625 41.601562 275.390625 L 55.078125 268.945312 C 58.300781 267.480469 59.472656 263.964844 58.007812 261.035156 Z M 58.007812 261.035156 " fill-opacity="1" fill-rule="nonzero"/><path fill="#091f2c" d="M 50.097656 287.695312 L 41.015625 292.089844 L 39.84375 290.332031 C 38.085938 287.695312 34.277344 287.109375 31.640625 288.867188 C 29.003906 290.625 28.417969 294.433594 30.175781 297.070312 C 30.175781 297.070312 34.277344 302.636719 34.277344 302.636719 C 36.035156 304.980469 38.964844 305.859375 41.601562 304.6875 L 55.078125 298.242188 C 58.007812 296.777344 59.179688 293.261719 57.714844 290.332031 C 56.25 287.402344 53.027344 286.230469 50.097656 287.695312 Z M 50.097656 287.695312 " fill-opacity="1" fill-rule="nonzero"/><path fill="#091f2c" d="M 70.3125 234.375 C 70.3125 237.597656 72.949219 240.234375 76.171875 240.234375 L 93.75 240.234375 C 93.75 236.132812 94.921875 232.03125 96.679688 228.515625 L 76.171875 228.515625 C 72.949219 228.515625 70.3125 231.152344 70.3125 234.375 Z M 70.3125 234.375 " fill-opacity="1" fill-rule="nonzero"/><path fill="#091f2c" d="M 196.289062 61.523438 L 216.796875 61.523438 C 220.019531 61.523438 222.65625 64.160156 222.65625 67.382812 L 222.65625 213.867188 L 234.375 213.867188 L 234.375 67.382812 C 234.375 57.714844 226.464844 49.804688 216.796875 49.804688 L 195.996094 49.804688 C 196.289062 51.269531 196.289062 52.441406 196.289062 53.90625 Z M 196.289062 61.523438 " fill-opacity="1" fill-rule="nonzero"/><path fill="#091f2c" d="M 17.578125 339.84375 C 14.355469 339.84375 11.71875 337.207031 11.71875 333.984375 L 11.71875 67.382812 C 11.71875 64.160156 14.355469 61.523438 17.578125 61.523438 L 38.085938 61.523438 L 38.085938 53.90625 C 38.085938 52.441406 38.085938 50.976562 38.378906 49.804688 L 17.578125 49.804688 C 7.910156 49.804688 0 57.714844 0 67.382812 L 0 333.984375 C 0 343.652344 7.910156 351.5625 17.578125 351.5625 L 96.679688 351.5625 C 94.921875 348.046875 93.75 343.945312 93.75 339.84375 Z M 17.578125 339.84375 " fill-opacity="1" fill-rule="nonzero"/><g clip-path="url(#f84770899c)"><path fill="#091f2c" d="M 161.132812 328.125 C 149.707031 328.125 140.625 337.207031 140.625 348.632812 C 140.625 360.058594 149.707031 369.140625 161.132812 369.140625 C 172.558594 369.140625 181.640625 360.058594 181.640625 348.632812 C 181.640625 337.207031 172.558594 328.125 161.132812 328.125 Z M 161.132812 357.421875 C 156.152344 357.421875 152.34375 353.613281 152.34375 348.632812 C 152.34375 343.652344 156.152344 339.84375 161.132812 339.84375 C 166.113281 339.84375 169.921875 343.652344 169.921875 348.632812 C 169.921875 353.613281 166.113281 357.421875 161.132812 357.421875 Z M 161.132812 357.421875 " fill-opacity="1" fill-rule="nonzero"/></g><g clip-path="url(#457b5a14d9)"><path fill="#091f2c" d="M 325.195312 328.125 C 313.769531 328.125 304.6875 337.207031 304.6875 348.632812 C 304.6875 360.058594 313.769531 369.140625 325.195312 369.140625 C 336.621094 369.140625 345.703125 360.058594 345.703125 348.632812 C 345.703125 337.207031 336.621094 328.125 325.195312 328.125 Z M 325.195312 357.421875 C 320.214844 357.421875 316.40625 353.613281 316.40625 348.632812 C 316.40625 343.652344 320.214844 339.84375 325.195312 339.84375 C 330.175781 339.84375 333.984375 343.652344 333.984375 348.632812 C 333.984375 353.613281 330.175781 357.421875 325.195312 357.421875 Z M 325.195312 357.421875 " fill-opacity="1" fill-rule="nonzero"/></g><path fill="#091f2c" d="M 328.125 316.40625 C 331.347656 316.40625 333.984375 313.769531 333.984375 310.546875 C 333.984375 307.324219 331.347656 304.6875 328.125 304.6875 L 322.265625 304.6875 C 319.042969 304.6875 316.40625 307.324219 316.40625 310.546875 C 316.40625 313.769531 319.042969 316.40625 322.265625 316.40625 Z M 328.125 316.40625 " fill-opacity="1" fill-rule="nonzero"/><path fill="#091f2c" d="M 93.75 257.8125 L 76.171875 257.8125 C 72.949219 257.8125 70.3125 260.449219 70.3125 263.671875 C 70.3125 266.894531 72.949219 269.53125 76.171875 269.53125 L 93.75 269.53125 Z M 93.75 257.8125 " fill-opacity="1" fill-rule="nonzero"/><path fill="#091f2c" d="M 70.3125 292.96875 C 70.3125 296.191406 72.949219 298.828125 76.171875 298.828125 L 93.75 298.828125 L 93.75 287.109375 L 76.171875 287.109375 C 72.949219 287.109375 70.3125 289.746094 70.3125 292.96875 Z M 70.3125 292.96875 " fill-opacity="1" fill-rule="nonzero"/><path fill="#091f2c" d="M 372.65625 296.484375 C 372.65625 296.484375 351.855469 268.359375 351.269531 267.480469 C 347.167969 261.914062 342.480469 254.882812 333.984375 254.882812 L 290.625 254.882812 L 290.625 241.992188 C 290.625 232.617188 283.300781 225.585938 273.925781 225.585938 L 120.996094 225.585938 C 112.5 225.585938 105.46875 232.324219 105.46875 240.234375 L 105.46875 339.84375 C 105.46875 348.046875 112.5 354.492188 120.996094 354.492188 L 129.492188 354.492188 C 129.199219 352.734375 128.90625 350.683594 128.90625 348.632812 C 128.90625 330.761719 143.261719 316.40625 161.132812 316.40625 C 179.003906 316.40625 193.359375 330.761719 193.359375 348.632812 C 193.359375 350.683594 193.066406 352.734375 192.773438 354.492188 L 293.554688 354.492188 C 293.261719 352.734375 292.96875 350.683594 292.96875 348.632812 C 292.96875 346.582031 293.261719 344.53125 293.554688 342.773438 L 290.625 342.773438 L 290.625 313.476562 L 263.671875 313.476562 C 260.449219 313.476562 257.8125 310.839844 257.8125 307.617188 C 257.8125 304.394531 260.449219 301.757812 263.671875 301.757812 L 290.625 301.757812 L 290.625 290.039062 L 234.375 290.039062 C 231.152344 290.039062 228.515625 287.402344 228.515625 284.179688 C 228.515625 280.957031 231.152344 278.320312 234.375 278.320312 L 290.625 278.320312 L 290.625 266.601562 L 334.277344 266.601562 C 336.621094 266.601562 339.550781 270.703125 341.894531 274.21875 C 342.480469 275.097656 362.988281 302.929688 362.988281 302.929688 C 363.574219 303.515625 363.28125 303.808594 363.28125 304.101562 L 363.28125 338.378906 C 363.28125 340.722656 360.644531 342.773438 357.714844 342.773438 L 356.835938 342.773438 C 357.128906 344.53125 357.421875 346.582031 357.421875 348.632812 C 357.421875 350.683594 357.128906 352.734375 356.835938 354.492188 L 357.714844 354.492188 C 367.089844 354.492188 375 347.167969 375 338.378906 L 375 304.101562 C 375 301.464844 374.414062 298.828125 372.65625 296.484375 Z M 372.65625 296.484375 " fill-opacity="1" fill-rule="nonzero"/></svg>