<svg xmlns="http://www.w3.org/2000/svg" xmlns:xlink="http://www.w3.org/1999/xlink" width="500" zoomAndPan="magnify" viewBox="0 0 375 374.999991" height="500" preserveAspectRatio="xMidYMid meet" version="1.0"><defs><clipPath id="b36d447cc4"><path d="M 52.5 0 L 322.5 0 L 322.5 375 L 52.5 375 Z M 52.5 0 " clip-rule="nonzero"/></clipPath></defs><g clip-path="url(#b36d447cc4)"><path fill="#091f2c" d="M 136.453125 124.816406 C 127.351562 113.296875 113.261719 105.875 97.535156 105.875 C 80.148438 105.875 64.777344 114.953125 55.914062 128.574219 C 55.46875 129.246094 54.683594 129.523438 53.917969 129.277344 C 53.164062 129.035156 52.691406 128.347656 52.722656 127.546875 C 56.292969 59.644531 110.652344 4.617188 178.28125 0 C 146.289062 33.902344 137.777344 91.027344 136.453125 124.816406 Z M 196.742188 0.00390625 C 264.375 4.632812 318.722656 59.652344 322.273438 127.546875 C 322.324219 128.347656 321.847656 129.035156 321.082031 129.277344 C 320.328125 129.539062 319.527344 129.246094 319.101562 128.589844 C 310.238281 114.953125 294.863281 105.875 277.480469 105.875 C 261.75 105.875 247.679688 113.289062 238.582031 124.792969 C 237.066406 82.695312 225.667969 30.734375 196.742188 0.00390625 Z M 226.039062 124.34375 C 216.929688 113.097656 203.023438 105.875 187.5 105.875 C 172.003906 105.875 158.109375 113.082031 148.992188 124.308594 C 150.265625 92.511719 157.773438 39.613281 187.511719 8.449219 C 214.460938 36.777344 224.554688 85.085938 226.039062 124.34375 Z M 209.882812 168.890625 C 219.804688 171.25 229.265625 175.171875 237.964844 180.527344 L 256.210938 172.414062 L 277.707031 193.910156 L 269.625 212.160156 C 274.984375 220.855469 278.902344 230.316406 281.261719 240.269531 L 299.878906 247.433594 L 299.878906 277.839844 L 281.261719 285.007812 C 278.902344 294.925781 274.953125 304.390625 269.625 313.085938 L 277.707031 331.335938 L 256.210938 352.832031 L 237.964844 344.746094 C 229.296875 350.105469 219.804688 354.023438 209.882812 356.382812 L 202.71875 375 L 172.3125 375 L 165.148438 356.382812 C 155.195312 354.023438 145.734375 350.074219 137.035156 344.746094 L 118.789062 352.832031 L 97.292969 331.335938 L 105.40625 313.085938 C 100.046875 304.417969 96.128906 294.925781 93.738281 285.007812 L 75.121094 277.839844 L 75.121094 247.433594 L 93.738281 240.269531 C 96.128906 230.316406 100.046875 220.855469 105.40625 212.160156 L 97.292969 193.910156 L 118.789062 172.414062 L 137.035156 180.527344 C 145.734375 175.171875 155.195312 171.25 165.117188 168.890625 L 172.3125 150.246094 L 202.71875 150.246094 Z M 187.492188 188.617188 C 146.605469 188.617188 113.496094 221.730469 113.496094 262.617188 C 113.496094 303.503906 146.605469 336.65625 187.492188 336.65625 C 228.382812 336.65625 261.535156 303.503906 261.535156 262.617188 C 261.535156 221.730469 228.382812 188.617188 187.492188 188.617188 Z M 195.683594 213.375 L 238.878906 288.171875 C 240.589844 291.144531 240.589844 294.640625 238.878906 297.617188 C 237.15625 300.582031 234.128906 302.335938 230.695312 302.335938 L 144.328125 302.335938 C 140.902344 302.335938 137.863281 300.582031 136.152344 297.617188 C 134.441406 294.640625 134.441406 291.144531 136.152344 288.171875 L 179.335938 213.375 C 181.050781 210.398438 184.085938 208.652344 187.511719 208.652344 C 190.945312 208.652344 193.972656 210.398438 195.683594 213.375 Z M 187.515625 271.195312 C 190.613281 271.195312 193.152344 268.75 193.265625 265.652344 L 194.234375 238.730469 C 194.296875 237.113281 193.757812 235.699219 192.625 234.53125 C 191.507812 233.363281 190.109375 232.773438 188.484375 232.773438 L 186.546875 232.773438 C 184.925781 232.773438 183.539062 233.359375 182.40625 234.527344 L 182.402344 234.535156 C 181.285156 235.695312 180.746094 237.105469 180.796875 238.71875 C 180.796875 238.722656 180.796875 238.726562 180.796875 238.730469 L 181.773438 265.65625 C 181.886719 268.753906 184.417969 271.195312 187.515625 271.195312 Z M 187.515625 286.203125 C 191.277344 286.203125 194.34375 283.140625 194.34375 279.378906 C 194.34375 275.617188 191.277344 272.550781 187.515625 272.550781 C 183.753906 272.550781 180.6875 275.617188 180.6875 279.378906 C 180.6875 283.140625 183.753906 286.203125 187.515625 286.203125 Z M 187.515625 286.203125 " fill-opacity="1" fill-rule="evenodd"/></g></svg>