<svg xmlns="http://www.w3.org/2000/svg" xmlns:xlink="http://www.w3.org/1999/xlink" width="500" zoomAndPan="magnify" viewBox="0 0 375 374.999991" height="500" preserveAspectRatio="xMidYMid meet" version="1.0"><defs><clipPath id="046c56e630"><path d="M 2.386719 1 L 375 1 L 375 375 L 2.386719 375 Z M 2.386719 1 " clip-rule="nonzero"/></clipPath></defs><g clip-path="url(#046c56e630)"><path fill="#000000" d="M 354.46875 60.367188 C 315.527344 60.277344 276.589844 60.226562 237.648438 60.214844 L 217.515625 60.214844 C 217.035156 60.179688 216.554688 60.195312 216.078125 60.265625 C 215.601562 60.332031 215.136719 60.449219 214.683594 60.617188 C 214.234375 60.785156 213.804688 61 213.398438 61.257812 C 212.992188 61.519531 212.617188 61.820312 212.277344 62.160156 C 211.9375 62.5 211.636719 62.875 211.375 63.28125 C 211.117188 63.683594 210.902344 64.113281 210.734375 64.566406 C 210.566406 65.015625 210.449219 65.480469 210.378906 65.957031 C 210.3125 66.433594 210.296875 66.914062 210.332031 67.394531 L 210.570312 109.921875 C 191.898438 105.230469 178.28125 109.195312 169 122.03125 C 167.972656 123.441406 167.058594 124.921875 166.253906 126.472656 C 165.453125 128.023438 164.769531 129.625 164.210938 131.277344 C 163.648438 132.929688 163.21875 134.617188 162.914062 136.335938 C 162.605469 138.054688 162.433594 139.785156 162.390625 141.53125 C 162.347656 143.277344 162.4375 145.015625 162.65625 146.746094 C 162.875 148.476562 163.226562 150.183594 163.703125 151.859375 C 164.179688 153.539062 164.78125 155.171875 165.507812 156.761719 C 166.234375 158.347656 167.074219 159.871094 168.03125 161.332031 C 176.847656 174.988281 189.554688 179.132812 210.359375 175.035156 L 210.359375 211.609375 L 195.742188 211.609375 C 185.253906 211.609375 174.75 211.609375 164.234375 211.609375 C 161.375 211.585938 157.6875 211.609375 155.941406 215.484375 C 154.300781 219.128906 156.390625 221.691406 158.238281 223.957031 C 159.308594 225.207031 160.222656 226.566406 160.972656 228.035156 C 161.71875 229.503906 162.289062 231.035156 162.675781 232.636719 C 163.0625 234.238281 163.253906 235.863281 163.257812 237.511719 C 163.257812 239.160156 163.066406 240.78125 162.683594 242.386719 C 162.457031 243.472656 162.148438 244.539062 161.761719 245.578125 C 161.371094 246.617188 160.902344 247.625 160.359375 248.589844 C 159.8125 249.558594 159.195312 250.480469 158.507812 251.355469 C 157.820312 252.226562 157.070312 253.042969 156.257812 253.800781 C 155.445312 254.558594 154.578125 255.25 153.65625 255.875 C 152.738281 256.496094 151.773438 257.046875 150.769531 257.523438 C 149.765625 257.996094 148.726562 258.394531 147.660156 258.707031 C 146.59375 259.023438 145.511719 259.257812 144.410156 259.40625 C 143.339844 259.542969 142.265625 259.605469 141.1875 259.585938 C 140.109375 259.566406 139.039062 259.472656 137.976562 259.296875 C 136.914062 259.121094 135.867188 258.871094 134.839844 258.542969 C 133.8125 258.21875 132.816406 257.816406 131.847656 257.34375 C 130.878906 256.871094 129.949219 256.328125 129.058594 255.71875 C 128.171875 255.109375 127.332031 254.441406 126.539062 253.707031 C 125.75 252.976562 125.015625 252.191406 124.339844 251.351562 C 123.664062 250.511719 123.050781 249.628906 122.503906 248.699219 C 121.941406 247.746094 121.453125 246.75 121.042969 245.71875 C 120.632812 244.683594 120.304688 243.628906 120.058594 242.542969 C 119.8125 241.460938 119.652344 240.367188 119.578125 239.257812 C 119.503906 238.152344 119.511719 237.042969 119.609375 235.9375 C 119.703125 234.832031 119.886719 233.738281 120.152344 232.660156 C 120.417969 231.582031 120.765625 230.53125 121.195312 229.507812 C 121.625 228.480469 122.128906 227.496094 122.710938 226.550781 C 123.292969 225.605469 123.945312 224.710938 124.667969 223.863281 C 125.3125 223.386719 125.863281 222.8125 126.308594 222.140625 C 126.757812 221.472656 127.078125 220.746094 127.269531 219.96875 C 127.464844 219.1875 127.523438 218.394531 127.441406 217.59375 C 127.359375 216.792969 127.144531 216.03125 126.796875 215.304688 C 126.449219 214.578125 125.992188 213.933594 125.417969 213.367188 C 124.84375 212.800781 124.195312 212.347656 123.464844 212.007812 C 122.734375 211.667969 121.964844 211.464844 121.164062 211.390625 C 120.363281 211.320312 119.570312 211.382812 118.792969 211.585938 C 110.265625 211.585938 101.738281 211.585938 93.207031 211.585938 C 84.675781 211.585938 76.152344 211.585938 67.625 211.585938 C 61.507812 211.585938 59.234375 213.835938 59.230469 219.820312 L 59.230469 230.644531 C 59.230469 272.140625 59.230469 313.632812 59.230469 355.117188 C 59.195312 355.796875 59.195312 356.480469 59.234375 357.160156 C 59.269531 357.84375 59.34375 358.519531 59.449219 359.195312 C 59.558594 359.867188 59.699219 360.535156 59.875 361.191406 C 60.054688 361.851562 60.261719 362.5 60.507812 363.136719 C 60.75 363.773438 61.027344 364.398438 61.335938 365.003906 C 61.644531 365.613281 61.984375 366.203125 62.355469 366.777344 C 62.726562 367.351562 63.125 367.902344 63.554688 368.433594 C 63.980469 368.96875 64.433594 369.476562 64.914062 369.960938 C 65.394531 370.445312 65.902344 370.902344 66.429688 371.335938 C 66.957031 371.765625 67.507812 372.171875 68.078125 372.546875 C 68.648438 372.921875 69.234375 373.265625 69.839844 373.578125 C 70.449219 373.894531 71.070312 374.175781 71.703125 374.425781 C 72.339844 374.675781 72.984375 374.890625 73.644531 375.074219 C 74.300781 375.253906 74.96875 375.402344 75.640625 375.515625 C 76.3125 375.628906 76.992188 375.707031 77.671875 375.75 C 78.355469 375.792969 79.035156 375.800781 79.71875 375.773438 C 125.496094 375.792969 171.273438 375.792969 217.054688 375.773438 C 262.835938 375.753906 308.613281 375.753906 354.394531 375.773438 C 355.078125 375.8125 355.761719 375.820312 356.445312 375.789062 C 357.128906 375.757812 357.808594 375.6875 358.484375 375.585938 C 359.160156 375.484375 359.828125 375.34375 360.492188 375.171875 C 361.152344 374.996094 361.804688 374.789062 362.445312 374.546875 C 363.082031 374.304688 363.707031 374.03125 364.320312 373.722656 C 364.929688 373.414062 365.523438 373.074219 366.097656 372.703125 C 366.671875 372.332031 367.226562 371.933594 367.757812 371.503906 C 368.292969 371.074219 368.800781 370.621094 369.285156 370.136719 C 369.769531 369.652344 370.226562 369.148438 370.660156 368.617188 C 371.089844 368.085938 371.492188 367.535156 371.863281 366.960938 C 372.238281 366.386719 372.578125 365.796875 372.890625 365.1875 C 373.199219 364.578125 373.476562 363.953125 373.722656 363.316406 C 373.964844 362.675781 374.175781 362.027344 374.351562 361.367188 C 374.527344 360.707031 374.667969 360.039062 374.773438 359.363281 C 374.878906 358.6875 374.949219 358.007812 374.984375 357.324219 C 375.015625 356.640625 375.015625 355.960938 374.976562 355.277344 C 375.015625 263.792969 375.015625 172.308594 374.976562 80.820312 C 375.011719 80.136719 375.011719 79.457031 374.976562 78.777344 C 374.941406 78.097656 374.871094 77.421875 374.765625 76.75 C 374.660156 76.078125 374.519531 75.410156 374.34375 74.753906 C 374.167969 74.097656 373.957031 73.449219 373.710938 72.8125 C 373.46875 72.175781 373.191406 71.554688 372.882812 70.949219 C 372.570312 70.34375 372.230469 69.753906 371.859375 69.183594 C 371.488281 68.613281 371.085938 68.0625 370.660156 67.535156 C 370.230469 67.003906 369.773438 66.5 369.289062 66.019531 C 368.808594 65.539062 368.300781 65.082031 367.773438 64.65625 C 367.242188 64.226562 366.691406 63.828125 366.117188 63.457031 C 365.546875 63.085938 364.957031 62.75 364.347656 62.441406 C 363.742188 62.132812 363.117188 61.855469 362.480469 61.613281 C 361.84375 61.371094 361.199219 61.164062 360.539062 60.988281 C 359.878906 60.8125 359.214844 60.671875 358.539062 60.566406 C 357.867188 60.464844 357.191406 60.394531 356.507812 60.359375 C 355.828125 60.324219 355.148438 60.328125 354.46875 60.367188 Z M 214.097656 308.109375 C 213.429688 308.511719 212.835938 309.003906 212.316406 309.585938 C 211.796875 310.167969 211.375 310.8125 211.050781 311.523438 C 210.730469 312.234375 210.519531 312.976562 210.421875 313.75 C 210.324219 314.523438 210.34375 315.292969 210.480469 316.0625 C 210.574219 328.511719 210.558594 340.96875 210.542969 353.421875 L 210.542969 361.792969 C 210.523438 362.121094 210.472656 362.441406 210.390625 362.761719 L 82.109375 362.761719 C 74.191406 362.761719 72.371094 360.945312 72.371094 353.074219 L 72.371094 224.867188 L 108.796875 224.867188 C 104.496094 244.136719 108.539062 257.316406 121.457031 266.285156 C 122.886719 267.285156 124.382812 268.171875 125.949219 268.949219 C 127.511719 269.722656 129.125 270.375 130.785156 270.90625 C 132.445312 271.4375 134.140625 271.84375 135.863281 272.117188 C 137.585938 272.394531 139.320312 272.542969 141.0625 272.558594 C 142.808594 272.574219 144.542969 272.457031 146.273438 272.210938 C 148 271.964844 149.699219 271.59375 151.371094 271.089844 C 153.039062 270.589844 154.664062 269.964844 156.242188 269.21875 C 157.820312 268.472656 159.332031 267.613281 160.777344 266.640625 C 174.027344 257.8125 178.132812 244.875 173.992188 224.820312 L 210.292969 224.820312 C 210.390625 225.4375 210.449219 226.058594 210.460938 226.683594 L 210.398438 238.996094 C 210.328125 249.960938 210.253906 261.296875 210.398438 272.453125 C 210.5 273.757812 210.867188 274.984375 211.5 276.132812 C 212.132812 277.28125 212.972656 278.246094 214.019531 279.035156 C 217.601562 281.457031 221.195312 278.375 222.371094 277.363281 C 222.957031 276.84375 223.570312 276.359375 224.210938 275.90625 C 224.851562 275.457031 225.511719 275.039062 226.195312 274.660156 C 226.882812 274.277344 227.585938 273.9375 228.304688 273.632812 C 229.027344 273.328125 229.761719 273.0625 230.511719 272.835938 C 231.261719 272.613281 232.023438 272.429688 232.792969 272.285156 C 233.5625 272.140625 234.339844 272.039062 235.121094 271.980469 C 235.902344 271.921875 236.683594 271.90625 237.464844 271.929688 C 238.246094 271.957031 239.027344 272.023438 239.800781 272.132812 C 240.578125 272.242188 241.34375 272.390625 242.105469 272.585938 C 242.863281 272.777344 243.609375 273.007812 244.34375 273.28125 C 245.078125 273.554688 245.796875 273.867188 246.496094 274.214844 C 247.195312 274.566406 247.875 274.953125 248.535156 275.375 C 249.195312 275.800781 249.828125 276.257812 250.4375 276.75 C 251.046875 277.242188 251.625 277.765625 252.179688 278.320312 C 252.730469 278.875 253.25 279.457031 253.742188 280.070312 C 254.230469 280.679688 254.683594 281.316406 255.105469 281.976562 C 255.527344 282.636719 255.910156 283.316406 256.257812 284.019531 C 256.605469 284.71875 256.914062 285.4375 257.179688 286.171875 C 257.449219 286.90625 257.679688 287.65625 257.867188 288.414062 C 258.054688 289.175781 258.203125 289.941406 258.308594 290.71875 C 258.414062 291.492188 258.476562 292.273438 258.5 293.054688 C 258.519531 293.835938 258.5 294.617188 258.433594 295.398438 C 258.371094 296.175781 258.265625 296.953125 258.121094 297.71875 C 257.972656 298.488281 257.785156 299.246094 257.554688 299.996094 C 257.328125 300.746094 257.058594 301.476562 256.75 302.199219 C 256.441406 302.917969 256.09375 303.617188 255.710938 304.300781 C 255.324219 304.980469 254.90625 305.640625 254.449219 306.277344 C 253.996094 306.914062 253.507812 307.523438 252.984375 308.105469 C 252.460938 308.691406 251.910156 309.246094 251.328125 309.769531 C 250.75 310.292969 250.140625 310.785156 249.503906 311.242188 C 248.871094 311.703125 248.214844 312.125 247.53125 312.511719 C 246.851562 312.898438 246.152344 313.25 245.433594 313.5625 C 244.511719 314 243.5625 314.371094 242.585938 314.667969 C 241.609375 314.96875 240.613281 315.191406 239.605469 315.339844 C 238.59375 315.488281 237.578125 315.5625 236.554688 315.5625 C 235.535156 315.558594 234.519531 315.480469 233.507812 315.324219 C 232.5 315.171875 231.503906 314.945312 230.53125 314.640625 C 229.554688 314.339844 228.605469 313.964844 227.6875 313.519531 C 226.765625 313.078125 225.882812 312.566406 225.039062 311.992188 C 224.199219 311.414062 223.402344 310.78125 222.652344 310.085938 C 222.152344 309.464844 221.566406 308.945312 220.894531 308.519531 C 220.21875 308.097656 219.492188 307.796875 218.71875 307.617188 C 217.941406 307.4375 217.15625 307.390625 216.367188 307.476562 C 215.574219 307.558594 214.820312 307.769531 214.097656 308.109375 Z M 352.527344 362.777344 L 223.839844 362.777344 L 223.839844 326.242188 C 242.875 331.855469 257.4375 326.566406 267.164062 310.519531 C 268.046875 309.042969 268.804688 307.507812 269.449219 305.914062 C 270.089844 304.320312 270.605469 302.683594 270.996094 301.011719 C 271.382812 299.335938 271.640625 297.644531 271.765625 295.929688 C 271.890625 294.214844 271.886719 292.5 271.746094 290.789062 C 271.605469 289.074219 271.335938 287.382812 270.933594 285.714844 C 270.53125 284.042969 270 282.410156 269.347656 280.824219 C 268.691406 279.234375 267.917969 277.703125 267.023438 276.234375 C 266.132812 274.765625 265.132812 273.375 264.023438 272.058594 C 253.632812 259.574219 240.082031 255.902344 223.738281 261.125 L 223.738281 224.644531 C 224.132812 224.578125 224.527344 224.539062 224.925781 224.527344 L 232.554688 224.527344 C 245.261719 224.527344 257.96875 224.527344 270.679688 224.597656 L 270.871094 224.597656 C 271.609375 224.714844 272.34375 224.71875 273.082031 224.601562 C 273.820312 224.484375 274.519531 224.257812 275.183594 223.917969 C 275.847656 223.578125 276.441406 223.144531 276.96875 222.617188 C 277.492188 222.085938 277.921875 221.488281 278.253906 220.824219 C 278.53125 220.121094 278.699219 219.390625 278.753906 218.636719 C 278.808594 217.882812 278.75 217.140625 278.574219 216.402344 C 278.402344 215.667969 278.121094 214.972656 277.738281 214.324219 C 277.351562 213.671875 276.878906 213.09375 276.316406 212.589844 C 275.753906 211.945312 275.234375 211.265625 274.753906 210.558594 C 274.273438 209.851562 273.835938 209.117188 273.441406 208.359375 C 273.046875 207.601562 272.699219 206.820312 272.398438 206.023438 C 272.097656 205.222656 271.84375 204.40625 271.636719 203.578125 C 271.433594 202.746094 271.277344 201.90625 271.167969 201.058594 C 271.0625 200.210938 271.007812 199.359375 271 198.503906 C 270.996094 197.648438 271.039062 196.796875 271.132812 195.949219 C 271.230469 195.097656 271.375 194.257812 271.566406 193.425781 C 271.761719 192.589844 272.003906 191.773438 272.296875 190.96875 C 272.585938 190.164062 272.925781 189.378906 273.308594 188.617188 C 273.691406 187.851562 274.117188 187.113281 274.589844 186.398438 C 275.058594 185.683594 275.570312 185 276.125 184.347656 C 276.675781 183.695312 277.261719 183.074219 277.886719 182.492188 C 278.511719 181.90625 279.167969 181.363281 279.859375 180.855469 C 280.546875 180.347656 281.265625 179.882812 282.007812 179.460938 C 282.753906 179.039062 283.519531 178.664062 284.308594 178.332031 C 285.097656 178 285.902344 177.714844 286.722656 177.476562 C 287.546875 177.242188 288.378906 177.054688 289.222656 176.914062 C 290.070312 176.777344 290.917969 176.6875 291.773438 176.652344 C 292.628906 176.613281 293.480469 176.625 294.335938 176.6875 C 295.1875 176.75 296.035156 176.863281 296.875 177.023438 C 297.714844 177.1875 298.542969 177.398438 299.359375 177.65625 C 300.171875 177.917969 300.96875 178.226562 301.75 178.578125 C 302.527344 178.933594 303.285156 179.332031 304.015625 179.773438 C 304.746094 180.21875 305.449219 180.703125 306.125 181.230469 C 306.800781 181.753906 307.441406 182.320312 308.046875 182.921875 C 308.65625 183.523438 309.226562 184.15625 309.757812 184.828125 C 310.292969 185.496094 310.785156 186.195312 311.234375 186.921875 C 311.683594 187.648438 312.089844 188.398438 312.453125 189.171875 C 312.8125 189.949219 313.128906 190.742188 313.394531 191.554688 C 313.664062 192.367188 313.882812 193.191406 314.054688 194.027344 C 314.222656 194.867188 314.34375 195.710938 314.414062 196.5625 C 314.539062 198.015625 314.511719 199.460938 314.339844 200.90625 C 314.164062 202.351562 313.84375 203.765625 313.382812 205.148438 C 312.917969 206.527344 312.320312 207.847656 311.585938 209.105469 C 310.847656 210.359375 309.996094 211.53125 309.019531 212.613281 C 308.417969 213.085938 307.910156 213.644531 307.496094 214.289062 C 307.085938 214.933594 306.789062 215.628906 306.609375 216.371094 C 306.429688 217.117188 306.378906 217.867188 306.453125 218.628906 C 306.527344 219.390625 306.726562 220.117188 307.046875 220.8125 C 307.425781 221.5 307.894531 222.109375 308.464844 222.644531 C 309.03125 223.183594 309.667969 223.621094 310.375 223.957031 C 311.078125 224.296875 311.816406 224.519531 312.59375 224.625 C 313.367188 224.730469 314.140625 224.71875 314.910156 224.582031 C 326.730469 224.480469 338.542969 224.496094 350.554688 224.507812 L 361.890625 224.507812 L 361.890625 224.792969 C 361.957031 225.722656 362.019531 226.605469 362.019531 227.488281 C 362.019531 269.371094 362.019531 311.253906 362.019531 353.136719 C 362.050781 360.707031 360.007812 362.773438 352.527344 362.777344 Z M 362.050781 211.242188 L 325.394531 211.242188 C 330.984375 192.378906 325.804688 177.882812 309.996094 168.136719 C 308.511719 167.234375 306.96875 166.449219 305.363281 165.785156 C 303.761719 165.121094 302.113281 164.585938 300.425781 164.175781 C 298.738281 163.769531 297.027344 163.496094 295.296875 163.355469 C 293.566406 163.214844 291.832031 163.210938 290.101562 163.339844 C 288.371094 163.46875 286.65625 163.730469 284.964844 164.128906 C 283.277344 164.523438 281.625 165.050781 280.015625 165.703125 C 278.410156 166.359375 276.859375 167.132812 275.371094 168.027344 C 273.882812 168.921875 272.476562 169.929688 271.144531 171.042969 C 258.589844 181.457031 254.90625 194.988281 260.183594 211.296875 L 223.5 211.296875 L 223.5 198.5625 C 223.5 187.40625 223.5 176.246094 223.5 165.085938 C 223.707031 164.3125 223.773438 163.527344 223.703125 162.730469 C 223.636719 161.933594 223.433594 161.171875 223.101562 160.445312 C 222.769531 159.71875 222.324219 159.066406 221.765625 158.496094 C 221.207031 157.921875 220.566406 157.460938 219.847656 157.109375 C 219.128906 156.757812 218.371094 156.535156 217.578125 156.445312 C 216.78125 156.355469 215.992188 156.402344 215.214844 156.585938 C 214.433594 156.769531 213.710938 157.078125 213.039062 157.515625 C 212.367188 157.949219 211.785156 158.484375 211.300781 159.121094 C 210.773438 159.566406 210.226562 159.988281 209.660156 160.378906 C 209.09375 160.773438 208.507812 161.140625 207.90625 161.476562 C 207.300781 161.816406 206.683594 162.125 206.050781 162.402344 C 205.417969 162.679688 204.773438 162.925781 204.117188 163.144531 C 203.464844 163.359375 202.796875 163.542969 202.125 163.695312 C 201.449219 163.847656 200.769531 163.96875 200.085938 164.054688 C 199.398438 164.140625 198.710938 164.195312 198.019531 164.214844 C 197.332031 164.234375 196.640625 164.222656 195.949219 164.175781 C 195.261719 164.128906 194.574219 164.050781 193.894531 163.941406 C 193.210938 163.828125 192.539062 163.683594 191.871094 163.507812 C 191.203125 163.328125 190.542969 163.121094 189.894531 162.882812 C 189.25 162.640625 188.613281 162.371094 187.992188 162.070312 C 187.371094 161.769531 186.765625 161.4375 186.175781 161.078125 C 185.585938 160.71875 185.015625 160.332031 184.460938 159.917969 C 183.910156 159.503906 183.378906 159.0625 182.867188 158.597656 C 182.359375 158.128906 181.871094 157.640625 181.40625 157.128906 C 180.941406 156.617188 180.503906 156.089844 180.089844 155.535156 C 179.671875 154.984375 179.285156 154.414062 178.925781 153.824219 C 178.5625 153.238281 178.230469 152.632812 177.925781 152.011719 C 177.625 151.394531 177.351562 150.761719 177.105469 150.113281 C 176.863281 149.46875 176.648438 148.8125 176.46875 148.148438 C 176.285156 147.480469 176.136719 146.808594 176.019531 146.128906 C 175.902344 145.449219 175.816406 144.765625 175.761719 144.078125 C 175.710938 143.386719 175.6875 142.699219 175.703125 142.007812 C 175.714844 141.320312 175.757812 140.632812 175.835938 139.945312 C 175.914062 139.257812 176.023438 138.578125 176.164062 137.902344 C 176.308594 137.226562 176.480469 136.5625 176.683594 135.902344 C 176.890625 135.242188 177.125 134.59375 177.394531 133.957031 C 177.660156 133.320312 177.957031 132.699219 178.28125 132.089844 C 178.605469 131.480469 178.960938 130.890625 179.339844 130.3125 C 179.722656 129.738281 180.132812 129.183594 180.566406 128.644531 C 181 128.109375 181.457031 127.59375 181.941406 127.101562 C 182.421875 126.605469 182.925781 126.132812 183.449219 125.6875 C 183.976562 125.242188 184.523438 124.820312 185.089844 124.425781 C 185.65625 124.03125 186.242188 123.664062 186.84375 123.328125 C 187.445312 122.988281 188.0625 122.679688 188.695312 122.402344 C 189.324219 122.125 189.96875 121.875 190.625 121.660156 C 191.28125 121.445312 191.945312 121.257812 192.617188 121.105469 C 193.292969 120.953125 193.972656 120.835938 194.65625 120.75 C 195.34375 120.660156 196.03125 120.609375 196.71875 120.585938 C 197.410156 120.566406 198.097656 120.582031 198.789062 120.625 C 199.476562 120.671875 200.164062 120.75 200.84375 120.863281 C 201.523438 120.976562 202.199219 121.121094 202.867188 121.296875 C 203.535156 121.476562 204.191406 121.683594 204.839844 121.925781 C 205.484375 122.164062 206.121094 122.4375 206.742188 122.738281 C 207.363281 123.039062 207.96875 123.371094 208.554688 123.730469 C 209.144531 124.089844 209.714844 124.476562 210.265625 124.894531 C 210.820312 125.308594 211.347656 125.75 211.859375 126.214844 C 212.371094 126.789062 212.964844 127.261719 213.640625 127.636719 C 214.3125 128.011719 215.027344 128.265625 215.789062 128.394531 C 216.546875 128.527344 217.308594 128.53125 218.066406 128.40625 C 218.828125 128.28125 219.546875 128.035156 220.222656 127.667969 C 220.855469 127.269531 221.414062 126.792969 221.902344 126.230469 C 222.394531 125.671875 222.792969 125.054688 223.101562 124.375 C 223.414062 123.699219 223.621094 122.992188 223.722656 122.257812 C 223.828125 121.519531 223.824219 120.785156 223.714844 120.050781 C 223.582031 108.351562 223.597656 96.898438 223.617188 84.777344 L 223.617188 73.554688 L 223.898438 73.554688 C 224.828125 73.480469 225.710938 73.414062 226.59375 73.414062 C 268.648438 73.414062 310.699219 73.414062 352.753906 73.414062 C 360.0625 73.414062 362.0625 75.449219 362.066406 82.867188 C 362.066406 114.289062 362.066406 145.707031 362.066406 177.121094 Z M 87.628906 152.863281 L 95.253906 155.902344 C 102.234375 158.6875 109.058594 161.410156 115.894531 164.097656 C 120.835938 166.035156 124.003906 164.8125 125.855469 160.222656 C 130.972656 147.582031 136.261719 134.511719 141.21875 121.304688 C 141.601562 120.03125 141.679688 118.742188 141.453125 117.433594 C 141.226562 116.125 140.71875 114.933594 139.929688 113.863281 C 138.523438 112.265625 135.566406 112.300781 133.109375 112.328125 C 131.824219 112.375 130.550781 112.519531 129.285156 112.761719 C 128.328125 112.902344 127.363281 112.953125 126.398438 112.914062 C 125.429688 112.871094 124.472656 112.742188 123.53125 112.523438 C 122.585938 112.304688 121.671875 112 120.785156 111.609375 C 119.898438 111.214844 119.058594 110.746094 118.261719 110.195312 C 117.464844 109.644531 116.726562 109.027344 116.042969 108.335938 C 115.363281 107.648438 114.753906 106.902344 114.214844 106.097656 C 113.675781 105.296875 113.214844 104.449219 112.832031 103.558594 C 112.453125 102.667969 112.160156 101.75 111.949219 100.804688 C 111.742188 99.859375 111.625 98.902344 111.597656 97.9375 C 111.570312 96.96875 111.632812 96.007812 111.789062 95.050781 C 111.941406 94.097656 112.183594 93.164062 112.511719 92.253906 C 112.84375 91.34375 113.253906 90.472656 113.746094 89.640625 C 114.242188 88.804688 114.808594 88.027344 115.449219 87.300781 C 116.089844 86.574219 116.792969 85.914062 117.554688 85.320312 C 118.320312 84.726562 119.132812 84.210938 119.996094 83.769531 C 120.859375 83.328125 121.753906 82.96875 122.683594 82.699219 C 123.539062 82.429688 124.410156 82.238281 125.296875 82.121094 C 126.183594 82.007812 127.078125 81.96875 127.96875 82.007812 C 128.863281 82.046875 129.75 82.164062 130.625 82.355469 C 131.496094 82.550781 132.347656 82.816406 133.175781 83.15625 C 134.003906 83.496094 134.796875 83.90625 135.550781 84.386719 C 136.308594 84.863281 137.019531 85.40625 137.679688 86.007812 C 138.34375 86.609375 138.945312 87.265625 139.496094 87.972656 C 140.042969 88.679688 140.527344 89.429688 140.945312 90.21875 C 141.914062 91.914062 144.246094 95.882812 148.214844 94.644531 C 149.476562 94.171875 150.597656 93.476562 151.578125 92.558594 C 152.558594 91.636719 153.328125 90.5625 153.882812 89.339844 C 158.144531 79.210938 162.257812 68.828125 166.226562 58.78125 L 168.789062 52.300781 C 171.015625 46.6875 169.761719 43.761719 164.078125 41.492188 C 158.398438 39.21875 152.859375 37.03125 147.246094 34.808594 L 116.644531 22.683594 C 99.863281 16.019531 83.078125 9.371094 66.285156 2.734375 C 65.757812 2.480469 65.21875 2.25 64.667969 2.050781 C 64.117188 1.847656 63.554688 1.679688 62.988281 1.535156 C 62.417969 1.394531 61.839844 1.285156 61.261719 1.203125 C 60.679688 1.121094 60.09375 1.070312 59.507812 1.050781 C 58.921875 1.03125 58.335938 1.042969 57.75 1.082031 C 57.164062 1.125 56.582031 1.199219 56.007812 1.300781 C 55.429688 1.402344 54.855469 1.535156 54.292969 1.699219 C 53.730469 1.859375 53.175781 2.050781 52.632812 2.273438 C 52.089844 2.492188 51.558594 2.742188 51.039062 3.019531 C 50.523438 3.292969 50.019531 3.597656 49.535156 3.925781 C 49.046875 4.253906 48.582031 4.609375 48.132812 4.984375 C 47.683594 5.363281 47.257812 5.765625 46.851562 6.1875 C 46.441406 6.609375 46.058594 7.054688 45.699219 7.515625 C 45.339844 7.980469 45.003906 8.460938 44.695312 8.957031 C 44.386719 9.457031 44.101562 9.96875 43.847656 10.496094 C 43.59375 11.027344 43.363281 11.566406 43.164062 12.117188 C 29.941406 45.117188 16.796875 78.152344 3.730469 111.21875 C 3.589844 111.449219 3.46875 111.683594 3.359375 111.925781 C 3.25 112.171875 3.15625 112.417969 3.074219 112.671875 C 2.996094 112.925781 2.929688 113.1875 2.882812 113.449219 C 2.832031 113.710938 2.800781 113.972656 2.78125 114.238281 C 2.765625 114.503906 2.765625 114.773438 2.777344 115.039062 C 2.792969 115.304688 2.824219 115.570312 2.867188 115.832031 C 2.914062 116.09375 2.976562 116.351562 3.050781 116.609375 C 3.128906 116.863281 3.21875 117.113281 3.324219 117.355469 C 3.433594 117.601562 3.550781 117.839844 3.6875 118.070312 C 3.820312 118.300781 3.96875 118.519531 4.128906 118.734375 C 4.292969 118.945312 4.464844 119.148438 4.648438 119.339844 C 4.835938 119.53125 5.03125 119.710938 5.238281 119.882812 C 5.441406 120.050781 5.660156 120.207031 5.882812 120.347656 C 6.109375 120.492188 6.339844 120.621094 6.582031 120.734375 C 6.824219 120.851562 7.070312 120.953125 7.320312 121.039062 C 7.574219 121.125 7.832031 121.195312 8.089844 121.25 C 13.679688 123.523438 19.277344 125.75 24.882812 127.984375 L 34.46875 131.8125 C 35.125 132.074219 35.765625 132.375 36.433594 132.683594 C 35.472656 133.835938 34.609375 135.050781 33.84375 136.339844 C 33.078125 137.625 32.417969 138.964844 31.867188 140.359375 C 31.3125 141.75 30.875 143.175781 30.554688 144.640625 C 30.230469 146.101562 30.023438 147.578125 29.9375 149.074219 C 29.851562 150.570312 29.882812 152.0625 30.035156 153.550781 C 30.1875 155.039062 30.457031 156.507812 30.84375 157.957031 C 31.230469 159.402344 31.730469 160.808594 32.34375 162.175781 C 32.957031 163.542969 33.671875 164.851562 34.496094 166.105469 C 35.070312 167.128906 35.714844 168.113281 36.421875 169.054688 C 37.132812 169.996094 37.898438 170.886719 38.726562 171.722656 C 39.554688 172.5625 40.433594 173.34375 41.363281 174.066406 C 42.292969 174.789062 43.265625 175.445312 44.285156 176.039062 C 45.304688 176.632812 46.355469 177.15625 47.441406 177.609375 C 48.53125 178.0625 49.644531 178.445312 50.78125 178.75 C 51.917969 179.054688 53.070312 179.285156 54.242188 179.4375 C 55.410156 179.59375 56.582031 179.667969 57.761719 179.664062 C 59.25 179.664062 60.726562 179.554688 62.199219 179.34375 C 76.621094 177.265625 85.160156 168.371094 87.628906 152.863281 Z M 43.90625 155.933594 C 43.632812 155.128906 43.429688 154.308594 43.289062 153.472656 C 43.148438 152.636719 43.078125 151.792969 43.078125 150.945312 C 43.078125 150.097656 43.144531 149.257812 43.28125 148.417969 C 43.417969 147.582031 43.621094 146.761719 43.890625 145.957031 C 44.160156 145.152344 44.492188 144.375 44.890625 143.625 C 45.285156 142.878906 45.742188 142.164062 46.253906 141.488281 C 46.769531 140.8125 47.332031 140.183594 47.949219 139.601562 C 48.566406 139.019531 49.226562 138.488281 49.929688 138.011719 C 50.359375 137.722656 50.816406 137.445312 51.269531 137.175781 C 53.613281 135.765625 56.53125 134.015625 55.976562 129.871094 C 55.425781 125.726562 52.125 124.542969 49.46875 123.574219 C 49.058594 123.425781 48.652344 123.28125 48.253906 123.121094 L 17.898438 111.105469 L 18.082031 110.621094 C 18.460938 109.574219 18.820312 108.574219 19.210938 107.59375 L 21.257812 102.414062 C 32.390625 74.425781 43.539062 46.4375 54.703125 18.457031 C 56.417969 14.152344 57.921875 13.457031 62.046875 15.089844 C 88.261719 25.46875 114.472656 35.863281 140.675781 46.277344 L 153.765625 51.472656 C 154.105469 51.609375 154.433594 51.773438 154.863281 51.988281 L 145.585938 75.375 C 133.03125 66.617188 120.894531 66.53125 109.496094 75.113281 C 108.410156 75.882812 107.390625 76.730469 106.429688 77.65625 C 105.472656 78.578125 104.589844 79.566406 103.777344 80.625 C 102.96875 81.679688 102.242188 82.789062 101.597656 83.953125 C 100.953125 85.117188 100.398438 86.320312 99.9375 87.566406 C 99.472656 88.816406 99.101562 90.089844 98.828125 91.390625 C 98.554688 92.691406 98.382812 94.007812 98.304688 95.335938 C 98.226562 96.664062 98.25 97.988281 98.371094 99.3125 C 98.492188 100.636719 98.710938 101.945312 99.03125 103.238281 C 101.828125 116.519531 110.628906 124.34375 125.203125 126.523438 L 115.886719 150 L 85.472656 137.953125 C 85.234375 137.855469 85 137.738281 84.773438 137.609375 C 84.074219 137.199219 83.324219 136.964844 82.515625 136.898438 C 82.03125 136.898438 81.496094 136.898438 80.96875 136.898438 C 79.964844 136.742188 78.960938 136.761719 77.964844 136.953125 C 76.964844 137.148438 76.027344 137.503906 75.152344 138.023438 C 73.527344 139.363281 73.496094 142.324219 73.464844 144.703125 L 73.464844 145.132812 C 73.476562 146.460938 73.582031 147.785156 73.78125 149.097656 C 74.070312 150.722656 74.132812 152.359375 73.964844 154 C 73.820312 154.835938 73.609375 155.648438 73.328125 156.449219 C 73.046875 157.246094 72.703125 158.015625 72.292969 158.757812 C 71.882812 159.496094 71.414062 160.199219 70.886719 160.859375 C 70.359375 161.519531 69.78125 162.136719 69.152344 162.699219 C 68.523438 163.265625 67.847656 163.773438 67.132812 164.226562 C 66.417969 164.675781 65.667969 165.066406 64.886719 165.394531 C 64.109375 165.722656 63.304688 165.980469 62.480469 166.171875 C 61.65625 166.363281 60.820312 166.488281 59.976562 166.539062 C 59.113281 166.609375 58.25 166.605469 57.386719 166.53125 C 56.523438 166.457031 55.671875 166.3125 54.832031 166.097656 C 53.992188 165.882812 53.175781 165.597656 52.382812 165.246094 C 51.59375 164.894531 50.835938 164.480469 50.113281 164.003906 C 49.390625 163.527344 48.710938 162.992188 48.078125 162.402344 C 47.441406 161.8125 46.859375 161.175781 46.332031 160.488281 C 45.804688 159.800781 45.339844 159.074219 44.929688 158.3125 C 44.523438 157.546875 44.183594 156.753906 43.90625 155.933594 Z M 43.90625 155.933594 " fill-opacity="1" fill-rule="nonzero"/></g></svg>