<svg xmlns="http://www.w3.org/2000/svg" xmlns:xlink="http://www.w3.org/1999/xlink" width="500" zoomAndPan="magnify" viewBox="0 0 375 374.999991" height="500" preserveAspectRatio="xMidYMid meet" version="1.0"><defs><clipPath id="4501b34a19"><path d="M 0 6.796875 L 375 6.796875 L 375 368.296875 L 0 368.296875 Z M 0 6.796875 " clip-rule="nonzero"/></clipPath></defs><g clip-path="url(#4501b34a19)"><path fill="#091f2c" d="M 239.082031 38.789062 L 276.457031 76.160156 L 239.082031 76.160156 Z M 194.371094 296.613281 L 212.792969 315.0625 L 212.800781 315.070312 C 219.886719 322.152344 231.640625 322.152344 238.726562 315.070312 C 238.738281 315.058594 238.746094 315.050781 238.753906 315.039062 L 247.144531 306.597656 C 252.449219 301.292969 253.785156 293.4375 251.140625 286.839844 C 252.304688 285.289062 253.421875 283.820312 254.496094 282.421875 L 276.457031 305.457031 L 276.457031 337.660156 L 251.035156 337.660156 L 250.847656 336.832031 C 249.003906 328.457031 241.574219 322.804688 233.011719 322.804688 L 168.195312 322.804688 C 159.632812 322.804688 152.199219 328.460938 150.359375 336.84375 C 150.359375 336.839844 150.289062 337.136719 150.171875 337.660156 L 45.851562 337.660156 L 45.851562 133.265625 C 46.605469 133.261719 47.355469 133.195312 48.097656 133.058594 C 80.257812 127.101562 103.996094 98.679688 103.996094 65.914062 L 103.996094 38.789062 L 226.71875 38.789062 L 226.71875 76.160156 C 226.71875 82.988281 232.253906 88.523438 239.082031 88.523438 L 276.457031 88.523438 L 276.457031 162.019531 C 269.582031 158.523438 260.917969 159.640625 255.1875 165.367188 C 255.179688 165.375 255.171875 165.386719 255.160156 165.394531 L 246.773438 173.839844 C 241.46875 179.140625 240.132812 186.988281 242.773438 193.585938 C 240.960938 195.984375 239.273438 198.1875 237.679688 200.238281 C 237.679688 200.160156 237.683594 200.085938 237.683594 200.007812 C 237.683594 196.597656 234.914062 193.828125 231.5 193.828125 L 167.636719 193.828125 C 164.222656 193.828125 161.457031 196.597656 161.457031 200.007812 C 161.457031 203.421875 164.222656 206.191406 167.636719 206.191406 L 231.5 206.191406 C 232.046875 206.191406 232.578125 206.121094 233.082031 205.988281 C 223.480469 217.65625 216.121094 224.109375 200.3125 236.046875 C 193.699219 233.425781 185.792969 234.761719 180.5 240.058594 L 172.109375 248.449219 C 167.863281 252.695312 166.148438 258.550781 166.972656 264.097656 C 163.871094 264.429688 161.457031 267.058594 161.457031 270.242188 C 161.457031 273.65625 164.222656 276.425781 167.636719 276.425781 L 174.207031 276.425781 L 182.023438 284.25 L 167.636719 284.25 C 164.222656 284.25 161.457031 287.023438 161.457031 290.433594 C 161.457031 293.84375 164.222656 296.613281 167.636719 296.613281 Z M 167.636719 135.972656 L 231.5 135.972656 C 234.914062 135.972656 237.683594 133.203125 237.683594 129.792969 C 237.683594 126.378906 234.914062 123.609375 231.5 123.609375 L 167.636719 123.609375 C 164.222656 123.609375 161.457031 126.378906 161.457031 129.792969 C 161.457031 133.203125 164.222656 135.972656 167.636719 135.972656 Z M 167.636719 156.164062 L 209.210938 156.164062 C 212.621094 156.164062 215.390625 153.390625 215.390625 149.980469 C 215.390625 146.570312 212.621094 143.800781 209.210938 143.800781 L 167.636719 143.800781 C 164.222656 143.800781 161.457031 146.570312 161.457031 149.980469 C 161.457031 153.390625 164.222656 156.164062 167.636719 156.164062 Z M 92.449219 255.726562 C 89.648438 255.726562 87.359375 258.03125 87.359375 260.832031 L 87.359375 299.84375 C 87.359375 302.644531 89.648438 304.933594 92.449219 304.933594 L 131.460938 304.933594 C 134.261719 304.933594 136.550781 302.644531 136.550781 299.84375 L 136.550781 260.832031 C 136.550781 258.03125 134.261719 255.726562 131.460938 255.726562 Z M 97.203125 283.707031 C 94.789062 281.296875 94.785156 277.378906 97.195312 274.964844 C 99.605469 272.550781 103.519531 272.546875 105.9375 274.957031 L 109.636719 278.648438 L 117.515625 268.902344 C 119.660156 266.25 123.554688 265.835938 126.210938 267.980469 C 128.863281 270.128906 129.273438 274.023438 127.128906 276.675781 L 114.933594 291.757812 C 113.832031 293.121094 112.207031 293.953125 110.457031 294.042969 C 108.707031 294.136719 107 293.484375 105.757812 292.246094 Z M 167.636719 226.378906 L 209.210938 226.378906 C 212.621094 226.378906 215.390625 223.609375 215.390625 220.199219 C 215.390625 216.785156 212.621094 214.015625 209.210938 214.015625 L 167.636719 214.015625 C 164.222656 214.015625 161.457031 216.785156 161.457031 220.199219 C 161.457031 223.609375 164.222656 226.378906 167.636719 226.378906 Z M 92.449219 115.289062 C 89.648438 115.289062 87.359375 117.578125 87.359375 120.378906 L 87.359375 159.390625 C 87.359375 162.191406 89.648438 164.480469 92.449219 164.480469 L 131.460938 164.480469 C 134.261719 164.480469 136.550781 162.191406 136.550781 159.390625 L 136.550781 120.378906 C 136.550781 117.578125 134.261719 115.289062 131.460938 115.289062 Z M 97.203125 143.253906 C 94.789062 140.84375 94.785156 136.925781 97.195312 134.511719 C 99.605469 132.097656 103.519531 132.09375 105.9375 134.503906 L 109.636719 138.195312 L 117.515625 128.449219 C 119.660156 125.796875 123.554688 125.386719 126.210938 127.53125 C 128.863281 129.675781 129.273438 133.570312 127.128906 136.222656 L 114.933594 151.304688 C 113.832031 152.667969 112.207031 153.5 110.457031 153.59375 C 108.707031 153.683594 107 153.03125 105.757812 151.792969 Z M 92.449219 185.507812 C 89.648438 185.507812 87.359375 187.796875 87.359375 190.597656 L 87.359375 229.609375 C 87.359375 232.410156 89.648438 234.699219 92.449219 234.699219 L 131.460938 234.699219 C 134.261719 234.699219 136.550781 232.410156 136.550781 229.609375 L 136.550781 190.597656 C 136.550781 187.796875 134.261719 185.507812 131.460938 185.507812 Z M 97.199219 213.46875 C 94.785156 211.054688 94.785156 207.136719 97.199219 204.726562 C 99.609375 202.3125 103.527344 202.3125 105.941406 204.726562 L 109.640625 208.425781 L 117.515625 198.683594 C 119.660156 196.03125 123.554688 195.617188 126.210938 197.765625 C 128.863281 199.910156 129.273438 203.804688 127.128906 206.457031 L 114.933594 221.539062 C 113.832031 222.902344 112.203125 223.734375 110.453125 223.828125 C 108.703125 223.917969 106.996094 223.265625 105.757812 222.023438 Z M 45.84375 6.816406 L 91.632812 26.417969 L 91.632812 65.914062 C 91.632812 92.75 72.1875 116.023438 45.84375 120.902344 C 19.519531 116.023438 0.0742188 92.75 0.0742188 65.914062 L 0.0742188 26.417969 Z M 22.605469 66.414062 L 38.175781 81.953125 C 39.417969 83.191406 41.125 83.84375 42.871094 83.75 C 44.621094 83.660156 46.25 82.828125 47.351562 81.464844 L 69.539062 54.023438 C 71.683594 51.371094 71.273438 47.472656 68.621094 45.328125 C 65.96875 43.183594 62.070312 43.597656 59.925781 46.25 L 42.050781 68.355469 L 31.339844 57.664062 C 28.925781 55.253906 25.007812 55.257812 22.597656 57.671875 C 20.1875 60.085938 20.191406 64.003906 22.605469 66.414062 Z M 243.339844 359.65625 L 157.867188 359.65625 L 162.429688 339.519531 C 163.003906 336.84375 165.46875 335.167969 168.195312 335.167969 L 233.011719 335.167969 C 235.738281 335.167969 238.203125 336.84375 238.777344 339.519531 Z M 262.257812 272.648438 C 262.519531 272.335938 262.777344 272.027344 263.035156 271.722656 C 268.03125 265.863281 272.589844 261.304688 278.429688 256.320312 L 278.449219 256.308594 C 278.75 256.054688 279.054688 255.796875 279.363281 255.539062 L 372.058594 343.871094 C 373.789062 345.496094 374.679688 347.488281 374.835938 349.742188 C 374.941406 352 374.261719 353.9375 372.6875 355.460938 L 362.199219 365.949219 C 360.679688 367.519531 358.738281 368.203125 356.484375 368.097656 C 354.175781 367.992188 352.238281 367.050781 350.613281 365.320312 Z M 263.929688 174.109375 C 266.238281 171.804688 270.015625 171.804688 272.320312 174.109375 L 313.015625 214.855469 C 315.320312 217.160156 315.320312 220.9375 313.015625 223.246094 L 304.625 231.636719 C 302.316406 233.941406 298.539062 233.941406 296.234375 231.636719 L 255.542969 190.941406 C 253.234375 188.636719 253.234375 184.859375 255.542969 182.554688 Z M 189.242188 248.800781 C 191.546875 246.492188 195.375 246.492188 197.683594 248.800781 L 238.375 289.492188 C 240.683594 291.800781 240.683594 295.574219 238.375 297.882812 L 229.984375 306.324219 C 227.679688 308.632812 223.851562 308.632812 221.542969 306.324219 L 180.851562 265.582031 C 178.542969 263.273438 178.542969 259.5 180.851562 257.191406 Z M 210.335938 243.964844 C 229.34375 229.5 236.203125 222.640625 250.703125 203.589844 L 283.578125 236.464844 C 278.453125 240.363281 274.214844 243.703125 270.449219 246.878906 C 264.054688 252.332031 259.070312 257.3125 253.617188 263.710938 C 250.441406 267.476562 247.101562 271.710938 243.203125 276.835938 Z M 210.335938 243.964844 " fill-opacity="1" fill-rule="evenodd"/></g></svg>