<svg xmlns="http://www.w3.org/2000/svg" xmlns:xlink="http://www.w3.org/1999/xlink" width="500" zoomAndPan="magnify" viewBox="0 0 375 374.999991" height="500" preserveAspectRatio="xMidYMid meet" version="1.0"><path fill="#091f2c" d="M 187.5 66.964844 C 186.621094 66.964844 185.75 66.878906 184.886719 66.707031 C 184.023438 66.535156 183.1875 66.28125 182.375 65.945312 C 181.5625 65.609375 180.789062 65.195312 180.058594 64.707031 C 179.328125 64.21875 178.652344 63.664062 178.03125 63.042969 C 177.40625 62.417969 176.851562 61.742188 176.363281 61.011719 C 175.875 60.28125 175.464844 59.507812 175.125 58.695312 C 174.789062 57.882812 174.535156 57.046875 174.363281 56.183594 C 174.191406 55.320312 174.105469 54.449219 174.105469 53.570312 L 174.105469 13.394531 C 174.105469 12.511719 174.191406 11.640625 174.363281 10.78125 C 174.535156 9.917969 174.789062 9.082031 175.125 8.269531 C 175.464844 7.457031 175.875 6.683594 176.363281 5.953125 C 176.851562 5.222656 177.40625 4.542969 178.03125 3.921875 C 178.652344 3.300781 179.328125 2.746094 180.058594 2.257812 C 180.789062 1.769531 181.5625 1.355469 182.375 1.019531 C 183.1875 0.683594 184.023438 0.429688 184.886719 0.257812 C 185.75 0.0859375 186.621094 0 187.5 0 C 188.378906 0 189.25 0.0859375 190.113281 0.257812 C 190.976562 0.429688 191.8125 0.683594 192.625 1.019531 C 193.4375 1.355469 194.210938 1.769531 194.941406 2.257812 C 195.671875 2.746094 196.347656 3.300781 196.96875 3.921875 C 197.59375 4.542969 198.148438 5.222656 198.636719 5.953125 C 199.125 6.683594 199.535156 7.457031 199.875 8.269531 C 200.210938 9.082031 200.464844 9.917969 200.636719 10.78125 C 200.808594 11.640625 200.894531 12.511719 200.894531 13.394531 L 200.894531 53.570312 C 200.894531 54.449219 200.808594 55.320312 200.636719 56.183594 C 200.464844 57.046875 200.210938 57.882812 199.875 58.695312 C 199.535156 59.507812 199.125 60.28125 198.636719 61.011719 C 198.148438 61.742188 197.59375 62.417969 196.96875 63.042969 C 196.347656 63.664062 195.671875 64.21875 194.941406 64.707031 C 194.210938 65.195312 193.4375 65.609375 192.625 65.945312 C 191.8125 66.28125 190.976562 66.535156 190.113281 66.707031 C 189.25 66.878906 188.378906 66.964844 187.5 66.964844 Z M 187.5 66.964844 " fill-opacity="1" fill-rule="nonzero"/><path fill="#091f2c" d="M 361.605469 200.894531 L 321.429688 200.894531 C 320.550781 200.894531 319.679688 200.808594 318.816406 200.636719 C 317.953125 200.464844 317.117188 200.210938 316.304688 199.875 C 315.492188 199.535156 314.71875 199.125 313.988281 198.636719 C 313.257812 198.148438 312.582031 197.59375 311.957031 196.96875 C 311.335938 196.347656 310.78125 195.671875 310.292969 194.941406 C 309.804688 194.210938 309.390625 193.4375 309.054688 192.625 C 308.71875 191.8125 308.464844 190.976562 308.292969 190.113281 C 308.121094 189.25 308.035156 188.378906 308.035156 187.5 C 308.035156 186.621094 308.121094 185.75 308.292969 184.886719 C 308.464844 184.023438 308.71875 183.1875 309.054688 182.375 C 309.390625 181.5625 309.804688 180.789062 310.292969 180.058594 C 310.78125 179.328125 311.335938 178.652344 311.957031 178.03125 C 312.582031 177.40625 313.257812 176.851562 313.988281 176.363281 C 314.71875 175.875 315.492188 175.464844 316.304688 175.125 C 317.117188 174.789062 317.953125 174.535156 318.816406 174.363281 C 319.679688 174.191406 320.550781 174.105469 321.429688 174.105469 L 361.605469 174.105469 C 362.488281 174.105469 363.359375 174.191406 364.21875 174.363281 C 365.082031 174.535156 365.917969 174.789062 366.730469 175.125 C 367.542969 175.464844 368.316406 175.875 369.046875 176.363281 C 369.777344 176.851562 370.457031 177.40625 371.078125 178.03125 C 371.699219 178.652344 372.253906 179.328125 372.742188 180.058594 C 373.230469 180.789062 373.644531 181.5625 373.980469 182.375 C 374.316406 183.1875 374.570312 184.023438 374.742188 184.886719 C 374.914062 185.75 375 186.621094 375 187.5 C 375 188.378906 374.914062 189.25 374.742188 190.113281 C 374.570312 190.976562 374.316406 191.8125 373.980469 192.625 C 373.644531 193.4375 373.230469 194.210938 372.742188 194.941406 C 372.253906 195.671875 371.699219 196.347656 371.078125 196.96875 C 370.457031 197.59375 369.777344 198.148438 369.046875 198.636719 C 368.316406 199.125 367.542969 199.535156 366.730469 199.875 C 365.917969 200.210938 365.082031 200.464844 364.21875 200.636719 C 363.359375 200.808594 362.488281 200.894531 361.605469 200.894531 Z M 361.605469 200.894531 " fill-opacity="1" fill-rule="nonzero"/><path fill="#091f2c" d="M 187.5 375 C 186.621094 375 185.75 374.914062 184.886719 374.742188 C 184.023438 374.570312 183.1875 374.316406 182.375 373.980469 C 181.5625 373.644531 180.789062 373.230469 180.058594 372.742188 C 179.328125 372.253906 178.652344 371.699219 178.03125 371.078125 C 177.40625 370.457031 176.851562 369.777344 176.363281 369.046875 C 175.875 368.316406 175.464844 367.542969 175.125 366.730469 C 174.789062 365.917969 174.535156 365.082031 174.363281 364.21875 C 174.191406 363.355469 174.105469 362.488281 174.105469 361.605469 L 174.105469 321.429688 C 174.105469 320.550781 174.191406 319.679688 174.363281 318.816406 C 174.535156 317.953125 174.789062 317.117188 175.125 316.304688 C 175.464844 315.492188 175.875 314.71875 176.363281 313.988281 C 176.851562 313.257812 177.40625 312.582031 178.03125 311.957031 C 178.652344 311.335938 179.328125 310.78125 180.058594 310.292969 C 180.789062 309.804688 181.5625 309.390625 182.375 309.054688 C 183.1875 308.71875 184.023438 308.464844 184.886719 308.292969 C 185.75 308.121094 186.621094 308.035156 187.5 308.035156 C 188.378906 308.035156 189.25 308.121094 190.113281 308.292969 C 190.976562 308.464844 191.8125 308.71875 192.625 309.054688 C 193.4375 309.390625 194.210938 309.804688 194.941406 310.292969 C 195.671875 310.78125 196.347656 311.335938 196.96875 311.957031 C 197.59375 312.582031 198.148438 313.257812 198.636719 313.988281 C 199.125 314.71875 199.535156 315.492188 199.875 316.304688 C 200.210938 317.117188 200.464844 317.953125 200.636719 318.816406 C 200.808594 319.679688 200.894531 320.550781 200.894531 321.429688 L 200.894531 361.605469 C 200.894531 362.488281 200.808594 363.355469 200.636719 364.21875 C 200.464844 365.082031 200.210938 365.917969 199.875 366.730469 C 199.535156 367.542969 199.125 368.316406 198.636719 369.046875 C 198.148438 369.777344 197.59375 370.457031 196.96875 371.078125 C 196.347656 371.699219 195.671875 372.253906 194.941406 372.742188 C 194.210938 373.230469 193.4375 373.644531 192.625 373.980469 C 191.8125 374.316406 190.976562 374.570312 190.113281 374.742188 C 189.25 374.914062 188.378906 375 187.5 375 Z M 187.5 375 " fill-opacity="1" fill-rule="nonzero"/><path fill="#091f2c" d="M 53.570312 200.894531 L 13.394531 200.894531 C 12.511719 200.894531 11.640625 200.808594 10.78125 200.636719 C 9.917969 200.464844 9.082031 200.210938 8.269531 199.875 C 7.457031 199.535156 6.683594 199.125 5.953125 198.636719 C 5.222656 198.148438 4.542969 197.59375 3.921875 196.96875 C 3.300781 196.347656 2.746094 195.671875 2.257812 194.941406 C 1.769531 194.210938 1.355469 193.4375 1.019531 192.625 C 0.683594 191.8125 0.429688 190.976562 0.257812 190.113281 C 0.0859375 189.25 0 188.378906 0 187.5 C 0 186.621094 0.0859375 185.75 0.257812 184.886719 C 0.429688 184.023438 0.683594 183.1875 1.019531 182.375 C 1.355469 181.5625 1.769531 180.789062 2.257812 180.058594 C 2.746094 179.328125 3.300781 178.652344 3.921875 178.03125 C 4.542969 177.40625 5.222656 176.851562 5.953125 176.363281 C 6.683594 175.875 7.457031 175.464844 8.269531 175.125 C 9.082031 174.789062 9.917969 174.535156 10.78125 174.363281 C 11.640625 174.191406 12.511719 174.105469 13.394531 174.105469 L 53.570312 174.105469 C 54.449219 174.105469 55.320312 174.191406 56.183594 174.363281 C 57.046875 174.535156 57.882812 174.789062 58.695312 175.125 C 59.507812 175.464844 60.28125 175.875 61.011719 176.363281 C 61.742188 176.851562 62.417969 177.40625 63.042969 178.03125 C 63.664062 178.652344 64.21875 179.328125 64.707031 180.058594 C 65.195312 180.789062 65.609375 181.5625 65.945312 182.375 C 66.28125 183.1875 66.535156 184.023438 66.707031 184.886719 C 66.878906 185.75 66.964844 186.621094 66.964844 187.5 C 66.964844 188.378906 66.878906 189.25 66.707031 190.113281 C 66.535156 190.976562 66.28125 191.8125 65.945312 192.625 C 65.609375 193.4375 65.195312 194.210938 64.707031 194.941406 C 64.21875 195.671875 63.664062 196.347656 63.042969 196.96875 C 62.417969 197.59375 61.742188 198.148438 61.011719 198.636719 C 60.28125 199.125 59.507812 199.535156 58.695312 199.875 C 57.882812 200.210938 57.046875 200.464844 56.183594 200.636719 C 55.320312 200.808594 54.449219 200.894531 53.570312 200.894531 Z M 53.570312 200.894531 " fill-opacity="1" fill-rule="nonzero"/><path fill="#091f2c" d="M 187.5 348.214844 C 184.871094 348.214844 182.242188 348.148438 179.613281 348.019531 C 176.988281 347.890625 174.363281 347.699219 171.746094 347.441406 C 169.128906 347.183594 166.519531 346.859375 163.917969 346.476562 C 161.316406 346.089844 158.726562 345.640625 156.144531 345.125 C 153.566406 344.613281 151 344.035156 148.449219 343.398438 C 145.898438 342.757812 143.363281 342.058594 140.847656 341.292969 C 138.332031 340.53125 135.832031 339.707031 133.355469 338.820312 C 130.878906 337.933594 128.425781 336.988281 125.996094 335.980469 C 123.566406 334.972656 121.164062 333.910156 118.785156 332.785156 C 116.40625 331.660156 114.058594 330.476562 111.738281 329.238281 C 109.421875 327.996094 107.132812 326.703125 104.875 325.347656 C 102.621094 323.996094 100.398438 322.589844 98.210938 321.128906 C 96.023438 319.667969 93.875 318.152344 91.761719 316.585938 C 89.648438 315.019531 87.578125 313.402344 85.542969 311.734375 C 83.511719 310.066406 81.519531 308.347656 79.570312 306.582031 C 77.621094 304.816406 75.71875 303.003906 73.859375 301.140625 C 71.996094 299.28125 70.183594 297.378906 68.417969 295.429688 C 66.652344 293.480469 64.933594 291.488281 63.265625 289.457031 C 61.597656 287.421875 59.980469 285.351562 58.414062 283.238281 C 56.847656 281.125 55.332031 278.976562 53.871094 276.789062 C 52.410156 274.601562 51.003906 272.378906 49.652344 270.125 C 48.296875 267.867188 47.003906 265.578125 45.761719 263.261719 C 44.523438 260.941406 43.339844 258.59375 42.214844 256.214844 C 41.089844 253.835938 40.027344 251.433594 39.019531 249.003906 C 38.011719 246.574219 37.066406 244.121094 36.179688 241.644531 C 35.292969 239.167969 34.46875 236.667969 33.707031 234.152344 C 32.941406 231.636719 32.242188 229.101562 31.601562 226.550781 C 30.964844 224 30.386719 221.433594 29.875 218.855469 C 29.359375 216.273438 28.910156 213.683594 28.523438 211.082031 C 28.140625 208.480469 27.816406 205.871094 27.558594 203.253906 C 27.300781 200.636719 27.109375 198.011719 26.980469 195.386719 C 26.851562 192.757812 26.785156 190.128906 26.785156 187.5 C 26.785156 184.871094 26.851562 182.242188 26.980469 179.613281 C 27.109375 176.988281 27.300781 174.363281 27.558594 171.746094 C 27.816406 169.128906 28.140625 166.519531 28.523438 163.917969 C 28.910156 161.316406 29.359375 158.726562 29.875 156.144531 C 30.386719 153.566406 30.964844 151 31.601562 148.449219 C 32.242188 145.898438 32.941406 143.363281 33.707031 140.847656 C 34.46875 138.332031 35.292969 135.832031 36.179688 133.355469 C 37.066406 130.878906 38.011719 128.425781 39.019531 125.996094 C 40.027344 123.566406 41.089844 121.164062 42.214844 118.785156 C 43.339844 116.40625 44.523438 114.058594 45.761719 111.738281 C 47.003906 109.421875 48.296875 107.132812 49.652344 104.875 C 51.003906 102.621094 52.410156 100.398438 53.871094 98.210938 C 55.332031 96.023438 56.847656 93.875 58.414062 91.761719 C 59.980469 89.648438 61.597656 87.578125 63.265625 85.542969 C 64.933594 83.511719 66.652344 81.519531 68.417969 79.570312 C 70.183594 77.621094 71.996094 75.71875 73.859375 73.859375 C 75.71875 71.996094 77.621094 70.183594 79.570312 68.417969 C 81.519531 66.652344 83.511719 64.933594 85.542969 63.265625 C 87.578125 61.597656 89.648438 59.980469 91.761719 58.414062 C 93.875 56.847656 96.023438 55.332031 98.210938 53.871094 C 100.398438 52.410156 102.621094 51.003906 104.875 49.652344 C 107.132812 48.296875 109.421875 47.003906 111.738281 45.761719 C 114.058594 44.523438 116.40625 43.339844 118.785156 42.214844 C 121.164062 41.089844 123.566406 40.027344 125.996094 39.019531 C 128.425781 38.011719 130.878906 37.066406 133.355469 36.179688 C 135.832031 35.292969 138.332031 34.46875 140.847656 33.707031 C 143.363281 32.941406 145.898438 32.242188 148.449219 31.601562 C 151 30.964844 153.566406 30.386719 156.144531 29.875 C 158.726562 29.359375 161.316406 28.910156 163.917969 28.523438 C 166.519531 28.140625 169.128906 27.816406 171.746094 27.558594 C 174.363281 27.300781 176.988281 27.109375 179.613281 26.980469 C 182.242188 26.851562 184.871094 26.785156 187.5 26.785156 C 190.128906 26.785156 192.757812 26.851562 195.386719 26.980469 C 198.011719 27.109375 200.636719 27.300781 203.253906 27.558594 C 205.871094 27.816406 208.480469 28.140625 211.082031 28.523438 C 213.683594 28.910156 216.273438 29.359375 218.855469 29.875 C 221.433594 30.386719 224 30.964844 226.550781 31.601562 C 229.101562 32.242188 231.636719 32.941406 234.152344 33.707031 C 236.667969 34.46875 239.167969 35.292969 241.644531 36.179688 C 244.121094 37.066406 246.574219 38.011719 249.003906 39.019531 C 251.433594 40.027344 253.835938 41.089844 256.214844 42.214844 C 258.59375 43.339844 260.941406 44.523438 263.261719 45.761719 C 265.578125 47.003906 267.867188 48.296875 270.125 49.652344 C 272.378906 51.003906 274.601562 52.410156 276.789062 53.871094 C 278.976562 55.332031 281.125 56.847656 283.238281 58.414062 C 285.351562 59.980469 287.421875 61.597656 289.457031 63.265625 C 291.488281 64.933594 293.480469 66.652344 295.429688 68.417969 C 297.378906 70.183594 299.28125 71.996094 301.140625 73.859375 C 303.003906 75.71875 304.816406 77.621094 306.582031 79.570312 C 308.347656 81.519531 310.066406 83.511719 311.734375 85.542969 C 313.402344 87.578125 315.019531 89.648438 316.585938 91.761719 C 318.152344 93.875 319.667969 96.023438 321.128906 98.210938 C 322.589844 100.398438 323.996094 102.621094 325.347656 104.875 C 326.703125 107.132812 327.996094 109.421875 329.238281 111.738281 C 330.476562 114.058594 331.660156 116.40625 332.785156 118.785156 C 333.910156 121.164062 334.972656 123.566406 335.980469 125.996094 C 336.988281 128.425781 337.933594 130.878906 338.820312 133.355469 C 339.707031 135.832031 340.53125 138.332031 341.292969 140.847656 C 342.058594 143.363281 342.757812 145.898438 343.398438 148.449219 C 344.035156 151 344.613281 153.566406 345.125 156.144531 C 345.640625 158.726562 346.089844 161.316406 346.476562 163.917969 C 346.859375 166.519531 347.183594 169.128906 347.441406 171.746094 C 347.699219 174.363281 347.890625 176.988281 348.019531 179.613281 C 348.148438 182.242188 348.214844 184.871094 348.214844 187.5 C 348.210938 190.128906 348.144531 192.757812 348.011719 195.382812 C 347.878906 198.007812 347.683594 200.628906 347.421875 203.246094 C 347.164062 205.863281 346.839844 208.472656 346.449219 211.074219 C 346.0625 213.671875 345.609375 216.261719 345.097656 218.839844 C 344.582031 221.417969 344.003906 223.984375 343.363281 226.535156 C 342.722656 229.082031 342.019531 231.617188 341.253906 234.132812 C 340.488281 236.648438 339.660156 239.144531 338.773438 241.617188 C 337.886719 244.09375 336.9375 246.546875 335.929688 248.972656 C 334.925781 251.402344 333.855469 253.804688 332.730469 256.183594 C 331.605469 258.558594 330.421875 260.90625 329.183594 263.222656 C 327.941406 265.542969 326.644531 267.828125 325.292969 270.082031 C 323.941406 272.339844 322.535156 274.558594 321.074219 276.746094 C 319.609375 278.929688 318.097656 281.078125 316.53125 283.191406 C 314.964844 285.300781 313.347656 287.375 311.675781 289.40625 C 310.007812 291.4375 308.292969 293.429688 306.527344 295.378906 C 304.761719 297.324219 302.949219 299.230469 301.089844 301.089844 C 299.230469 302.949219 297.324219 304.761719 295.378906 306.527344 C 293.429688 308.292969 291.4375 310.007812 289.40625 311.675781 C 287.375 313.347656 285.300781 314.964844 283.191406 316.53125 C 281.078125 318.097656 278.929688 319.609375 276.746094 321.074219 C 274.558594 322.535156 272.339844 323.941406 270.082031 325.292969 C 267.828125 326.644531 265.542969 327.941406 263.222656 329.183594 C 260.90625 330.421875 258.558594 331.605469 256.183594 332.730469 C 253.804688 333.855469 251.402344 334.925781 248.972656 335.929688 C 246.546875 336.9375 244.09375 337.886719 241.617188 338.773438 C 239.144531 339.660156 236.648438 340.488281 234.132812 341.253906 C 231.617188 342.019531 229.082031 342.722656 226.535156 343.363281 C 223.984375 344.003906 221.417969 344.582031 218.839844 345.097656 C 216.261719 345.609375 213.671875 346.0625 211.074219 346.449219 C 208.472656 346.839844 205.863281 347.164062 203.246094 347.421875 C 200.628906 347.683594 198.007812 347.878906 195.382812 348.011719 C 192.757812 348.144531 190.128906 348.210938 187.5 348.214844 Z M 187.5 53.570312 C 185.308594 53.570312 183.117188 53.625 180.929688 53.734375 C 178.738281 53.839844 176.554688 54 174.371094 54.214844 C 172.191406 54.429688 170.015625 54.699219 167.847656 55.019531 C 165.679688 55.34375 163.523438 55.71875 161.371094 56.144531 C 159.222656 56.574219 157.085938 57.050781 154.957031 57.585938 C 152.832031 58.117188 150.71875 58.703125 148.621094 59.339844 C 146.523438 59.972656 144.445312 60.660156 142.378906 61.398438 C 140.316406 62.140625 138.273438 62.925781 136.246094 63.765625 C 134.222656 64.605469 132.21875 65.492188 130.238281 66.429688 C 128.257812 67.367188 126.300781 68.351562 124.367188 69.386719 C 122.433594 70.417969 120.527344 71.5 118.648438 72.625 C 116.765625 73.753906 114.914062 74.925781 113.09375 76.140625 C 111.269531 77.359375 109.480469 78.621094 107.71875 79.925781 C 105.957031 81.234375 104.230469 82.582031 102.535156 83.972656 C 100.84375 85.363281 99.183594 86.792969 97.558594 88.265625 C 95.933594 89.738281 94.347656 91.25 92.796875 92.796875 C 91.25 94.347656 89.738281 95.933594 88.265625 97.558594 C 86.792969 99.183594 85.363281 100.84375 83.972656 102.535156 C 82.582031 104.230469 81.234375 105.957031 79.925781 107.71875 C 78.621094 109.480469 77.359375 111.269531 76.140625 113.09375 C 74.925781 114.914062 73.753906 116.765625 72.625 118.648438 C 71.5 120.527344 70.417969 122.433594 69.386719 124.367188 C 68.351562 126.300781 67.367188 128.257812 66.429688 130.238281 C 65.492188 132.21875 64.605469 134.222656 63.765625 136.246094 C 62.925781 138.273438 62.140625 140.316406 61.398438 142.378906 C 60.660156 144.445312 59.972656 146.523438 59.339844 148.621094 C 58.703125 150.71875 58.117188 152.832031 57.585938 154.957031 C 57.050781 157.085938 56.574219 159.222656 56.144531 161.371094 C 55.71875 163.523438 55.34375 165.679688 55.019531 167.847656 C 54.699219 170.015625 54.429688 172.191406 54.214844 174.371094 C 54 176.554688 53.839844 178.738281 53.734375 180.929688 C 53.625 183.117188 53.570312 185.308594 53.570312 187.5 C 53.570312 189.691406 53.625 191.882812 53.734375 194.070312 C 53.839844 196.261719 54 198.445312 54.214844 200.628906 C 54.429688 202.808594 54.699219 204.984375 55.019531 207.152344 C 55.34375 209.320312 55.71875 211.476562 56.144531 213.628906 C 56.574219 215.777344 57.050781 217.914062 57.585938 220.042969 C 58.117188 222.167969 58.703125 224.28125 59.339844 226.378906 C 59.972656 228.476562 60.660156 230.554688 61.398438 232.617188 C 62.140625 234.683594 62.925781 236.726562 63.765625 238.753906 C 64.605469 240.777344 65.492188 242.78125 66.429688 244.761719 C 67.367188 246.742188 68.351562 248.699219 69.386719 250.632812 C 70.417969 252.566406 71.5 254.472656 72.625 256.351562 C 73.753906 258.234375 74.925781 260.085938 76.140625 261.90625 C 77.359375 263.730469 78.621094 265.519531 79.925781 267.28125 C 81.234375 269.042969 82.582031 270.769531 83.972656 272.464844 C 85.363281 274.15625 86.792969 275.816406 88.265625 277.441406 C 89.738281 279.066406 91.25 280.652344 92.796875 282.203125 C 94.347656 283.75 95.933594 285.261719 97.558594 286.734375 C 99.183594 288.207031 100.84375 289.636719 102.535156 291.027344 C 104.230469 292.417969 105.957031 293.765625 107.71875 295.074219 C 109.480469 296.378906 111.269531 297.640625 113.09375 298.859375 C 114.914062 300.074219 116.765625 301.246094 118.648438 302.375 C 120.527344 303.5 122.433594 304.582031 124.367188 305.613281 C 126.300781 306.648438 128.257812 307.632812 130.238281 308.570312 C 132.21875 309.507812 134.222656 310.394531 136.246094 311.234375 C 138.273438 312.074219 140.316406 312.859375 142.378906 313.601562 C 144.445312 314.339844 146.523438 315.023438 148.621094 315.660156 C 150.71875 316.296875 152.832031 316.882812 154.957031 317.414062 C 157.085938 317.949219 159.222656 318.425781 161.371094 318.855469 C 163.523438 319.28125 165.679688 319.65625 167.847656 319.980469 C 170.015625 320.300781 172.191406 320.570312 174.371094 320.785156 C 176.554688 321 178.738281 321.160156 180.929688 321.265625 C 183.117188 321.375 185.308594 321.429688 187.5 321.429688 C 189.691406 321.429688 191.882812 321.375 194.070312 321.265625 C 196.261719 321.160156 198.445312 321 200.628906 320.785156 C 202.808594 320.570312 204.984375 320.300781 207.152344 319.980469 C 209.320312 319.65625 211.476562 319.28125 213.628906 318.855469 C 215.777344 318.425781 217.914062 317.949219 220.042969 317.414062 C 222.167969 316.882812 224.28125 316.296875 226.378906 315.660156 C 228.476562 315.023438 230.554688 314.339844 232.617188 313.601562 C 234.683594 312.859375 236.726562 312.074219 238.753906 311.234375 C 240.777344 310.394531 242.78125 309.507812 244.761719 308.570312 C 246.742188 307.632812 248.699219 306.648438 250.632812 305.613281 C 252.566406 304.582031 254.472656 303.5 256.351562 302.375 C 258.234375 301.246094 260.085938 300.074219 261.90625 298.859375 C 263.730469 297.640625 265.519531 296.378906 267.28125 295.074219 C 269.042969 293.765625 270.769531 292.417969 272.464844 291.027344 C 274.15625 289.636719 275.816406 288.207031 277.441406 286.734375 C 279.066406 285.261719 280.652344 283.75 282.203125 282.203125 C 283.75 280.652344 285.261719 279.066406 286.734375 277.441406 C 288.207031 275.816406 289.636719 274.15625 291.027344 272.464844 C 292.417969 270.769531 293.765625 269.042969 295.074219 267.28125 C 296.378906 265.519531 297.640625 263.730469 298.859375 261.90625 C 300.074219 260.085938 301.246094 258.234375 302.375 256.351562 C 303.5 254.472656 304.582031 252.566406 305.613281 250.632812 C 306.648438 248.699219 307.632812 246.742188 308.570312 244.761719 C 309.507812 242.78125 310.394531 240.777344 311.234375 238.753906 C 312.074219 236.726562 312.859375 234.683594 313.601562 232.617188 C 314.339844 230.554688 315.023438 228.476562 315.660156 226.378906 C 316.296875 224.28125 316.882812 222.167969 317.414062 220.042969 C 317.949219 217.914062 318.425781 215.777344 318.855469 213.628906 C 319.28125 211.476562 319.65625 209.320312 319.980469 207.152344 C 320.300781 204.984375 320.570312 202.808594 320.785156 200.628906 C 321 198.445312 321.160156 196.261719 321.265625 194.070312 C 321.375 191.882812 321.429688 189.691406 321.429688 187.5 C 321.425781 185.308594 321.371094 183.117188 321.261719 180.929688 C 321.148438 178.742188 320.988281 176.558594 320.769531 174.378906 C 320.554688 172.195312 320.28125 170.023438 319.960938 167.855469 C 319.636719 165.6875 319.261719 163.53125 318.832031 161.382812 C 318.402344 159.234375 317.917969 157.097656 317.386719 154.972656 C 316.851562 152.847656 316.265625 150.734375 315.628906 148.640625 C 314.992188 146.542969 314.300781 144.464844 313.5625 142.402344 C 312.824219 140.339844 312.035156 138.292969 311.195312 136.269531 C 310.355469 134.246094 309.464844 132.246094 308.527344 130.265625 C 307.589844 128.285156 306.605469 126.328125 305.570312 124.394531 C 304.535156 122.464844 303.457031 120.558594 302.328125 118.679688 C 301.203125 116.800781 300.03125 114.949219 298.8125 113.128906 C 297.59375 111.308594 296.332031 109.515625 295.027344 107.757812 C 293.722656 105.996094 292.371094 104.269531 290.984375 102.578125 C 289.59375 100.882812 288.160156 99.222656 286.691406 97.601562 C 285.21875 95.976562 283.707031 94.390625 282.15625 92.84375 C 280.609375 91.292969 279.023438 89.78125 277.398438 88.308594 C 275.777344 86.839844 274.117188 85.40625 272.421875 84.015625 C 270.730469 82.628906 269.003906 81.277344 267.242188 79.972656 C 265.484375 78.667969 263.691406 77.40625 261.871094 76.1875 C 260.050781 74.96875 258.199219 73.796875 256.320312 72.671875 C 254.441406 71.542969 252.535156 70.464844 250.605469 69.429688 C 248.671875 68.394531 246.714844 67.410156 244.734375 66.472656 C 242.753906 65.535156 240.753906 64.644531 238.730469 63.804688 C 236.707031 62.964844 234.660156 62.175781 232.597656 61.4375 C 230.535156 60.699219 228.457031 60.007812 226.359375 59.371094 C 224.265625 58.734375 222.152344 58.148438 220.027344 57.613281 C 217.902344 57.082031 215.765625 56.597656 213.617188 56.167969 C 211.46875 55.738281 209.3125 55.363281 207.144531 55.039062 C 204.976562 54.71875 202.804688 54.445312 200.621094 54.230469 C 198.441406 54.011719 196.257812 53.847656 194.070312 53.738281 C 191.882812 53.628906 189.691406 53.574219 187.5 53.570312 Z M 187.5 53.570312 " fill-opacity="1" fill-rule="nonzero"/><path fill="#091f2c" d="M 233.679688 231.644531 L 211.113281 224.128906 C 210.417969 223.886719 209.832031 223.484375 209.355469 222.917969 C 208.882812 222.351562 208.585938 221.707031 208.46875 220.976562 C 208.355469 220.25 208.433594 219.542969 208.707031 218.859375 C 208.980469 218.171875 209.410156 217.605469 209.996094 217.160156 C 211.390625 215.9375 212.714844 214.640625 213.964844 213.273438 C 215.214844 211.910156 216.390625 210.476562 217.484375 208.980469 C 218.582031 207.488281 219.589844 205.9375 220.519531 204.332031 C 221.445312 202.726562 222.28125 201.074219 223.027344 199.378906 C 223.769531 197.683594 224.421875 195.949219 224.980469 194.179688 C 225.535156 192.414062 225.996094 190.621094 226.355469 188.804688 C 226.714844 186.984375 226.976562 185.152344 227.136719 183.304688 C 227.296875 181.460938 227.359375 179.609375 227.316406 177.757812 C 227.433594 176.324219 227.484375 174.890625 227.460938 173.453125 C 227.441406 172.015625 227.351562 170.585938 227.191406 169.15625 C 227.027344 167.726562 226.800781 166.3125 226.5 164.90625 C 226.203125 163.5 225.835938 162.109375 225.40625 160.742188 C 224.972656 159.371094 224.472656 158.023438 223.910156 156.703125 C 223.34375 155.382812 222.71875 154.089844 222.027344 152.828125 C 221.339844 151.566406 220.589844 150.34375 219.78125 149.15625 C 218.972656 147.96875 218.109375 146.820312 217.1875 145.71875 C 216.269531 144.613281 215.296875 143.554688 214.273438 142.546875 C 213.25 141.539062 212.183594 140.578125 211.066406 139.675781 C 209.949219 138.769531 208.792969 137.917969 207.59375 137.125 C 206.398438 136.332031 205.164062 135.601562 203.894531 134.925781 C 202.621094 134.253906 201.324219 133.644531 199.996094 133.097656 C 198.664062 132.550781 197.3125 132.070312 195.9375 131.652344 C 194.5625 131.238281 193.167969 130.890625 191.757812 130.609375 C 190.351562 130.332031 188.929688 130.121094 187.5 129.976562 C 186.070312 130.121094 184.648438 130.332031 183.242188 130.609375 C 181.832031 130.890625 180.4375 131.238281 179.0625 131.652344 C 177.6875 132.070312 176.335938 132.550781 175.003906 133.097656 C 173.675781 133.644531 172.375 134.253906 171.105469 134.925781 C 169.835938 135.601562 168.601562 136.332031 167.40625 137.125 C 166.207031 137.917969 165.050781 138.769531 163.933594 139.675781 C 162.816406 140.578125 161.75 141.539062 160.726562 142.546875 C 159.703125 143.554688 158.730469 144.613281 157.8125 145.71875 C 156.890625 146.820312 156.027344 147.96875 155.21875 149.15625 C 154.410156 150.34375 153.660156 151.566406 152.972656 152.828125 C 152.28125 154.089844 151.65625 155.382812 151.089844 156.703125 C 150.527344 158.023438 150.027344 159.371094 149.59375 160.742188 C 149.160156 162.109375 148.796875 163.5 148.496094 164.90625 C 148.199219 166.3125 147.96875 167.726562 147.808594 169.15625 C 147.648438 170.585938 147.558594 172.015625 147.539062 173.453125 C 147.515625 174.890625 147.566406 176.324219 147.683594 177.757812 C 147.640625 179.609375 147.703125 181.460938 147.863281 183.304688 C 148.023438 185.152344 148.285156 186.984375 148.644531 188.804688 C 149.003906 190.621094 149.464844 192.414062 150.019531 194.183594 C 150.578125 195.949219 151.226562 197.683594 151.972656 199.378906 C 152.71875 201.074219 153.554688 202.726562 154.480469 204.332031 C 155.40625 205.9375 156.417969 207.488281 157.515625 208.984375 C 158.609375 210.476562 159.785156 211.910156 161.035156 213.273438 C 162.285156 214.640625 163.609375 215.9375 165.003906 217.160156 C 165.589844 217.605469 166.019531 218.171875 166.292969 218.859375 C 166.566406 219.542969 166.644531 220.25 166.527344 220.976562 C 166.414062 221.707031 166.117188 222.351562 165.640625 222.917969 C 165.167969 223.484375 164.582031 223.886719 163.886719 224.128906 L 141.320312 231.644531 C 138.574219 232.558594 135.957031 233.757812 133.472656 235.242188 C 130.988281 236.726562 128.695312 238.464844 126.589844 240.449219 C 124.484375 242.433594 122.617188 244.621094 120.988281 247.015625 C 119.359375 249.40625 118.007812 251.945312 116.933594 254.632812 L 112.234375 266.378906 C 112.113281 266.679688 112.011719 266.984375 111.929688 267.300781 C 111.847656 267.613281 111.785156 267.929688 111.738281 268.25 C 111.695312 268.570312 111.671875 268.894531 111.667969 269.21875 C 111.660156 269.542969 111.675781 269.867188 111.710938 270.1875 C 111.746094 270.511719 111.800781 270.828125 111.875 271.144531 C 111.949219 271.460938 112.039062 271.769531 112.152344 272.074219 C 112.261719 272.378906 112.394531 272.675781 112.539062 272.964844 C 112.6875 273.253906 112.851562 273.53125 113.035156 273.800781 C 113.214844 274.066406 113.414062 274.324219 113.625 274.570312 C 113.839844 274.8125 114.066406 275.042969 114.308594 275.261719 C 114.550781 275.476562 114.800781 275.675781 115.070312 275.863281 C 115.335938 276.050781 115.609375 276.21875 115.894531 276.371094 C 116.183594 276.523438 116.476562 276.65625 116.78125 276.773438 C 117.082031 276.886719 117.390625 276.984375 117.707031 277.0625 C 118.019531 277.140625 118.339844 277.199219 118.660156 277.238281 C 118.980469 277.277344 119.304688 277.296875 119.628906 277.296875 L 255.371094 277.296875 C 255.695312 277.296875 256.019531 277.277344 256.339844 277.238281 C 256.660156 277.199219 256.980469 277.140625 257.292969 277.0625 C 257.609375 276.984375 257.917969 276.886719 258.21875 276.769531 C 258.523438 276.65625 258.816406 276.523438 259.105469 276.371094 C 259.390625 276.21875 259.664062 276.050781 259.929688 275.863281 C 260.199219 275.675781 260.449219 275.476562 260.691406 275.261719 C 260.933594 275.042969 261.160156 274.8125 261.375 274.570312 C 261.585938 274.324219 261.785156 274.066406 261.964844 273.800781 C 262.148438 273.53125 262.3125 273.253906 262.460938 272.964844 C 262.605469 272.675781 262.738281 272.378906 262.847656 272.074219 C 262.960938 271.769531 263.050781 271.460938 263.125 271.144531 C 263.199219 270.828125 263.253906 270.511719 263.289062 270.1875 C 263.324219 269.867188 263.339844 269.542969 263.332031 269.21875 C 263.328125 268.894531 263.304688 268.570312 263.261719 268.25 C 263.214844 267.929688 263.152344 267.613281 263.070312 267.300781 C 262.988281 266.984375 262.886719 266.679688 262.765625 266.378906 L 258.066406 254.632812 C 256.992188 251.945312 255.640625 249.40625 254.011719 247.015625 C 252.382812 244.621094 250.515625 242.433594 248.410156 240.449219 C 246.304688 238.460938 244.007812 236.726562 241.527344 235.242188 C 239.042969 233.757812 236.425781 232.558594 233.679688 231.644531 Z M 233.679688 231.644531 " fill-opacity="1" fill-rule="nonzero"/><path fill="#091f2c" d="M 134.332031 177.789062 C 134.308594 184.316406 135.246094 190.699219 137.144531 196.941406 L 85.714844 196.941406 C 85.273438 196.941406 84.84375 196.886719 84.417969 196.777344 C 83.996094 196.671875 83.589844 196.511719 83.203125 196.308594 C 82.816406 196.101562 82.460938 195.851562 82.136719 195.558594 C 81.8125 195.261719 81.527344 194.933594 81.285156 194.570312 C 81.039062 194.207031 80.84375 193.820312 80.691406 193.410156 C 80.542969 192.996094 80.445312 192.574219 80.398438 192.136719 C 80.355469 191.703125 80.363281 191.269531 80.421875 190.835938 C 80.484375 190.402344 80.597656 189.980469 80.757812 189.574219 L 83.972656 181.671875 C 84.679688 179.855469 85.574219 178.140625 86.660156 176.519531 C 87.746094 174.902344 88.992188 173.421875 90.40625 172.078125 C 91.816406 170.734375 93.359375 169.5625 95.03125 168.5625 C 96.703125 167.558594 98.464844 166.75 100.3125 166.136719 L 115.578125 161.050781 C 116.050781 160.886719 116.441406 160.609375 116.757812 160.226562 C 117.074219 159.839844 117.265625 159.402344 117.339844 158.910156 C 117.410156 158.417969 117.347656 157.941406 117.148438 157.484375 C 116.953125 157.023438 116.65625 156.652344 116.25 156.359375 C 114.375 154.707031 112.703125 152.867188 111.226562 150.847656 C 109.753906 148.828125 108.511719 146.671875 107.507812 144.382812 C 106.5 142.09375 105.753906 139.722656 105.261719 137.273438 C 104.773438 134.820312 104.550781 132.34375 104.597656 129.84375 C 104.519531 128.878906 104.488281 127.910156 104.503906 126.941406 C 104.519531 125.972656 104.582031 125.003906 104.691406 124.042969 C 104.800781 123.078125 104.957031 122.125 105.15625 121.175781 C 105.359375 120.226562 105.609375 119.292969 105.902344 118.367188 C 106.195312 117.445312 106.535156 116.539062 106.914062 115.648438 C 107.296875 114.757812 107.722656 113.886719 108.1875 113.035156 C 108.65625 112.1875 109.164062 111.363281 109.710938 110.5625 C 110.257812 109.761719 110.839844 108.992188 111.464844 108.25 C 112.085938 107.503906 112.742188 106.792969 113.433594 106.117188 C 114.125 105.4375 114.847656 104.792969 115.605469 104.183594 C 116.359375 103.574219 117.140625 103.003906 117.949219 102.472656 C 118.761719 101.941406 119.59375 101.449219 120.453125 100.996094 C 121.308594 100.546875 122.1875 100.136719 123.085938 99.773438 C 123.980469 99.40625 124.894531 99.085938 125.824219 98.808594 C 126.753906 98.53125 127.695312 98.300781 128.644531 98.117188 C 129.597656 97.929688 130.554688 97.792969 131.519531 97.703125 C 132.417969 97.777344 133.3125 97.898438 134.203125 98.058594 C 135.089844 98.21875 135.96875 98.417969 136.839844 98.660156 C 137.710938 98.902344 138.566406 99.183594 139.410156 99.503906 C 140.253906 99.828125 141.082031 100.1875 141.890625 100.585938 C 142.703125 100.984375 143.492188 101.417969 144.261719 101.890625 C 145.03125 102.363281 145.777344 102.867188 146.5 103.410156 C 147.222656 103.949219 147.921875 104.523438 148.589844 105.128906 C 149.257812 105.738281 149.898438 106.371094 150.507812 107.039062 C 151.121094 107.703125 151.699219 108.394531 152.242188 109.113281 C 152.789062 109.835938 153.300781 110.578125 153.777344 111.34375 C 154.253906 112.109375 154.695312 112.898438 155.097656 113.707031 C 155.503906 114.515625 155.867188 115.339844 156.195312 116.179688 C 156.519531 117.023438 156.808594 117.878906 157.054688 118.746094 C 157.304688 119.613281 157.511719 120.492188 157.675781 121.378906 C 157.839844 122.265625 157.964844 123.160156 158.046875 124.058594 C 158.132812 124.960938 158.171875 125.859375 158.171875 126.761719 C 156.277344 128.289062 154.476562 129.921875 152.769531 131.652344 C 151.0625 133.382812 149.457031 135.207031 147.957031 137.121094 C 146.457031 139.039062 145.074219 141.03125 143.800781 143.101562 C 142.527344 145.175781 141.375 147.3125 140.34375 149.519531 C 139.316406 151.722656 138.414062 153.976562 137.640625 156.28125 C 136.867188 158.589844 136.230469 160.929688 135.722656 163.308594 C 135.21875 165.6875 134.847656 168.089844 134.613281 170.511719 C 134.382812 172.933594 134.285156 175.359375 134.332031 177.789062 Z M 134.332031 177.789062 " fill-opacity="1" fill-rule="nonzero"/><path fill="#091f2c" d="M 289.285156 196.941406 L 237.855469 196.941406 C 239.753906 190.699219 240.691406 184.316406 240.667969 177.789062 C 240.714844 175.359375 240.617188 172.933594 240.386719 170.511719 C 240.152344 168.089844 239.78125 165.691406 239.277344 163.3125 C 238.769531 160.933594 238.132812 158.589844 237.359375 156.285156 C 236.585938 153.976562 235.683594 151.722656 234.65625 149.519531 C 233.625 147.316406 232.472656 145.175781 231.203125 143.105469 C 229.929688 141.03125 228.542969 139.039062 227.042969 137.125 C 225.542969 135.207031 223.9375 133.386719 222.230469 131.652344 C 220.523438 129.921875 218.722656 128.289062 216.832031 126.761719 C 216.828125 125.859375 216.871094 124.960938 216.953125 124.058594 C 217.035156 123.160156 217.160156 122.269531 217.324219 121.378906 C 217.492188 120.492188 217.699219 119.613281 217.945312 118.746094 C 218.191406 117.878906 218.480469 117.023438 218.808594 116.179688 C 219.132812 115.339844 219.5 114.515625 219.902344 113.707031 C 220.304688 112.898438 220.746094 112.113281 221.222656 111.34375 C 221.699219 110.578125 222.210938 109.835938 222.757812 109.117188 C 223.304688 108.394531 223.882812 107.703125 224.492188 107.039062 C 225.101562 106.371094 225.742188 105.738281 226.410156 105.132812 C 227.082031 104.523438 227.777344 103.953125 228.5 103.410156 C 229.222656 102.867188 229.96875 102.363281 230.738281 101.890625 C 231.507812 101.417969 232.300781 100.984375 233.109375 100.585938 C 233.917969 100.1875 234.746094 99.828125 235.589844 99.503906 C 236.433594 99.183594 237.292969 98.902344 238.160156 98.660156 C 239.03125 98.417969 239.910156 98.21875 240.800781 98.058594 C 241.6875 97.898438 242.582031 97.777344 243.480469 97.703125 C 244.445312 97.792969 245.40625 97.933594 246.355469 98.117188 C 247.308594 98.300781 248.246094 98.53125 249.175781 98.808594 C 250.105469 99.085938 251.019531 99.40625 251.917969 99.773438 C 252.8125 100.136719 253.691406 100.546875 254.550781 100.996094 C 255.40625 101.449219 256.242188 101.941406 257.050781 102.472656 C 257.859375 103.003906 258.644531 103.574219 259.398438 104.183594 C 260.152344 104.792969 260.875 105.4375 261.566406 106.117188 C 262.257812 106.792969 262.914062 107.503906 263.539062 108.25 C 264.160156 108.992188 264.746094 109.761719 265.292969 110.5625 C 265.839844 111.363281 266.347656 112.1875 266.8125 113.039062 C 267.277344 113.886719 267.703125 114.757812 268.085938 115.648438 C 268.46875 116.539062 268.804688 117.445312 269.097656 118.371094 C 269.394531 119.292969 269.640625 120.230469 269.84375 121.175781 C 270.046875 122.125 270.203125 123.078125 270.3125 124.042969 C 270.421875 125.007812 270.480469 125.972656 270.496094 126.941406 C 270.511719 127.910156 270.480469 128.878906 270.402344 129.84375 C 270.449219 132.34375 270.230469 134.820312 269.738281 137.273438 C 269.25 139.722656 268.5 142.09375 267.496094 144.382812 C 266.488281 146.675781 265.25 148.828125 263.773438 150.847656 C 262.300781 152.867188 260.625 154.707031 258.75 156.363281 C 258.347656 156.652344 258.046875 157.023438 257.851562 157.484375 C 257.65625 157.941406 257.59375 158.417969 257.664062 158.910156 C 257.734375 159.402344 257.925781 159.839844 258.242188 160.226562 C 258.558594 160.609375 258.953125 160.886719 259.421875 161.050781 L 274.6875 166.136719 C 276.539062 166.75 278.296875 167.558594 279.96875 168.5625 C 281.640625 169.5625 283.183594 170.734375 284.59375 172.078125 C 286.007812 173.421875 287.253906 174.902344 288.339844 176.519531 C 289.425781 178.140625 290.320312 179.855469 291.027344 181.671875 L 294.242188 189.574219 C 294.40625 189.980469 294.515625 190.402344 294.578125 190.835938 C 294.640625 191.269531 294.644531 191.703125 294.601562 192.140625 C 294.554688 192.574219 294.457031 193 294.308594 193.410156 C 294.160156 193.820312 293.960938 194.207031 293.71875 194.574219 C 293.472656 194.9375 293.1875 195.265625 292.863281 195.558594 C 292.539062 195.851562 292.183594 196.101562 291.796875 196.308594 C 291.410156 196.515625 291.003906 196.671875 290.582031 196.777344 C 290.15625 196.886719 289.726562 196.941406 289.285156 196.941406 Z M 289.285156 196.941406 " fill-opacity="1" fill-rule="nonzero"/></svg>