<svg xmlns="http://www.w3.org/2000/svg" xmlns:xlink="http://www.w3.org/1999/xlink" width="1080" zoomAndPan="magnify" viewBox="0 0 810 809.999993" height="1080" preserveAspectRatio="xMidYMid meet" version="1.0"><defs><clipPath id="7b915bbe3b"><path d="M 295 569.746094 L 376.878906 569.746094 L 376.878906 659 L 295 659 Z M 295 569.746094 " clip-rule="nonzero"/></clipPath><clipPath id="9801518b16"><path d="M 621.582031 155.511719 L 809.632812 155.511719 L 809.632812 419.679688 L 621.582031 419.679688 Z M 621.582031 155.511719 " clip-rule="nonzero"/></clipPath></defs><path fill="#091f2c" d="M 274.785156 522.269531 L 234.351562 576.585938 C 225.78125 588.101562 228.1875 604.535156 239.703125 613.109375 L 242.542969 615.222656 C 247.199219 618.6875 252.65625 620.359375 258.078125 620.359375 C 266.058594 620.359375 273.957031 616.730469 279.0625 609.871094 L 319.496094 555.554688 C 328.070312 544.042969 325.660156 527.609375 314.144531 519.035156 L 311.308594 516.921875 C 306.652344 513.457031 301.191406 511.785156 295.773438 511.785156 C 287.789062 511.785156 279.890625 515.414062 274.785156 522.269531 " fill-opacity="1" fill-rule="nonzero"/><g clip-path="url(#7b915bbe3b)"><path fill="#091f2c" d="M 327.347656 579.316406 L 299.777344 616.351562 C 292.121094 626.632812 294.269531 641.308594 304.554688 648.960938 L 311.878906 654.414062 C 316.035156 657.507812 320.910156 659 325.746094 659 C 332.875 659 339.929688 655.761719 344.488281 649.636719 L 372.058594 612.597656 C 379.710938 602.320312 377.5625 587.644531 367.28125 579.992188 L 359.957031 574.535156 C 355.796875 571.445312 350.925781 569.953125 346.085938 569.953125 C 338.957031 569.953125 331.90625 573.191406 327.347656 579.316406 " fill-opacity="1" fill-rule="nonzero"/></g><path fill="#091f2c" d="M 179.898438 458.378906 L 168.777344 450.101562 C 165.042969 447.320312 160.664062 445.980469 156.316406 445.980469 C 149.910156 445.984375 143.574219 448.890625 139.480469 454.394531 L 120.921875 479.320312 C 114.042969 488.5625 115.976562 501.746094 125.214844 508.621094 L 136.335938 516.902344 C 140.070312 519.679688 144.449219 521.023438 148.796875 521.023438 C 155.199219 521.023438 161.535156 518.109375 165.632812 512.605469 L 184.191406 487.679688 C 191.066406 478.441406 189.136719 465.257812 179.898438 458.378906 " fill-opacity="1" fill-rule="nonzero"/><path fill="#091f2c" d="M 262.160156 462.238281 C 257.179688 458.527344 251.34375 456.738281 245.546875 456.742188 C 237.007812 456.742188 228.558594 460.621094 223.097656 467.957031 L 173.75 534.242188 C 164.582031 546.5625 167.15625 564.140625 179.472656 573.308594 C 184.453125 577.015625 190.292969 578.804688 196.089844 578.804688 C 203.792969 578.804688 211.417969 575.644531 216.847656 569.644531 C 217.664062 568.25 218.5625 566.886719 219.546875 565.566406 L 242.980469 534.089844 L 259.988281 511.25 C 261.152344 509.683594 262.425781 508.203125 263.785156 506.804688 L 267.882812 501.300781 C 277.050781 488.984375 274.476562 471.40625 262.160156 462.238281 " fill-opacity="1" fill-rule="nonzero"/><path fill="#091f2c" d="M 123.136719 152.945312 L 4.171875 365.824219 C 0.402344 372.570312 2.816406 381.09375 9.558594 384.863281 L 50.648438 407.824219 C 57.394531 411.59375 65.917969 409.183594 69.6875 402.4375 L 188.652344 189.558594 C 192.421875 182.8125 190.011719 174.289062 183.265625 170.515625 L 142.175781 147.554688 C 135.429688 143.785156 126.90625 146.199219 123.136719 152.945312 " fill-opacity="1" fill-rule="nonzero"/><g clip-path="url(#9801518b16)"><path fill="#091f2c" d="M 623.371094 199.402344 L 742.339844 412.28125 C 746.109375 419.027344 754.632812 421.4375 761.378906 417.667969 L 802.46875 394.707031 C 809.214844 390.9375 811.625 382.414062 807.855469 375.667969 L 688.894531 162.785156 C 685.121094 156.042969 676.601562 153.628906 669.851562 157.398438 L 628.761719 180.363281 C 622.015625 184.132812 619.605469 192.65625 623.371094 199.402344 " fill-opacity="1" fill-rule="nonzero"/></g><path fill="#091f2c" d="M 671.925781 487.804688 C 672.253906 477.980469 667.65625 468.636719 659.824219 462.699219 L 598.085938 415.914062 C 575.769531 400.1875 547.933594 382.171875 515.351562 362.367188 C 469.421875 334.441406 426.125 310.277344 406.054688 299.242188 C 402.921875 297.519531 399.25 297.066406 395.792969 297.972656 L 373.230469 303.886719 C 369.914062 304.757812 367.027344 306.796875 365.09375 309.628906 L 365.070312 309.667969 C 358.8125 318.835938 351.855469 327.25 344.382812 334.679688 C 335.613281 343.398438 326.308594 350.636719 316.730469 356.195312 C 305.230469 362.867188 293.398438 367.070312 281.550781 368.695312 C 278.929688 369.054688 276.292969 369.234375 273.71875 369.234375 C 264.421875 369.234375 255.761719 366.851562 248.675781 362.34375 C 239.597656 356.566406 233.769531 348.097656 231.835938 337.859375 C 229.59375 326.019531 232.660156 312.496094 241.207031 296.515625 C 247.226562 285.257812 254.730469 274.96875 260.210938 267.457031 C 261.558594 265.613281 262.71875 264.019531 263.648438 262.699219 C 267.425781 257.332031 271.828125 251.195312 276.757812 244.773438 C 278.015625 243.132812 276.6875 240.785156 274.632812 241.019531 C 264.273438 242.210938 240.835938 241.042969 203.972656 218.195312 C 200.695312 216.164062 196.386719 217.277344 194.503906 220.644531 L 92.3125 403.511719 C 90.167969 407.351562 90.6875 412.128906 93.609375 415.414062 L 120.703125 445.894531 C 121.078125 446.316406 121.496094 446.695312 121.953125 447.023438 L 124.671875 443.371094 C 128.398438 438.371094 133.328125 434.277344 138.929688 431.539062 C 144.304688 428.910156 150.316406 427.523438 156.316406 427.519531 C 160.457031 427.519531 164.546875 428.167969 168.472656 429.441406 C 172.542969 430.761719 176.355469 432.730469 179.800781 435.292969 L 190.921875 443.574219 C 195.179688 446.742188 198.695312 450.667969 201.367188 455.246094 C 201.996094 456.316406 202.574219 457.417969 203.09375 458.539062 C 203.785156 460.03125 205.820312 460.242188 206.800781 458.921875 L 208.277344 456.933594 C 212.660156 451.046875 218.449219 446.234375 225.039062 443.015625 C 231.375 439.917969 238.578125 438.28125 245.503906 438.28125 C 250.347656 438.28125 255.214844 439.039062 259.832031 440.539062 C 264.621094 442.09375 269.128906 444.410156 273.183594 447.425781 C 278.195312 451.160156 282.328125 455.777344 285.476562 461.15625 C 288.496094 466.328125 290.472656 471.964844 291.34375 477.910156 C 291.945312 482.039062 292 486.175781 291.503906 490.261719 C 291.300781 491.933594 292.617188 493.410156 294.300781 493.351562 C 294.800781 493.335938 295.300781 493.324219 295.804688 493.324219 C 300.417969 493.324219 305.097656 494.054688 309.535156 495.496094 C 314.140625 496.988281 318.433594 499.214844 322.328125 502.113281 L 325.167969 504.230469 C 339.089844 514.59375 345.222656 531.589844 342.453125 547.628906 C 342.101562 549.664062 343.699219 551.511719 345.769531 551.496094 C 345.882812 551.492188 345.992188 551.492188 346.105469 551.492188 C 350.492188 551.492188 354.820312 552.175781 358.980469 553.527344 C 363.296875 554.925781 367.324219 557.011719 370.976562 559.730469 L 378.304688 565.183594 C 396.804688 578.957031 400.636719 605.121094 386.863281 623.625 L 383.253906 628.472656 C 381.554688 630.753906 381.957031 634.027344 384.25 635.714844 C 384.652344 636.011719 385.09375 636.246094 385.5625 636.410156 C 393.78125 639.328125 473.003906 666.238281 495.394531 628.480469 C 496.863281 625.996094 495.871094 622.777344 493.277344 621.507812 L 419.375 585.367188 C 414.921875 583.1875 412.589844 578.105469 414.035156 573.367188 C 415.09375 569.90625 418.101562 566.773438 425.414062 566.460938 C 426.183594 566.429688 426.957031 566.601562 427.644531 566.960938 L 503.65625 606.621094 C 512.191406 611.078125 521.882812 612.941406 531.4375 611.757812 C 543.140625 610.308594 555.882812 604.277344 557 585.15625 C 557.292969 580.136719 554.707031 575.382812 550.359375 572.851562 L 455.515625 517.59375 C 451.808594 515.433594 449.8125 511.210938 450.519531 506.980469 C 451.1875 503.027344 453.304688 499 459.125 498.785156 C 461.03125 498.714844 462.914062 499.222656 464.5625 500.179688 L 564.230469 558.109375 C 569.234375 561.015625 574.96875 562.429688 580.75 562.160156 C 590.71875 561.699219 605.261719 558.671875 611.007812 545.691406 C 616.0625 534.28125 611.613281 520.882812 600.90625 514.460938 L 491.785156 448.988281 C 488.5625 447.054688 486.667969 443.488281 486.914062 439.738281 C 487.242188 434.792969 489.746094 429.191406 499.886719 430.8125 C 501.117188 431.007812 502.296875 431.453125 503.367188 432.09375 L 627.324219 505.980469 C 636.53125 511.46875 647.839844 512.382812 657.691406 508.160156 C 665.027344 505.019531 671.546875 499.050781 671.925781 487.804688 " fill-opacity="1" fill-rule="nonzero"/><path fill="#091f2c" d="M 717.234375 408.078125 L 613.78125 222.953125 C 612.957031 221.476562 611.222656 220.773438 609.601562 221.253906 C 602.171875 223.460938 592.882812 225.71875 591.535156 225.882812 C 587.539062 226.378906 583.523438 226.609375 579.515625 226.609375 C 565.890625 226.609375 552.277344 223.910156 539.414062 219.492188 C 509.4375 209.191406 472.167969 206.226562 438.925781 206.226562 C 414.332031 206.226562 391.949219 207.847656 376.335938 209.320312 C 363.472656 210.53125 350.984375 211.464844 338.519531 215.148438 C 326.808594 218.601562 316.789062 226.589844 308.613281 235.429688 C 306.453125 237.769531 304.335938 240.160156 302.253906 242.589844 C 293.875 252.382812 286.125 262.828125 278.746094 273.316406 C 267.9375 288.6875 233.410156 330.75 258.585938 346.769531 C 263.058594 349.613281 268.382812 350.773438 273.71875 350.773438 C 275.507812 350.773438 277.292969 350.644531 279.050781 350.402344 C 299.195312 347.644531 317.238281 335.636719 331.367188 321.585938 C 338.21875 314.773438 344.378906 307.242188 349.820312 299.261719 C 350.753906 297.894531 354.464844 289.722656 356.03125 289.3125 L 390.59375 280.25 L 402.148438 277.222656 C 402.457031 277.140625 402.773438 277.101562 403.089844 277.101562 C 403.699219 277.101562 404.304688 277.253906 404.855469 277.550781 C 422.671875 287.207031 578.019531 372.402344 667.160156 449.34375 C 667.167969 449.351562 667.175781 449.359375 667.183594 449.367188 C 668.410156 450.417969 670.222656 450.414062 671.46875 449.386719 L 717.027344 411.929688 C 717.824219 410.789062 717.914062 409.292969 717.234375 408.078125 " fill-opacity="1" fill-rule="nonzero"/></svg>