<svg xmlns="http://www.w3.org/2000/svg" xmlns:xlink="http://www.w3.org/1999/xlink" width="500" zoomAndPan="magnify" viewBox="0 0 375 374.999991" height="500" preserveAspectRatio="xMidYMid meet" version="1.0"><defs><clipPath id="289a2d5bfd"><path d="M 89 79 L 361 79 L 361 351.421875 L 89 351.421875 Z M 89 79 " clip-rule="nonzero"/></clipPath><clipPath id="4be82d0fcb"><path d="M 33 23.671875 L 375 23.671875 L 375 223 L 33 223 Z M 33 23.671875 " clip-rule="nonzero"/></clipPath></defs><g clip-path="url(#289a2d5bfd)"><path fill="#000000" d="M 224.921875 79.734375 C 150.039062 79.734375 89.09375 140.660156 89.09375 215.5625 C 89.09375 290.464844 150 351.390625 224.921875 351.390625 C 299.84375 351.390625 360.710938 290.464844 360.710938 215.5625 C 360.710938 140.660156 299.800781 79.734375 224.921875 79.734375 Z M 108.632812 215.5625 C 108.632812 184.960938 120.59375 157.164062 140.011719 136.355469 C 140.761719 136.789062 141.59375 137.339844 142.539062 138.011719 C 143.25 138.800781 143.527344 144.410156 143.171875 150.214844 L 143.171875 150.449219 L 143.25 150.6875 C 143.289062 150.804688 148.144531 162.691406 143.527344 172.207031 C 138.550781 182.472656 139.5 198.898438 142.066406 202.609375 C 144.277344 205.808594 155.488281 220.179688 157.105469 221.800781 C 158.328125 223.023438 162.117188 233.488281 162.472656 234.949219 C 162.828125 236.292969 170.050781 245.253906 177.710938 245.015625 C 182.171875 244.820312 187.34375 247.386719 190.738281 249.085938 C 192.511719 249.953125 193.699219 250.546875 194.527344 250.664062 C 194.84375 250.703125 195.316406 251.53125 195.75 252.28125 C 196.855469 254.136719 198.511719 256.980469 202.617188 259.269531 C 203.722656 259.902344 204.90625 260.535156 206.011719 261.128906 C 210.039062 263.339844 215.566406 266.378906 215.960938 267.367188 C 215.882812 267.679688 215.050781 268.628906 214.421875 269.378906 C 211.972656 272.183594 207.867188 276.882812 209.011719 283.238281 C 210.59375 292.003906 222.90625 302.429688 226.972656 305.035156 C 229.578125 306.730469 228.316406 324.660156 226.855469 327.894531 C 226.421875 328.84375 226.261719 330.226562 226.222656 331.726562 C 225.789062 331.726562 225.355469 331.804688 224.921875 331.804688 C 160.816406 331.882812 108.632812 279.683594 108.632812 215.5625 Z M 249.867188 329.121094 C 250.738281 328.132812 251.449219 327.265625 251.644531 326.910156 C 251.84375 326.632812 252.949219 326.039062 253.777344 325.605469 C 255.632812 324.617188 257.722656 323.472656 258.59375 322.050781 C 259.855469 320 263.882812 315.851562 265.617188 314.984375 C 267.828125 313.878906 281.722656 301.324219 282.59375 299.269531 C 284.761719 294.214844 287.761719 288.449219 289.5 287.070312 C 292.617188 284.582031 289.777344 280.039062 288.710938 278.34375 L 288.472656 277.988281 C 287.289062 276.011719 279.394531 275.183594 278.171875 275.421875 C 276.75 275.382812 270.039062 271.710938 269.566406 270.5625 C 269.566406 268.273438 263.09375 262.035156 261.316406 262.035156 C 260.605469 262.035156 256.5 261.128906 254.40625 258.5625 C 251.800781 255.363281 242.566406 253.269531 239.960938 253.269531 C 237.433594 253.269531 233.722656 252.757812 231.15625 251.570312 C 228.789062 250.503906 224.921875 252.007812 220.855469 253.78125 C 219.988281 254.179688 219.277344 254.492188 218.84375 254.613281 C 217.460938 255.007812 209.84375 253.386719 207.988281 252.597656 C 207.433594 252.164062 207.15625 249.085938 207.078125 247.582031 C 206.921875 245.570312 206.800781 244.386719 206.40625 243.714844 C 205.816406 242.726562 204.039062 242.175781 200.449219 241.265625 C 199.539062 241.027344 198.355469 240.753906 197.800781 240.554688 C 197.960938 240.003906 198.355469 239.09375 198.671875 238.382812 C 199.894531 235.539062 200.644531 233.605469 200.011719 232.34375 C 199.777344 231.867188 199.34375 231.554688 198.789062 231.394531 C 197.011719 231 194.644531 232.777344 192.117188 234.632812 C 191.011719 235.460938 189.277344 236.726562 188.800781 236.765625 C 187.261719 236.765625 184.261719 235.5 180.59375 233.289062 C 178.5 232.027344 180.90625 225.195312 182.09375 221.917969 C 182.683594 220.261719 183.078125 219.074219 183.199219 218.363281 C 183.277344 217.613281 187.105469 216.507812 192.671875 216.507812 C 194.210938 216.507812 196.300781 216.152344 198.355469 215.835938 C 200.171875 215.523438 202.066406 215.246094 203.210938 215.246094 C 204 215.246094 205.5 217.378906 206.40625 218.679688 C 207.90625 220.8125 209.050781 222.472656 210.632812 222.195312 C 212.800781 221.761719 212.644531 218.917969 212.527344 216.902344 C 212.488281 216.234375 212.449219 215.523438 212.488281 215.167969 C 212.683594 213.902344 215.566406 209.085938 217.894531 207.664062 C 220.738281 205.964844 224.488281 200.597656 223.5 197.949219 C 223.539062 196.765625 228.433594 193.488281 230.050781 192.382812 C 230.800781 191.871094 231.433594 191.4375 231.867188 191.121094 C 232.382812 190.726562 232.972656 190.410156 233.566406 190.09375 C 235.300781 189.144531 237.433594 188 237.433594 185.117188 C 237.433594 183.382812 242.800781 182.589844 246 182.117188 C 246.75 182 247.460938 181.921875 248.132812 181.800781 C 250.222656 181.445312 251.367188 180.894531 251.84375 179.984375 C 252.472656 178.839844 251.921875 177.539062 251.289062 176.078125 C 251.09375 175.640625 250.933594 175.207031 250.738281 174.734375 C 249.710938 172.050781 250.300781 170.191406 252.671875 168.535156 C 253.777344 167.746094 255.789062 167.507812 257.921875 167.269531 C 260.09375 167.035156 262.578125 166.71875 264.789062 165.808594 C 266.40625 165.140625 267.277344 164.347656 267.550781 163.324219 C 267.90625 161.941406 267 160.757812 266.210938 159.691406 C 265.894531 159.257812 265.539062 158.820312 265.34375 158.386719 C 264.15625 156.058594 262.066406 154.320312 260.683594 153.175781 C 259.933594 152.542969 259.183594 149.265625 258.75 147.292969 C 258.433594 145.988281 258.199219 144.84375 257.921875 144.09375 C 257.644531 143.34375 257.09375 142.832031 256.300781 142.554688 C 254.488281 141.921875 251.644531 142.832031 250.027344 143.660156 C 249.90625 143.265625 249.789062 142.59375 249.710938 142.160156 C 249.511719 140.933594 249.316406 139.789062 248.683594 139.117188 C 248.25 138.683594 247.300781 137.816406 246.15625 136.75 C 244.460938 135.210938 242.367188 133.273438 240.988281 131.894531 C 240.15625 131.0625 239.328125 130.945312 238.738281 131.0625 C 236.761719 131.300781 235.144531 133.710938 233.683594 136.15625 C 233.488281 136.472656 233.328125 136.75 233.210938 136.945312 C 230.683594 140.699219 230.328125 143.5 232.183594 144.84375 C 232.261719 144.921875 232.421875 145.554688 231.949219 146.816406 C 231.238281 148.714844 229.855469 150.136719 229.105469 150.136719 C 229.066406 150.136719 229.066406 150.136719 229.066406 150.136719 C 226.777344 149.9375 226.183594 153.015625 225.59375 156.058594 C 225.394531 157.164062 225.039062 158.941406 224.683594 159.570312 C 224.09375 159.097656 223.5 157.320312 223.578125 152.070312 L 223.578125 151.4375 C 223.578125 150.765625 223.382812 150.214844 222.949219 149.859375 C 222.238281 149.226562 221.25 149.304688 220.382812 149.382812 C 219.277344 149.503906 218.761719 149.464844 218.488281 149.070312 C 217.222656 147.054688 210.988281 144.605469 208.578125 143.738281 C 208.460938 140.382812 208.421875 136.828125 208.5 136.472656 C 209.25 135.40625 219.039062 128.734375 221.25 128.023438 C 224.367188 126.996094 232.066406 121.746094 233.605469 120.679688 C 234.988281 119.730469 235.183594 118.664062 235.066406 117.953125 C 234.710938 115.507812 230.328125 113.730469 228.394531 113.058594 C 226.894531 109.742188 224.683594 109.742188 221.882812 109.78125 C 220.5 109.820312 218.921875 109.820312 216.988281 109.503906 C 209.722656 108.28125 203.527344 108.003906 198.632812 108.714844 C 195.15625 109.1875 190.972656 108.320312 187.578125 107.609375 C 186.199219 107.332031 185.054688 107.097656 183.988281 106.976562 C 196.738281 102.160156 210.511719 99.398438 224.921875 99.398438 C 240.949219 99.398438 256.222656 102.675781 270.117188 108.558594 C 270.433594 109.664062 270.828125 110.769531 271.261719 111.796875 C 272.804688 115.152344 275.367188 121.074219 275.367188 125.417969 C 275.367188 129.800781 275.921875 134.417969 275.40625 135.800781 C 274.894531 137.183594 284.171875 147.527344 286.222656 147.804688 C 288.277344 148.082031 289.578125 146.777344 290.84375 144.726562 C 292.144531 142.671875 293.921875 140.34375 297.554688 137.5 C 300.394531 135.289062 306.789062 135.761719 309.433594 136.078125 C 313.34375 140.222656 316.972656 144.644531 320.289062 149.34375 C 319.699219 149.820312 319.183594 150.292969 318.789062 150.6875 C 317.132812 152.347656 312.394531 157.085938 312.949219 160.71875 C 313.5 164.347656 317.40625 168.8125 322.144531 171.339844 C 326.882812 173.867188 327.433594 178.605469 327.433594 179.433594 C 327.433594 180.261719 334.144531 184.449219 334.144531 184.449219 C 334.144531 184.449219 331.34375 190.015625 329.960938 190.015625 C 328.578125 190.015625 327.433594 195.582031 327.433594 197.832031 C 327.433594 200.082031 330.238281 203.953125 333.15625 206.28125 C 335.644531 208.21875 339.316406 204.109375 340.421875 202.769531 C 340.816406 206.164062 340.972656 209.640625 341.054688 213.113281 C 338.132812 213.152344 333.394531 215.246094 331.855469 216.589844 C 329.921875 218.246094 325.738281 231.910156 323.761719 233.328125 C 321.828125 234.710938 317.921875 253.425781 317.644531 255.363281 C 317.367188 257.21875 322.777344 271.710938 326.210938 272.734375 C 310.183594 300.886719 282.59375 321.894531 249.867188 329.121094 Z M 249.867188 329.121094 " fill-opacity="1" fill-rule="nonzero"/></g><g clip-path="url(#4be82d0fcb)"><path fill="#000000" d="M 365.25 52.25 C 359.84375 52.25 355.5 56.632812 355.5 62.003906 L 355.5 74.914062 C 319.894531 41.984375 274.066406 23.703125 225.316406 23.703125 C 174.039062 23.703125 125.84375 43.683594 89.605469 79.929688 C 54.15625 115.386719 34.183594 162.53125 33.394531 212.640625 C 33.316406 218.050781 37.617188 222.472656 42.988281 222.550781 C 43.027344 222.550781 43.105469 222.550781 43.144531 222.550781 C 48.472656 222.550781 52.816406 218.285156 52.894531 212.957031 C 53.605469 167.902344 71.527344 125.574219 103.382812 93.75 C 135.949219 61.175781 179.210938 43.25 225.277344 43.25 C 268.539062 43.25 309.277344 59.28125 341.050781 88.183594 L 329.25 88.183594 C 323.84375 88.183594 319.5 92.566406 319.5 97.9375 C 319.5 103.304688 323.882812 107.6875 329.25 107.6875 L 365.210938 107.6875 C 370.617188 107.6875 374.960938 103.304688 374.960938 97.9375 L 374.960938 62.003906 C 375 56.59375 370.617188 52.25 365.25 52.25 Z M 365.25 52.25 " fill-opacity="1" fill-rule="nonzero"/></g><path fill="#000000" d="M 32.761719 276.328125 L 2.132812 262.351562 C 1.144531 261.878906 0 262.628906 0 263.734375 L 0 306.496094 C 0 307.085938 0.355469 307.640625 0.90625 307.878906 L 31.539062 321.855469 C 32.527344 322.328125 33.671875 321.578125 33.671875 320.472656 L 33.671875 277.710938 C 33.671875 277.117188 33.316406 276.566406 32.761719 276.328125 Z M 32.761719 276.328125 " fill-opacity="1" fill-rule="nonzero"/><path fill="#000000" d="M 69.238281 249.003906 L 41.011719 236.132812 C 40.617188 235.9375 40.144531 235.9375 39.75 236.132812 L 11.566406 249.003906 C 10.382812 249.558594 10.382812 251.214844 11.566406 251.769531 L 39.75 264.679688 C 40.144531 264.878906 40.617188 264.878906 41.011719 264.679688 L 69.199219 251.769531 C 70.421875 251.257812 70.421875 249.558594 69.238281 249.003906 Z M 69.238281 249.003906 " fill-opacity="1" fill-rule="nonzero"/><path fill="#000000" d="M 78.632812 262.3125 L 48 276.289062 C 47.449219 276.527344 47.09375 277.078125 47.09375 277.671875 L 47.09375 320.433594 C 47.09375 321.539062 48.238281 322.289062 49.222656 321.816406 L 79.855469 307.835938 C 80.40625 307.601562 80.761719 307.046875 80.761719 306.457031 L 80.761719 263.695312 C 80.800781 262.589844 79.65625 261.878906 78.632812 262.3125 Z M 78.632812 262.3125 " fill-opacity="1" fill-rule="nonzero"/></svg>