<svg xmlns="http://www.w3.org/2000/svg" xmlns:xlink="http://www.w3.org/1999/xlink" width="1080" zoomAndPan="magnify" viewBox="0 0 810 809.999993" height="1080" preserveAspectRatio="xMidYMid meet" version="1.0"><defs><clipPath id="b8bffb0e9c"><path d="M 0 0 L 810 0 L 810 809.25 L 0 809.25 Z M 0 0 " clip-rule="nonzero"/></clipPath></defs><g clip-path="url(#b8bffb0e9c)"><path fill="#9d5646" d="M 810.75 404.125 C 810.75 403.878906 810.75 403.878906 810.75 403.628906 C 810.75 403.378906 810.75 403.378906 810.75 403.128906 C 810.75 402.878906 810.75 402.878906 810.5 402.632812 C 810.5 402.382812 810.5 402.382812 810.25 402.132812 C 810.25 401.882812 810.003906 401.882812 810.003906 401.636719 C 810.003906 401.386719 809.753906 401.386719 809.753906 401.136719 C 809.753906 401.136719 809.503906 400.886719 809.503906 400.886719 C 809.503906 400.636719 809.253906 400.636719 809.253906 400.390625 C 809.253906 400.390625 809.003906 400.140625 808.753906 400.140625 C 808.507812 400.140625 808.507812 399.890625 808.257812 399.890625 C 808.007812 399.890625 808.007812 399.640625 807.757812 399.640625 C 807.507812 399.640625 807.507812 399.390625 807.257812 399.390625 C 807.011719 399.390625 807.011719 399.390625 806.761719 399.144531 C 806.511719 399.144531 806.511719 399.144531 806.261719 398.894531 C 806.261719 398.894531 806.261719 398.894531 806.011719 398.894531 L 723.992188 386.933594 C 715.265625 225.480469 585.125 95.667969 423.574219 87.195312 L 411.359375 4.722656 C 411.359375 4.472656 411.359375 4.472656 411.109375 4.222656 C 411.109375 3.976562 411.109375 3.976562 410.859375 3.726562 C 410.859375 3.476562 410.609375 3.476562 410.609375 3.226562 C 410.609375 2.980469 410.359375 2.980469 410.359375 2.730469 C 410.359375 2.480469 410.113281 2.480469 410.113281 2.230469 C 410.113281 2.230469 409.863281 1.980469 409.863281 1.980469 C 409.613281 1.734375 409.613281 1.734375 409.363281 1.484375 C 409.363281 1.484375 409.113281 1.234375 409.113281 1.234375 C 408.863281 0.984375 408.863281 0.984375 408.617188 0.984375 C 408.617188 0.984375 408.367188 0.984375 408.367188 0.734375 C 408.117188 0.734375 407.867188 0.488281 407.617188 0.488281 C 407.617188 0.488281 407.371094 0.488281 407.371094 0.488281 C 407.121094 0.488281 406.871094 0.488281 406.621094 0.238281 C 406.371094 0.238281 406.371094 0.238281 406.121094 0.238281 C 406.121094 0.238281 406.121094 0.238281 405.875 0.238281 C 405.625 0.238281 405.625 0.238281 405.375 0.238281 C 405.125 0.238281 405.125 0.238281 404.875 0.238281 C 404.875 0.238281 404.875 0.238281 404.625 0.238281 C 404.378906 0.238281 404.378906 0.238281 404.378906 0.238281 C 404.128906 0.238281 403.878906 0.238281 403.628906 0.488281 C 403.628906 0.488281 403.378906 0.488281 403.378906 0.488281 C 403.132812 0.488281 402.882812 0.734375 402.632812 0.734375 C 402.632812 0.734375 402.382812 0.734375 402.382812 0.734375 C 402.132812 0.984375 401.882812 0.984375 401.636719 1.234375 C 401.636719 1.234375 401.386719 1.484375 401.386719 1.484375 C 401.136719 1.734375 401.136719 1.734375 400.886719 1.980469 C 400.886719 1.980469 400.636719 2.230469 400.636719 2.230469 C 400.636719 2.480469 400.386719 2.480469 400.386719 2.730469 C 400.386719 2.980469 400.140625 2.980469 400.140625 3.226562 C 400.140625 3.476562 399.890625 3.476562 399.890625 3.726562 C 399.890625 3.976562 399.890625 3.976562 399.640625 4.222656 C 399.640625 4.472656 399.640625 4.472656 399.390625 4.722656 L 387.425781 87.691406 C 226.621094 96.910156 97.480469 226.226562 88.753906 386.933594 L 4.738281 399.144531 C 4.738281 399.144531 4.738281 399.144531 4.488281 399.144531 C 4.238281 399.144531 4.238281 399.144531 3.988281 399.390625 C 3.738281 399.390625 3.738281 399.390625 3.488281 399.640625 C 3.242188 399.640625 3.242188 399.890625 2.992188 399.890625 C 2.742188 399.890625 2.742188 400.140625 2.492188 400.140625 C 2.242188 400.140625 2.242188 400.390625 1.996094 400.390625 C 1.746094 400.390625 1.746094 400.636719 1.496094 400.636719 C 1.246094 400.636719 1.246094 400.886719 1.246094 401.136719 C 1.246094 401.136719 0.996094 401.386719 0.996094 401.386719 C 0.996094 401.636719 0.746094 401.636719 0.746094 401.882812 C 0.746094 402.132812 0.5 402.132812 0.5 402.382812 C 0.5 402.632812 0.25 402.632812 0.25 402.878906 C 0.25 403.128906 0 403.128906 0 403.378906 C 0 403.628906 0 403.628906 0 403.878906 C 0 404.125 0 404.125 0 404.375 C 0 404.375 0 404.375 0 404.625 C 0 404.875 0 404.875 0 405.125 C 0 405.371094 0 405.371094 0 405.621094 C 0 405.621094 0 405.621094 0 405.871094 C 0 406.121094 0 406.121094 0 406.367188 C 0 406.617188 0 406.617188 0 406.867188 C 0 407.117188 0 407.117188 0.25 407.367188 C 0.25 407.613281 0.5 407.613281 0.5 407.863281 C 0.5 408.113281 0.746094 408.113281 0.746094 408.363281 C 0.746094 408.613281 0.996094 408.613281 0.996094 408.859375 C 0.996094 408.859375 1.246094 409.109375 1.246094 409.109375 C 1.246094 409.359375 1.496094 409.359375 1.746094 409.609375 C 1.746094 409.609375 1.996094 409.859375 2.242188 409.859375 C 2.492188 409.859375 2.492188 410.105469 2.742188 410.105469 C 2.992188 410.105469 2.992188 410.355469 3.242188 410.355469 C 3.488281 410.355469 3.488281 410.605469 3.738281 410.605469 C 3.988281 410.605469 3.988281 410.605469 4.238281 410.855469 C 4.488281 410.855469 4.488281 410.855469 4.738281 411.101562 C 4.738281 411.101562 4.738281 411.101562 4.984375 411.101562 L 89.003906 423.3125 C 97.726562 584.019531 226.871094 713.335938 387.671875 722.554688 L 400.390625 804.527344 C 400.390625 804.527344 400.390625 804.527344 400.390625 804.777344 C 400.390625 805.023438 400.390625 805.023438 400.390625 805.273438 C 400.390625 805.523438 400.390625 805.523438 400.636719 805.773438 C 400.636719 806.023438 400.636719 806.023438 400.886719 806.269531 C 400.886719 806.519531 401.136719 806.519531 401.136719 806.769531 C 401.136719 807.019531 401.386719 807.019531 401.386719 807.019531 C 401.386719 807.269531 401.636719 807.269531 401.636719 807.515625 C 401.636719 807.515625 401.886719 807.765625 401.886719 807.765625 C 402.132812 808.015625 402.132812 808.015625 402.382812 808.015625 C 402.382812 808.015625 402.632812 808.265625 402.632812 808.265625 C 402.882812 808.265625 402.882812 808.515625 403.132812 808.515625 C 403.378906 808.515625 403.378906 808.761719 403.628906 808.761719 C 403.878906 808.761719 403.878906 809.011719 404.128906 809.011719 C 404.378906 809.011719 404.378906 809.011719 404.628906 809.011719 C 404.875 809.011719 404.875 809.011719 405.125 809.011719 C 405.125 809.011719 405.375 809.011719 405.375 809.011719 C 405.625 809.011719 405.625 809.011719 405.875 809.011719 C 406.121094 809.011719 406.121094 809.011719 406.371094 809.011719 C 406.371094 809.011719 406.621094 809.011719 406.621094 809.011719 C 406.871094 809.011719 406.871094 809.011719 407.121094 809.011719 C 407.371094 809.011719 407.371094 809.011719 407.617188 808.761719 C 407.867188 808.761719 407.867188 808.761719 408.117188 808.515625 C 408.367188 808.515625 408.367188 808.265625 408.617188 808.265625 C 408.867188 808.265625 408.867188 808.015625 409.113281 808.015625 C 409.363281 808.015625 409.363281 807.765625 409.613281 807.765625 C 409.863281 807.765625 409.863281 807.515625 410.113281 807.515625 C 410.113281 807.515625 410.359375 807.269531 410.359375 807.269531 C 410.359375 807.019531 410.609375 807.019531 410.609375 806.769531 C 410.609375 806.769531 410.859375 806.519531 410.859375 806.519531 C 410.859375 806.269531 411.109375 806.269531 411.109375 806.023438 C 411.109375 805.773438 411.359375 805.773438 411.359375 805.523438 C 411.359375 805.273438 411.359375 805.273438 411.609375 805.023438 C 411.609375 804.777344 411.609375 804.777344 411.609375 804.527344 C 411.609375 804.527344 411.609375 804.527344 411.609375 804.277344 L 423.574219 721.308594 C 585.375 712.835938 715.265625 583.273438 723.992188 421.566406 L 806.011719 409.609375 C 806.011719 409.609375 806.011719 409.609375 806.261719 409.609375 C 806.511719 409.609375 806.511719 409.609375 806.761719 409.359375 C 807.011719 409.359375 807.011719 409.359375 807.261719 409.109375 C 807.507812 409.109375 807.507812 408.859375 807.757812 408.859375 C 808.007812 408.859375 808.007812 408.613281 808.257812 408.613281 C 808.507812 408.613281 808.507812 408.363281 808.753906 408.363281 C 809.003906 408.363281 809.003906 408.113281 809.253906 408.113281 C 809.503906 408.113281 809.503906 407.863281 809.503906 407.613281 C 809.503906 407.613281 809.753906 407.367188 809.753906 407.367188 C 809.753906 407.117188 810.003906 407.117188 810.003906 406.867188 C 810.003906 406.617188 810.25 406.617188 810.25 406.367188 C 810.25 406.121094 810.5 406.121094 810.5 405.871094 C 810.5 405.621094 810.75 405.621094 810.75 405.371094 C 810.75 405.121094 810.75 405.121094 810.75 404.875 C 810.75 404.625 810.75 404.625 810.75 404.375 C 810.75 404.375 810.75 404.375 810.75 404.125 C 810.75 403.878906 810.75 403.878906 810.75 403.628906 C 810.75 403.378906 810.75 404.375 810.75 404.125 Z M 503.601562 355.292969 L 574.65625 254.878906 C 603.824219 287.519531 623.519531 328.382812 629.753906 373.730469 Z M 445.761719 317.417969 C 446.011719 319.410156 447.257812 320.90625 449.003906 321.65625 C 450.75 322.402344 452.742188 322.152344 454.238281 321.15625 L 548.476562 254.628906 L 411.359375 391.667969 L 411.359375 179.882812 C 416.09375 179.882812 421.082031 180.132812 425.816406 180.628906 Z M 437.039062 181.625 C 482.160156 187.605469 523.046875 207.289062 555.707031 235.945312 L 455.238281 306.953125 Z M 411.359375 168.671875 L 411.359375 98.15625 C 412.105469 98.15625 413.105469 98.15625 413.851562 98.15625 L 424.074219 169.167969 C 419.835938 168.917969 415.597656 168.917969 411.359375 168.671875 Z M 356.511719 306.953125 L 257.035156 236.691406 C 289.199219 208.039062 329.835938 188.355469 374.710938 181.875 Z M 318.367188 364.757812 C 320.359375 364.511719 321.855469 363.265625 322.605469 361.519531 C 323.351562 359.777344 323.101562 357.78125 322.105469 356.289062 L 255.539062 262.105469 L 392.660156 399.144531 L 181.746094 399.144531 C 181.746094 394.160156 181.996094 389.425781 182.492188 384.691406 Z M 183.738281 373.230469 C 189.972656 328.632812 209.417969 288.265625 237.839844 255.875 L 308.144531 355.042969 Z M 170.777344 399.144531 L 100.222656 399.144531 C 100.222656 398.148438 100.222656 397.398438 100.222656 396.402344 L 171.273438 386.1875 C 171.023438 390.421875 170.777344 394.90625 170.777344 399.144531 Z M 308.144531 453.957031 L 237.839844 553.125 C 209.417969 520.734375 189.972656 480.371094 183.738281 435.769531 Z M 365.984375 492.082031 C 365.734375 490.085938 364.488281 488.59375 362.742188 487.84375 C 361.996094 487.59375 361.246094 487.347656 360.5 487.347656 C 359.503906 487.347656 358.253906 487.59375 357.257812 488.34375 L 263.269531 554.867188 L 376.953125 441.25 L 400.390625 417.832031 L 400.390625 629.617188 C 395.652344 629.367188 390.664062 629.117188 385.929688 628.867188 Z M 374.710938 627.375 C 329.835938 620.894531 289.445312 601.460938 257.035156 572.558594 L 356.511719 502.296875 Z M 400.390625 640.578125 L 400.390625 711.09375 C 399.640625 711.09375 398.644531 711.09375 397.894531 711.09375 L 387.425781 639.832031 C 391.914062 640.082031 396.152344 640.332031 400.390625 640.578125 Z M 455.238281 502.296875 L 555.707031 573.304688 C 523.046875 601.960938 482.160156 621.394531 437.035156 627.625 Z M 493.132812 444.492188 C 491.136719 444.738281 489.640625 445.984375 488.894531 447.730469 C 488.144531 449.472656 488.394531 451.46875 489.390625 452.960938 L 555.957031 547.144531 L 418.835938 410.105469 L 631.496094 410.105469 C 631.496094 414.839844 631.25 419.574219 630.75 424.308594 Z M 629.753906 435.519531 C 623.519531 480.867188 603.824219 521.730469 574.65625 554.371094 L 503.601562 453.957031 Z M 642.714844 410.105469 L 713.269531 410.105469 C 713.269531 410.855469 713.269531 411.601562 713.269531 412.347656 L 642.21875 422.5625 C 642.46875 418.578125 642.714844 414.34375 642.714844 410.105469 Z M 712.773438 385.6875 L 640.972656 375.222656 C 634.738281 325.640625 613.296875 280.792969 581.136719 245.660156 L 602.328125 216.011719 C 602.328125 215.761719 602.578125 215.761719 602.578125 215.511719 C 602.578125 215.261719 602.828125 215.261719 602.828125 215.015625 C 602.828125 214.765625 602.828125 214.765625 603.078125 214.515625 C 603.078125 214.265625 603.078125 214.265625 603.324219 214.015625 C 603.324219 213.769531 603.324219 213.769531 603.324219 213.519531 C 603.324219 213.269531 603.324219 213.269531 603.324219 213.019531 C 603.324219 212.773438 603.324219 212.773438 603.324219 212.523438 C 603.324219 212.273438 603.324219 212.273438 603.324219 212.023438 C 603.324219 211.773438 603.324219 211.773438 603.324219 211.527344 C 603.324219 211.277344 603.324219 211.277344 603.324219 211.027344 C 603.324219 210.777344 603.324219 210.777344 603.078125 210.527344 C 603.078125 210.28125 602.828125 210.28125 602.828125 210.03125 C 602.828125 210.03125 602.578125 209.78125 602.578125 209.78125 C 602.578125 209.53125 602.328125 209.53125 602.328125 209.285156 C 602.328125 209.285156 602.078125 209.035156 602.078125 209.035156 C 602.078125 209.035156 601.828125 208.785156 601.828125 208.785156 C 601.582031 208.785156 601.582031 208.535156 601.332031 208.535156 C 601.082031 208.535156 601.082031 208.285156 600.832031 208.285156 C 600.832031 208.285156 600.582031 208.285156 600.582031 208.039062 C 600.332031 208.039062 600.085938 207.789062 600.085938 207.789062 C 600.085938 207.789062 599.835938 207.789062 599.835938 207.789062 C 599.585938 207.789062 599.335938 207.539062 599.085938 207.539062 C 599.085938 207.539062 598.839844 207.539062 598.839844 207.539062 C 598.589844 207.539062 598.339844 207.539062 598.089844 207.539062 C 598.089844 207.539062 597.839844 207.539062 597.839844 207.539062 C 597.589844 207.539062 597.34375 207.539062 597.09375 207.539062 C 596.84375 207.539062 596.84375 207.539062 596.59375 207.539062 C 596.34375 207.539062 596.09375 207.539062 596.09375 207.789062 C 596.09375 207.789062 595.847656 208.039062 595.847656 208.039062 C 595.597656 208.039062 595.597656 208.285156 595.347656 208.285156 L 565.429688 229.464844 C 530.277344 197.820312 485.402344 176.394531 436.039062 170.414062 L 425.570312 98.65625 C 579.390625 107.875 703.296875 231.457031 712.773438 385.6875 Z M 411.359375 87.195312 L 411.359375 80.964844 L 412.355469 87.195312 C 411.855469 87.195312 411.609375 87.195312 411.359375 87.195312 Z M 386.675781 98.90625 L 376.207031 170.664062 C 327.09375 176.890625 282.714844 198.320312 247.8125 230.210938 L 216.898438 208.285156 C 216.648438 208.285156 216.648438 208.039062 216.398438 208.039062 C 216.148438 208.039062 216.148438 207.789062 215.902344 207.789062 C 215.652344 207.789062 215.652344 207.789062 215.402344 207.539062 C 215.152344 207.539062 215.152344 207.539062 214.902344 207.289062 C 214.65625 207.289062 214.65625 207.289062 214.40625 207.289062 C 214.15625 207.289062 214.15625 207.289062 213.90625 207.289062 C 213.65625 207.289062 213.65625 207.289062 213.40625 207.289062 C 213.160156 207.289062 213.160156 207.289062 212.910156 207.289062 C 212.660156 207.289062 212.660156 207.289062 212.410156 207.289062 C 212.160156 207.289062 212.160156 207.289062 211.910156 207.289062 C 211.664062 207.289062 211.664062 207.539062 211.414062 207.539062 C 211.164062 207.539062 211.164062 207.539062 210.914062 207.789062 C 210.664062 207.789062 210.664062 208.039062 210.417969 208.039062 C 210.167969 208.039062 210.167969 208.285156 209.917969 208.285156 C 209.667969 208.285156 209.667969 208.535156 209.667969 208.535156 C 209.667969 208.535156 209.417969 208.785156 209.417969 208.785156 C 209.167969 209.035156 209.167969 209.035156 209.167969 209.285156 C 209.167969 209.285156 208.921875 209.53125 208.921875 209.53125 C 208.921875 209.78125 208.671875 209.78125 208.671875 210.03125 C 208.671875 210.28125 208.421875 210.28125 208.421875 210.527344 C 208.421875 210.777344 208.421875 210.777344 208.421875 211.027344 C 208.421875 211.277344 208.421875 211.277344 208.421875 211.527344 C 208.421875 211.773438 208.421875 211.773438 208.421875 212.023438 C 208.421875 212.273438 208.421875 212.273438 208.421875 212.523438 C 208.421875 212.773438 208.421875 212.773438 208.421875 213.019531 C 208.421875 213.269531 208.421875 213.269531 208.421875 213.519531 C 208.421875 213.769531 208.421875 213.769531 208.671875 214.015625 C 208.671875 214.265625 208.671875 214.265625 208.921875 214.515625 C 208.921875 214.765625 209.167969 214.765625 209.167969 215.015625 C 209.167969 215.261719 209.417969 215.261719 209.417969 215.511719 L 231.359375 246.40625 C 199.945312 281.289062 178.753906 325.640625 172.519531 374.476562 L 100.71875 384.941406 C 110.195312 231.957031 233.351562 108.871094 386.675781 98.90625 Z M 89.253906 398.148438 C 89.253906 398.394531 89.253906 398.894531 89.253906 399.144531 L 82.273438 399.144531 Z M 100.71875 423.808594 L 172.519531 434.273438 C 178.753906 483.109375 199.945312 527.460938 231.359375 562.34375 L 209.417969 593.238281 C 209.417969 593.488281 209.167969 593.488281 209.167969 593.738281 C 209.167969 593.988281 208.921875 593.988281 208.921875 594.234375 C 208.921875 594.484375 208.921875 594.484375 208.671875 594.734375 C 208.671875 594.984375 208.671875 594.984375 208.421875 595.234375 C 208.421875 595.480469 208.421875 595.480469 208.421875 595.730469 C 208.421875 595.980469 208.421875 595.980469 208.421875 596.230469 C 208.421875 596.476562 208.421875 596.476562 208.421875 596.726562 C 208.421875 596.976562 208.421875 596.976562 208.421875 597.226562 C 208.421875 597.476562 208.421875 597.476562 208.421875 597.722656 C 208.421875 597.972656 208.421875 597.972656 208.421875 598.222656 C 208.421875 598.472656 208.421875 598.472656 208.671875 598.722656 C 208.671875 598.96875 208.921875 598.96875 208.921875 599.21875 C 208.921875 599.21875 209.167969 599.46875 209.167969 599.46875 C 209.167969 599.71875 209.417969 599.71875 209.417969 599.96875 C 209.417969 599.96875 209.667969 600.214844 209.667969 600.214844 C 209.667969 600.214844 209.917969 600.464844 209.917969 600.464844 C 209.917969 600.464844 210.167969 600.714844 210.167969 600.714844 C 210.417969 600.714844 210.417969 600.964844 210.664062 600.964844 C 210.664062 600.964844 210.914062 600.964844 210.914062 601.210938 C 211.164062 601.210938 211.164062 601.460938 211.414062 601.460938 C 211.664062 601.460938 211.664062 601.460938 211.910156 601.460938 C 212.160156 601.460938 212.160156 601.460938 212.410156 601.460938 C 212.660156 601.460938 212.660156 601.460938 212.910156 601.460938 C 213.160156 601.460938 213.160156 601.460938 213.40625 601.460938 C 213.40625 601.460938 213.40625 601.460938 213.65625 601.460938 C 213.90625 601.460938 214.15625 601.460938 214.15625 601.460938 C 214.40625 601.460938 214.40625 601.460938 214.65625 601.460938 C 214.902344 601.460938 215.152344 601.460938 215.152344 601.210938 C 215.402344 601.210938 215.402344 601.210938 215.652344 600.964844 C 215.902344 600.964844 215.902344 600.714844 216.148438 600.714844 C 216.398438 600.714844 216.398438 600.464844 216.648438 600.464844 L 247.5625 578.539062 C 282.464844 610.183594 326.84375 631.609375 375.957031 638.089844 L 386.425781 709.847656 C 233.351562 700.378906 110.195312 577.292969 100.71875 423.808594 Z M 400.390625 722.054688 L 400.390625 728.285156 L 399.390625 722.054688 C 399.890625 722.054688 400.140625 722.054688 400.390625 722.054688 Z M 424.820312 710.59375 L 435.292969 638.835938 C 484.65625 632.855469 529.53125 611.675781 564.683594 579.785156 L 594.601562 600.964844 C 594.847656 600.964844 594.847656 601.210938 595.097656 601.210938 C 595.347656 601.210938 595.347656 601.460938 595.597656 601.460938 C 595.847656 601.460938 595.847656 601.460938 596.097656 601.710938 C 596.34375 601.710938 596.34375 601.960938 596.59375 601.960938 C 596.84375 601.960938 596.84375 601.960938 597.09375 601.960938 C 597.34375 601.960938 597.589844 601.960938 597.589844 601.960938 C 597.589844 601.960938 597.589844 601.960938 597.839844 601.960938 C 598.089844 601.960938 598.089844 601.960938 598.339844 601.960938 C 598.589844 601.960938 598.589844 601.960938 598.839844 601.960938 C 599.085938 601.960938 599.085938 601.960938 599.335938 601.960938 C 599.585938 601.960938 599.585938 601.960938 599.835938 601.960938 C 600.085938 601.960938 600.085938 601.710938 600.335938 601.710938 C 600.582031 601.710938 600.582031 601.710938 600.832031 601.460938 C 601.082031 601.460938 601.082031 601.210938 601.332031 601.210938 C 601.582031 601.210938 601.582031 600.964844 601.582031 600.964844 C 601.832031 600.964844 601.832031 600.714844 601.832031 600.714844 C 601.832031 600.714844 602.078125 600.464844 602.078125 600.464844 C 602.328125 600.214844 602.328125 600.214844 602.328125 599.964844 C 602.328125 599.964844 602.578125 599.71875 602.578125 599.71875 C 602.578125 599.46875 602.828125 599.46875 602.828125 599.21875 C 602.828125 598.96875 603.078125 598.96875 603.078125 598.71875 C 603.078125 598.472656 603.078125 598.472656 603.078125 598.222656 C 603.078125 597.972656 603.078125 597.972656 603.078125 597.722656 C 603.078125 597.476562 603.078125 597.476562 603.078125 597.226562 C 603.078125 596.976562 603.078125 596.976562 603.078125 596.726562 C 603.078125 596.476562 603.078125 596.476562 603.078125 596.230469 C 603.078125 595.980469 603.078125 595.980469 603.078125 595.730469 C 603.078125 595.480469 603.078125 595.480469 602.828125 595.230469 C 602.828125 594.984375 602.828125 594.984375 602.578125 594.734375 C 602.578125 594.484375 602.328125 594.484375 602.328125 594.234375 C 602.328125 593.984375 602.078125 593.984375 602.078125 593.738281 L 580.886719 564.085938 C 613.050781 528.957031 634.488281 484.105469 640.722656 434.523438 L 712.523438 424.058594 C 703.296875 577.792969 579.390625 701.375 424.820312 710.59375 Z M 724.238281 410.855469 C 724.238281 410.605469 724.238281 410.355469 724.238281 410.105469 L 729.476562 410.105469 Z M 724.238281 410.855469 " fill-opacity="1" fill-rule="nonzero"/></g></svg>