<svg xmlns="http://www.w3.org/2000/svg" xmlns:xlink="http://www.w3.org/1999/xlink" width="587" zoomAndPan="magnify" viewBox="0 0 440.25 467.249983" height="623" preserveAspectRatio="xMidYMid meet" version="1.0"><defs><filter x="0%" y="0%" width="100%" height="100%" id="e2bd8c7171"><feColorMatrix values="0 0 0 0 1 0 0 0 0 1 0 0 0 0 1 0 0 0 1 0" color-interpolation-filters="sRGB"/></filter><mask id="0c7a1a6ff5"><g filter="url(#e2bd8c7171)"><rect x="-44.025" width="528.3" fill="#000000" y="-46.724998" height="560.69998" fill-opacity="0.2"/></g></mask><clipPath id="de5118117a"><path d="M 0.925781 209.550781 L 97.339844 209.550781 L 97.339844 217.433594 L 0.925781 217.433594 Z M 0.925781 209.550781 " clip-rule="nonzero"/></clipPath><clipPath id="e1d8ab331a"><path d="M 152.152344 209.550781 L 248.566406 209.550781 L 248.566406 217.433594 L 152.152344 217.433594 Z M 152.152344 209.550781 " clip-rule="nonzero"/></clipPath><clipPath id="549a8aa523"><path d="M 0.925781 0.5 L 86.773438 0.5 L 86.773438 78 L 0.925781 78 Z M 0.925781 0.5 " clip-rule="nonzero"/></clipPath><clipPath id="42224e6a66"><path d="M 163 31 L 248.574219 31 L 248.574219 110 L 163 110 Z M 163 31 " clip-rule="nonzero"/></clipPath><clipPath id="3cc32dfa8f"><rect x="0" width="249" y="0" height="218"/></clipPath></defs><g mask="url(#0c7a1a6ff5)"><g transform="matrix(1, 0, 0, 1, 95, 15)"><g clip-path="url(#3cc32dfa8f)"><path fill="#8a391b" d="M 93.332031 167.996094 C 93.136719 167.996094 92.945312 168.1875 92.75 168.382812 C 83.859375 173.414062 70.132812 172.835938 69.746094 172.835938 L 45.96875 172.835938 C 44.808594 172.835938 43.648438 173.414062 42.875 174.382812 L 26.636719 196.832031 C 26.441406 197.21875 26.25 197.605469 26.054688 197.992188 L 19.675781 197.992188 C 17.550781 197.992188 15.808594 199.738281 15.808594 201.867188 C 15.808594 203.992188 17.550781 205.738281 19.675781 205.738281 L 102.996094 205.738281 C 105.316406 209.414062 110.925781 215.414062 123.101562 215.414062 C 123.683594 215.414062 124.070312 215.414062 124.648438 215.414062 C 137.988281 215.996094 144.175781 209.605469 146.496094 205.738281 L 229.816406 205.738281 C 231.941406 205.738281 233.679688 203.992188 233.679688 201.867188 C 233.679688 199.738281 231.941406 197.992188 229.816406 197.992188 L 223.242188 197.992188 C 223.046875 197.605469 222.855469 197.21875 222.660156 196.832031 L 206.421875 174.382812 C 205.648438 173.414062 204.488281 172.835938 203.332031 172.835938 L 179.359375 172.835938 C 179.164062 172.835938 165.632812 173.414062 156.546875 168.1875 C 156.351562 167.996094 156.160156 167.996094 155.964844 167.800781 C 155.386719 167.609375 143.59375 163.546875 133.347656 168.578125 C 129.867188 170.320312 126.96875 172.835938 124.839844 175.929688 C 122.523438 172.640625 119.816406 170.125 116.335938 168.578125 C 105.703125 163.738281 93.910156 167.800781 93.332031 167.996094 Z M 112.664062 175.738281 C 116.53125 177.675781 119.234375 181.15625 120.976562 186.191406 C 120.976562 186.191406 120.976562 186.382812 121.171875 186.382812 C 121.171875 186.578125 121.363281 186.578125 121.363281 186.769531 C 121.363281 186.964844 121.554688 186.964844 121.554688 187.15625 C 121.554688 187.351562 121.75 187.351562 121.75 187.542969 C 121.75 187.738281 121.941406 187.738281 121.941406 187.738281 C 121.941406 187.738281 122.136719 187.929688 122.136719 187.929688 C 122.136719 187.929688 122.328125 188.125 122.328125 188.125 C 122.523438 188.125 122.523438 188.316406 122.714844 188.316406 C 122.910156 188.316406 122.910156 188.316406 123.101562 188.511719 C 123.101562 188.511719 123.296875 188.511719 123.296875 188.703125 C 123.296875 188.703125 123.296875 188.703125 123.488281 188.703125 C 123.683594 188.703125 123.683594 188.703125 123.875 188.703125 C 124.070312 188.703125 124.070312 188.703125 124.261719 188.703125 C 124.457031 188.703125 124.457031 188.703125 124.648438 188.703125 C 124.839844 188.703125 124.839844 188.703125 125.035156 188.703125 C 125.226562 188.703125 125.226562 188.703125 125.421875 188.703125 C 125.613281 188.703125 125.613281 188.703125 125.808594 188.703125 C 125.808594 188.703125 125.808594 188.703125 126 188.703125 C 126.195312 188.703125 126.195312 188.703125 126.195312 188.511719 C 126.390625 188.511719 126.390625 188.511719 126.582031 188.316406 C 126.777344 188.316406 126.777344 188.125 126.96875 188.125 C 126.96875 188.125 127.164062 187.929688 127.164062 187.929688 C 127.355469 187.929688 127.355469 187.738281 127.355469 187.738281 C 127.355469 187.738281 127.550781 187.542969 127.550781 187.542969 C 127.550781 187.542969 127.742188 187.351562 127.742188 187.15625 C 127.742188 186.964844 127.9375 186.964844 127.9375 186.769531 C 127.9375 186.578125 128.128906 186.578125 128.128906 186.382812 C 128.128906 186.382812 128.128906 186.191406 128.320312 186.191406 C 130.0625 181.15625 132.769531 177.675781 136.636719 175.929688 C 143.402344 172.640625 151.519531 174.964844 153.066406 175.351562 C 164.085938 181.542969 179.164062 180.769531 179.550781 180.769531 L 201.394531 180.769531 L 214.152344 198.1875 L 144.175781 198.1875 C 142.628906 198.1875 141.082031 199.15625 140.5 200.703125 C 140.308594 201.09375 137.410156 208.445312 124.648438 207.867188 C 124.457031 207.867188 124.457031 207.867188 124.261719 207.867188 C 111.695312 208.445312 108.796875 201.09375 108.601562 200.898438 C 108.023438 199.351562 106.671875 198.1875 104.929688 198.1875 L 35.144531 198.1875 L 47.902344 180.769531 L 69.554688 180.769531 C 70.132812 180.769531 85.210938 181.542969 96.230469 175.351562 C 97.777344 174.578125 106.089844 172.449219 112.664062 175.738281 Z M 112.664062 175.738281 " fill-opacity="1" fill-rule="nonzero"/><g clip-path="url(#de5118117a)"><path fill="#8a391b" d="M 4.792969 217.347656 L 93.136719 217.347656 C 95.261719 217.347656 97.003906 215.605469 97.003906 213.480469 C 97.003906 211.347656 95.261719 209.605469 93.136719 209.605469 L 4.792969 209.605469 C 2.664062 209.605469 0.925781 211.347656 0.925781 213.480469 C 0.925781 215.605469 2.664062 217.347656 4.792969 217.347656 Z M 4.792969 217.347656 " fill-opacity="1" fill-rule="nonzero"/></g><g clip-path="url(#e1d8ab331a)"><path fill="#8a391b" d="M 244.503906 209.605469 L 156.160156 209.605469 C 154.035156 209.605469 152.292969 211.347656 152.292969 213.480469 C 152.292969 215.605469 154.035156 217.347656 156.160156 217.347656 L 244.503906 217.347656 C 246.632812 217.347656 248.371094 215.605469 248.371094 213.480469 C 248.371094 211.347656 246.632812 209.605469 244.503906 209.605469 Z M 244.503906 209.605469 " fill-opacity="1" fill-rule="nonzero"/></g><g clip-path="url(#549a8aa523)"><path fill="#8a391b" d="M 43.453125 0.585938 C 20.0625 0.585938 0.925781 15.679688 0.925781 34.070312 C 0.925781 50.324219 15.425781 64.066406 35.53125 66.96875 C 39.589844 71.808594 50.027344 78 61.628906 78 C 65.300781 78 68.972656 77.421875 72.839844 75.871094 C 74.386719 75.289062 75.546875 73.550781 75.351562 71.808594 C 75.160156 70.066406 73.804688 68.710938 72.066406 68.324219 C 69.359375 67.9375 66.652344 66.195312 65.109375 64.066406 C 64.914062 63.679688 64.722656 63.488281 64.527344 63.097656 C 77.867188 57.292969 86.179688 46.066406 86.179688 33.871094 C 85.984375 15.679688 66.847656 0.585938 43.453125 0.585938 Z M 58.726562 57.097656 C 57.375 57.484375 56.601562 58.648438 56.214844 60 C 55.632812 62.710938 56.40625 65.808594 58.34375 68.710938 C 58.726562 69.289062 59.113281 69.875 59.5 70.261719 C 49.835938 69.484375 41.714844 63.488281 40.941406 61.742188 C 40.363281 60.582031 39.203125 59.808594 37.851562 59.613281 C 21.417969 57.484375 8.660156 46.648438 8.660156 34.070312 C 8.660156 19.941406 24.316406 8.328125 43.453125 8.328125 C 62.59375 8.328125 78.253906 19.941406 78.253906 34.070312 C 78.253906 43.746094 70.714844 52.839844 58.726562 57.097656 Z M 58.726562 57.097656 " fill-opacity="1" fill-rule="nonzero"/></g><g clip-path="url(#42224e6a66)"><path fill="#8a391b" d="M 205.84375 31.550781 C 182.449219 31.550781 163.3125 46.648438 163.3125 65.035156 C 163.3125 77.226562 171.625 88.257812 184.964844 94.257812 C 184.769531 94.644531 184.578125 94.839844 184.382812 95.226562 C 182.839844 97.355469 180.132812 99.097656 177.425781 99.484375 C 175.683594 99.679688 174.332031 101.226562 174.140625 102.96875 C 173.945312 104.707031 174.910156 106.453125 176.652344 107.03125 C 180.324219 108.582031 184.191406 109.160156 187.863281 109.160156 C 199.464844 109.160156 209.902344 102.96875 213.960938 98.128906 C 234.066406 95.226562 248.566406 81.484375 248.566406 65.226562 C 248.371094 46.648438 229.234375 31.550781 205.84375 31.550781 Z M 211.0625 90.386719 C 209.710938 90.578125 208.546875 91.355469 207.96875 92.515625 C 207.003906 94.257812 199.078125 100.453125 189.410156 101.03125 C 189.796875 100.453125 190.183594 100.066406 190.570312 99.484375 C 192.503906 96.578125 193.277344 93.484375 192.695312 90.773438 C 192.503906 89.417969 191.535156 88.453125 190.183594 87.871094 C 178.585938 83.804688 171.042969 74.710938 171.042969 65.035156 C 171.042969 50.90625 186.703125 39.292969 205.84375 39.292969 C 224.980469 39.292969 240.640625 50.90625 240.640625 65.035156 C 240.640625 77.613281 227.878906 88.453125 211.0625 90.386719 Z M 211.0625 90.386719 " fill-opacity="1" fill-rule="nonzero"/></g><path fill="#8a391b" d="M 169.113281 194.125 L 196.175781 194.125 C 198.300781 194.125 200.042969 192.382812 200.042969 190.253906 C 200.042969 188.125 198.300781 186.382812 196.175781 186.382812 L 169.113281 186.382812 C 166.988281 186.382812 165.246094 188.125 165.246094 190.253906 C 165.246094 192.382812 166.988281 194.125 169.113281 194.125 Z M 169.113281 194.125 " fill-opacity="1" fill-rule="nonzero"/><path fill="#8a391b" d="M 147.847656 194.125 L 157.515625 194.125 C 159.640625 194.125 161.378906 192.382812 161.378906 190.253906 C 161.378906 188.125 159.640625 186.382812 157.515625 186.382812 L 147.847656 186.382812 C 145.71875 186.382812 143.980469 188.125 143.980469 190.253906 C 143.980469 192.382812 145.71875 194.125 147.847656 194.125 Z M 147.847656 194.125 " fill-opacity="1" fill-rule="nonzero"/><path fill="#8a391b" d="M 80.1875 186.382812 L 53.121094 186.382812 C 50.996094 186.382812 49.253906 188.125 49.253906 190.253906 C 49.253906 192.382812 50.996094 194.125 53.121094 194.125 L 80.1875 194.125 C 82.3125 194.125 84.050781 192.382812 84.050781 190.253906 C 84.050781 188.125 82.3125 186.382812 80.1875 186.382812 Z M 80.1875 186.382812 " fill-opacity="1" fill-rule="nonzero"/><path fill="#8a391b" d="M 87.917969 190.253906 C 87.917969 192.382812 89.65625 194.125 91.785156 194.125 L 101.453125 194.125 C 103.578125 194.125 105.316406 192.382812 105.316406 190.253906 C 105.316406 188.125 103.578125 186.382812 101.453125 186.382812 L 91.785156 186.382812 C 89.65625 186.382812 87.917969 188.125 87.917969 190.253906 Z M 87.917969 190.253906 " fill-opacity="1" fill-rule="nonzero"/><path fill="#8a391b" d="M 58.148438 21.101562 L 37.65625 41.617188 L 28.765625 32.710938 C 27.214844 31.164062 24.898438 31.164062 23.351562 32.710938 C 21.804688 34.261719 21.804688 36.582031 23.351562 38.132812 L 34.949219 49.746094 C 35.722656 50.519531 36.6875 50.90625 37.65625 50.90625 C 38.625 50.90625 39.589844 50.519531 40.363281 49.746094 L 63.558594 26.519531 C 65.109375 24.96875 65.109375 22.648438 63.558594 21.101562 C 62.011719 19.550781 59.695312 19.550781 58.148438 21.101562 Z M 58.148438 21.101562 " fill-opacity="1" fill-rule="nonzero"/><path fill="#8a391b" d="M 218.214844 52.066406 C 216.667969 50.519531 214.347656 50.519531 212.800781 52.066406 L 205.84375 59.035156 L 198.882812 52.066406 C 197.339844 50.519531 195.015625 50.519531 193.472656 52.066406 C 191.921875 53.613281 191.921875 55.9375 193.472656 57.484375 L 200.429688 64.453125 L 193.472656 71.421875 C 191.921875 72.96875 191.921875 75.289062 193.472656 76.839844 C 194.242188 77.613281 195.210938 78 196.175781 78 C 197.144531 78 198.109375 77.613281 198.882812 76.839844 L 205.84375 69.875 L 212.800781 76.839844 C 213.578125 77.613281 214.542969 78 215.507812 78 C 216.476562 78 217.441406 77.613281 218.214844 76.839844 C 219.761719 75.289062 219.761719 72.96875 218.214844 71.421875 L 211.253906 64.453125 L 218.214844 57.484375 C 219.761719 55.9375 219.761719 53.613281 218.214844 52.066406 Z M 218.214844 52.066406 " fill-opacity="1" fill-rule="nonzero"/><path fill="#8a391b" d="M 97.585938 103.160156 C 97.003906 112.257812 100.871094 120.96875 108.023438 126.382812 C 109.957031 127.742188 110.925781 129.871094 110.925781 131.996094 L 110.925781 136.835938 C 110.925781 140.125 113.628906 143.804688 117.304688 143.804688 L 131.800781 143.804688 C 135.472656 143.804688 137.988281 140.320312 137.988281 137.03125 L 137.988281 132.382812 C 137.988281 130.0625 139.148438 127.933594 141.082031 126.578125 C 147.847656 121.160156 151.710938 113.417969 151.710938 105.09375 C 151.710938 97.742188 148.621094 90.386719 143.207031 85.355469 C 137.601562 80.128906 130.449219 77.613281 122.714844 78.195312 C 109.375 78.96875 98.550781 89.804688 97.585938 103.160156 Z M 123.296875 85.742188 C 128.707031 85.355469 133.929688 87.289062 137.988281 90.964844 C 141.855469 94.644531 144.175781 99.679688 144.175781 105.09375 C 144.175781 111.09375 141.464844 116.707031 136.636719 120.386719 C 132.769531 123.289062 130.644531 127.742188 130.644531 132.382812 L 130.644531 136.0625 L 119.042969 136.0625 L 119.042969 131.996094 C 119.042969 127.355469 116.917969 123.09375 113.050781 120.195312 C 107.832031 116.320312 105.121094 110.128906 105.507812 103.546875 C 105.898438 94.066406 113.628906 86.515625 123.296875 85.742188 Z M 123.296875 85.742188 " fill-opacity="1" fill-rule="nonzero"/><path fill="#8a391b" d="M 136.25 151.546875 C 136.25 149.417969 134.507812 147.671875 132.382812 147.671875 L 116.917969 147.671875 C 114.792969 147.671875 113.050781 149.417969 113.050781 151.546875 C 113.050781 153.675781 114.792969 155.414062 116.917969 155.414062 L 132.382812 155.414062 C 134.507812 155.414062 136.25 153.675781 136.25 151.546875 Z M 136.25 151.546875 " fill-opacity="1" fill-rule="nonzero"/><path fill="#8a391b" d="M 120.785156 159.289062 C 118.65625 159.289062 116.917969 161.027344 116.917969 163.160156 C 116.917969 165.289062 118.65625 167.027344 120.785156 167.027344 L 128.515625 167.027344 C 130.644531 167.027344 132.382812 165.289062 132.382812 163.160156 C 132.382812 161.027344 130.644531 159.289062 128.515625 159.289062 Z M 120.785156 159.289062 " fill-opacity="1" fill-rule="nonzero"/><path fill="#8a391b" d="M 128.515625 70.261719 L 128.515625 66.386719 C 128.515625 64.261719 126.777344 62.515625 124.648438 62.515625 C 122.523438 62.515625 120.785156 64.261719 120.785156 66.386719 L 120.785156 70.261719 C 120.785156 72.386719 122.523438 74.128906 124.648438 74.128906 C 126.777344 74.128906 128.515625 72.386719 128.515625 70.261719 Z M 128.515625 70.261719 " fill-opacity="1" fill-rule="nonzero"/><path fill="#8a391b" d="M 101.835938 73.9375 C 100.292969 72.386719 97.972656 72.386719 96.425781 73.9375 C 94.878906 75.484375 94.878906 77.808594 96.425781 79.355469 L 99.128906 82.066406 C 99.902344 82.839844 100.871094 83.226562 101.835938 83.226562 C 102.804688 83.226562 103.769531 82.839844 104.542969 82.066406 C 106.089844 80.515625 106.089844 78.195312 104.542969 76.644531 Z M 101.835938 73.9375 " fill-opacity="1" fill-rule="nonzero"/><path fill="#8a391b" d="M 92.171875 98.324219 L 88.304688 98.324219 C 86.179688 98.324219 84.441406 100.066406 84.441406 102.191406 C 84.441406 104.320312 86.179688 106.066406 88.304688 106.066406 L 92.171875 106.066406 C 94.296875 106.066406 96.039062 104.320312 96.039062 102.191406 C 96.039062 100.066406 94.296875 98.324219 92.171875 98.324219 Z M 92.171875 98.324219 " fill-opacity="1" fill-rule="nonzero"/><path fill="#8a391b" d="M 160.414062 98.902344 L 156.546875 98.902344 C 154.421875 98.902344 152.679688 100.644531 152.679688 102.773438 C 152.679688 104.902344 154.421875 106.644531 156.546875 106.644531 L 160.414062 106.644531 C 162.539062 106.644531 164.28125 104.902344 164.28125 102.773438 C 164.28125 100.644531 162.539062 98.902344 160.414062 98.902344 Z M 160.414062 98.902344 " fill-opacity="1" fill-rule="nonzero"/><path fill="#8a391b" d="M 147.269531 74.515625 L 144.558594 77.226562 C 143.015625 78.777344 143.015625 81.097656 144.558594 82.644531 C 145.332031 83.417969 146.300781 83.804688 147.269531 83.804688 C 148.234375 83.804688 149.199219 83.417969 149.972656 82.644531 L 152.679688 79.9375 C 154.226562 78.386719 154.226562 76.0625 152.679688 74.515625 C 151.132812 72.96875 148.8125 72.96875 147.269531 74.515625 Z M 147.269531 74.515625 " fill-opacity="1" fill-rule="nonzero"/></g></g></g></svg>