<svg xmlns="http://www.w3.org/2000/svg" xmlns:xlink="http://www.w3.org/1999/xlink" width="500" zoomAndPan="magnify" viewBox="0 0 375 374.999991" height="500" preserveAspectRatio="xMidYMid meet" version="1.0"><defs><clipPath id="14a454de75"><path d="M 0 340 L 146 340 L 146 351.9375 L 0 351.9375 Z M 0 340 " clip-rule="nonzero"/></clipPath><clipPath id="dd715b270a"><path d="M 229 340 L 375 340 L 375 351.9375 L 229 351.9375 Z M 229 340 " clip-rule="nonzero"/></clipPath><clipPath id="920654bd7a"><path d="M 0 23.4375 L 130 23.4375 L 130 141 L 0 141 Z M 0 23.4375 " clip-rule="nonzero"/></clipPath></defs><path fill="#000000" d="M 139.929688 277.074219 C 139.636719 277.074219 139.34375 277.367188 139.050781 277.660156 C 125.585938 285.28125 104.800781 284.402344 104.214844 284.402344 L 68.207031 284.402344 C 66.453125 284.402344 64.695312 285.28125 63.523438 286.746094 L 38.933594 320.742188 C 38.640625 321.328125 38.347656 321.914062 38.054688 322.5 L 28.394531 322.5 C 25.175781 322.5 22.539062 325.140625 22.539062 328.363281 C 22.539062 331.585938 25.175781 334.226562 28.394531 334.226562 L 154.566406 334.226562 C 158.078125 339.792969 166.570312 348.878906 185.011719 348.878906 C 185.890625 348.878906 186.476562 348.878906 187.355469 348.878906 C 207.550781 349.757812 216.921875 340.085938 220.433594 334.226562 L 346.605469 334.226562 C 349.824219 334.226562 352.457031 331.585938 352.457031 328.363281 C 352.457031 325.140625 349.824219 322.5 346.605469 322.5 L 336.652344 322.5 C 336.359375 321.914062 336.066406 321.328125 335.773438 320.742188 L 311.183594 286.746094 C 310.011719 285.28125 308.253906 284.402344 306.5 284.402344 L 270.199219 284.402344 C 269.90625 284.402344 249.414062 285.28125 235.65625 277.367188 C 235.363281 277.074219 235.070312 277.074219 234.777344 276.78125 C 233.898438 276.488281 216.042969 270.335938 200.527344 277.953125 C 195.257812 280.59375 190.867188 284.402344 187.644531 289.089844 C 184.132812 284.109375 180.035156 280.300781 174.765625 277.953125 C 158.664062 270.628906 140.808594 276.78125 139.929688 277.074219 Z M 169.203125 288.796875 C 175.058594 291.730469 179.15625 297.003906 181.792969 304.625 C 181.792969 304.625 181.792969 304.917969 182.085938 304.917969 C 182.085938 305.210938 182.378906 305.210938 182.378906 305.503906 C 182.378906 305.796875 182.667969 305.796875 182.667969 306.089844 C 182.667969 306.382812 182.960938 306.382812 182.960938 306.675781 C 182.960938 306.96875 183.253906 306.96875 183.253906 306.96875 C 183.253906 306.96875 183.546875 307.261719 183.546875 307.261719 C 183.546875 307.261719 183.839844 307.554688 183.839844 307.554688 C 184.132812 307.554688 184.132812 307.847656 184.425781 307.847656 C 184.71875 307.847656 184.71875 307.847656 185.011719 308.140625 C 185.011719 308.140625 185.304688 308.140625 185.304688 308.433594 C 185.304688 308.433594 185.304688 308.433594 185.597656 308.433594 C 185.890625 308.433594 185.890625 308.433594 186.183594 308.433594 C 186.476562 308.433594 186.476562 308.433594 186.769531 308.433594 C 187.0625 308.433594 187.0625 308.433594 187.355469 308.433594 C 187.644531 308.433594 187.644531 308.433594 187.9375 308.433594 C 188.230469 308.433594 188.230469 308.433594 188.523438 308.433594 C 188.816406 308.433594 188.816406 308.433594 189.109375 308.433594 C 189.109375 308.433594 189.109375 308.433594 189.402344 308.433594 C 189.695312 308.433594 189.695312 308.433594 189.695312 308.140625 C 189.988281 308.140625 189.988281 308.140625 190.28125 307.847656 C 190.574219 307.847656 190.574219 307.554688 190.867188 307.554688 C 190.867188 307.554688 191.160156 307.261719 191.160156 307.261719 C 191.453125 307.261719 191.453125 306.96875 191.453125 306.96875 C 191.453125 306.96875 191.746094 306.675781 191.746094 306.675781 C 191.746094 306.675781 192.039062 306.382812 192.039062 306.089844 C 192.039062 305.796875 192.332031 305.796875 192.332031 305.503906 C 192.332031 305.210938 192.621094 305.210938 192.621094 304.917969 C 192.621094 304.917969 192.621094 304.625 192.914062 304.625 C 195.550781 297.003906 199.648438 291.730469 205.503906 289.089844 C 215.75 284.109375 228.042969 287.625 230.386719 288.210938 C 247.074219 297.589844 269.90625 296.417969 270.492188 296.417969 L 303.570312 296.417969 L 322.890625 322.792969 L 216.921875 322.792969 C 214.578125 322.792969 212.238281 324.261719 211.359375 326.605469 C 211.066406 327.191406 206.675781 338.328125 187.355469 337.449219 C 187.0625 337.449219 187.0625 337.449219 186.769531 337.449219 C 167.738281 338.328125 163.347656 327.191406 163.054688 326.898438 C 162.179688 324.554688 160.128906 322.792969 157.492188 322.792969 L 51.816406 322.792969 L 71.136719 296.417969 L 103.921875 296.417969 C 104.800781 296.417969 127.632812 297.589844 144.320312 288.210938 C 146.664062 287.039062 159.25 283.816406 169.203125 288.796875 Z M 169.203125 288.796875 " fill-opacity="1" fill-rule="nonzero"/><g clip-path="url(#14a454de75)"><path fill="#000000" d="M 5.855469 351.808594 L 139.636719 351.808594 C 142.855469 351.808594 145.492188 349.171875 145.492188 345.949219 C 145.492188 342.722656 142.855469 340.085938 139.636719 340.085938 L 5.855469 340.085938 C 2.632812 340.085938 0 342.722656 0 345.949219 C 0 349.171875 2.632812 351.808594 5.855469 351.808594 Z M 5.855469 351.808594 " fill-opacity="1" fill-rule="nonzero"/></g><g clip-path="url(#dd715b270a)"><path fill="#000000" d="M 368.851562 340.085938 L 235.070312 340.085938 C 231.851562 340.085938 229.214844 342.722656 229.214844 345.949219 C 229.214844 349.171875 231.851562 351.808594 235.070312 351.808594 L 368.851562 351.808594 C 372.074219 351.808594 374.707031 349.171875 374.707031 345.949219 C 374.707031 342.722656 372.074219 340.085938 368.851562 340.085938 Z M 368.851562 340.085938 " fill-opacity="1" fill-rule="nonzero"/></g><g clip-path="url(#920654bd7a)"><path fill="#000000" d="M 64.402344 23.566406 C 28.980469 23.566406 0 46.425781 0 74.269531 C 0 98.886719 21.957031 119.695312 52.402344 124.089844 C 58.546875 131.417969 74.355469 140.796875 91.921875 140.796875 C 97.484375 140.796875 103.042969 139.917969 108.898438 137.570312 C 111.242188 136.691406 112.996094 134.054688 112.703125 131.417969 C 112.414062 128.78125 110.363281 126.726562 107.726562 126.140625 C 103.628906 125.554688 99.53125 122.917969 97.191406 119.695312 C 96.898438 119.109375 96.605469 118.816406 96.3125 118.230469 C 116.511719 109.4375 129.097656 92.4375 129.097656 73.972656 C 128.804688 46.425781 99.824219 23.566406 64.402344 23.566406 Z M 87.527344 109.144531 C 85.480469 109.730469 84.308594 111.488281 83.722656 113.539062 C 82.84375 117.644531 84.015625 122.332031 86.945312 126.726562 C 87.527344 127.605469 88.113281 128.488281 88.699219 129.074219 C 74.0625 127.898438 61.769531 118.816406 60.597656 116.175781 C 59.71875 114.417969 57.960938 113.246094 55.914062 112.953125 C 31.03125 109.730469 11.710938 93.316406 11.710938 74.269531 C 11.710938 52.875 35.421875 35.289062 64.402344 35.289062 C 93.382812 35.289062 117.097656 52.875 117.097656 74.269531 C 117.097656 88.921875 105.679688 102.695312 87.527344 109.144531 Z M 87.527344 109.144531 " fill-opacity="1" fill-rule="nonzero"/></g><path fill="#000000" d="M 310.304688 70.457031 C 274.882812 70.457031 245.902344 93.316406 245.902344 121.160156 C 245.902344 139.625 258.488281 156.328125 278.6875 165.414062 C 278.394531 166 278.101562 166.292969 277.808594 166.878906 C 275.46875 170.101562 271.371094 172.742188 267.273438 173.328125 C 264.636719 173.621094 262.585938 175.964844 262.296875 178.601562 C 262.003906 181.238281 263.464844 183.878906 266.101562 184.757812 C 271.664062 187.101562 277.515625 187.980469 283.078125 187.980469 C 300.644531 187.980469 316.453125 178.601562 322.597656 171.273438 C 353.042969 166.878906 375 146.070312 375 121.453125 C 374.707031 93.316406 345.726562 70.457031 310.304688 70.457031 Z M 318.207031 159.550781 C 316.160156 159.84375 314.402344 161.019531 313.523438 162.777344 C 312.0625 165.414062 300.058594 174.792969 285.421875 175.671875 C 286.007812 174.792969 286.59375 174.207031 287.179688 173.328125 C 290.105469 168.929688 291.277344 164.242188 290.398438 160.136719 C 290.105469 158.085938 288.640625 156.621094 286.59375 155.742188 C 269.027344 149.585938 257.609375 135.8125 257.609375 121.160156 C 257.609375 99.765625 281.324219 82.179688 310.304688 82.179688 C 339.285156 82.179688 362.996094 99.765625 362.996094 121.160156 C 362.996094 140.210938 343.675781 156.621094 318.207031 159.550781 Z M 318.207031 159.550781 " fill-opacity="1" fill-rule="nonzero"/><path fill="#000000" d="M 254.683594 316.640625 L 295.667969 316.640625 C 298.886719 316.640625 301.523438 314.003906 301.523438 310.777344 C 301.523438 307.554688 298.886719 304.917969 295.667969 304.917969 L 254.683594 304.917969 C 251.464844 304.917969 248.828125 307.554688 248.828125 310.777344 C 248.828125 314.003906 251.464844 316.640625 254.683594 316.640625 Z M 254.683594 316.640625 " fill-opacity="1" fill-rule="nonzero"/><path fill="#000000" d="M 222.480469 316.640625 L 237.121094 316.640625 C 240.339844 316.640625 242.972656 314.003906 242.972656 310.777344 C 242.972656 307.554688 240.339844 304.917969 237.121094 304.917969 L 222.480469 304.917969 C 219.261719 304.917969 216.628906 307.554688 216.628906 310.777344 C 216.628906 314.003906 219.261719 316.640625 222.480469 316.640625 Z M 222.480469 316.640625 " fill-opacity="1" fill-rule="nonzero"/><path fill="#000000" d="M 120.023438 304.917969 L 79.039062 304.917969 C 75.820312 304.917969 73.183594 307.554688 73.183594 310.777344 C 73.183594 314.003906 75.820312 316.640625 79.039062 316.640625 L 120.023438 316.640625 C 123.242188 316.640625 125.878906 314.003906 125.878906 310.777344 C 125.878906 307.554688 123.242188 304.917969 120.023438 304.917969 Z M 120.023438 304.917969 " fill-opacity="1" fill-rule="nonzero"/><path fill="#000000" d="M 131.734375 310.777344 C 131.734375 314.003906 134.367188 316.640625 137.585938 316.640625 L 152.226562 316.640625 C 155.445312 316.640625 158.078125 314.003906 158.078125 310.777344 C 158.078125 307.554688 155.445312 304.917969 152.226562 304.917969 L 137.585938 304.917969 C 134.367188 304.917969 131.734375 307.554688 131.734375 310.777344 Z M 131.734375 310.777344 " fill-opacity="1" fill-rule="nonzero"/><path fill="#000000" d="M 86.652344 54.632812 L 55.621094 85.699219 L 42.15625 72.214844 C 39.8125 69.871094 36.300781 69.871094 33.957031 72.214844 C 31.617188 74.5625 31.617188 78.078125 33.957031 80.421875 L 51.523438 98.007812 C 52.691406 99.179688 54.15625 99.765625 55.621094 99.765625 C 57.085938 99.765625 58.546875 99.179688 59.71875 98.007812 L 94.847656 62.835938 C 97.191406 60.492188 97.191406 56.976562 94.847656 54.632812 C 92.503906 52.285156 88.992188 52.285156 86.652344 54.632812 Z M 86.652344 54.632812 " fill-opacity="1" fill-rule="nonzero"/><path fill="#000000" d="M 329.039062 101.523438 C 326.699219 99.179688 323.183594 99.179688 320.84375 101.523438 L 310.304688 112.074219 L 299.765625 101.523438 C 297.425781 99.179688 293.910156 99.179688 291.570312 101.523438 C 289.226562 103.867188 289.226562 107.386719 291.570312 109.730469 L 302.109375 120.28125 L 291.570312 130.832031 C 289.226562 133.175781 289.226562 136.691406 291.570312 139.035156 C 292.738281 140.210938 294.203125 140.796875 295.667969 140.796875 C 297.132812 140.796875 298.59375 140.210938 299.765625 139.035156 L 310.304688 128.488281 L 320.84375 139.035156 C 322.015625 140.210938 323.476562 140.796875 324.941406 140.796875 C 326.40625 140.796875 327.867188 140.210938 329.039062 139.035156 C 331.382812 136.691406 331.382812 133.175781 329.039062 130.832031 L 318.5 120.28125 L 329.039062 109.730469 C 331.382812 107.386719 331.382812 103.867188 329.039062 101.523438 Z M 329.039062 101.523438 " fill-opacity="1" fill-rule="nonzero"/><path fill="#000000" d="M 146.371094 178.894531 C 145.492188 192.667969 151.347656 205.859375 162.179688 214.0625 C 165.105469 216.117188 166.570312 219.339844 166.570312 222.5625 L 166.570312 229.890625 C 166.570312 234.871094 170.667969 240.441406 176.230469 240.441406 L 198.183594 240.441406 C 203.746094 240.441406 207.550781 235.164062 207.550781 230.183594 L 207.550781 223.148438 C 207.550781 219.632812 209.308594 216.410156 212.238281 214.355469 C 222.480469 206.152344 228.335938 194.429688 228.335938 181.824219 C 228.335938 170.6875 223.652344 159.550781 215.457031 151.933594 C 206.96875 144.019531 196.136719 140.210938 184.425781 141.089844 C 164.226562 142.261719 147.832031 158.671875 146.371094 178.894531 Z M 185.304688 152.519531 C 193.5 151.933594 201.40625 154.863281 207.550781 160.429688 C 213.40625 166 216.921875 173.621094 216.921875 181.824219 C 216.921875 190.910156 212.820312 199.410156 205.503906 204.980469 C 199.648438 209.375 196.429688 216.117188 196.429688 223.148438 L 196.429688 228.71875 L 178.863281 228.71875 L 178.863281 222.5625 C 178.863281 215.53125 175.644531 209.082031 169.789062 204.6875 C 161.886719 198.824219 157.785156 189.445312 158.371094 179.480469 C 158.957031 165.121094 170.667969 153.691406 185.304688 152.519531 Z M 185.304688 152.519531 " fill-opacity="1" fill-rule="nonzero"/><path fill="#000000" d="M 204.917969 252.164062 C 204.917969 248.941406 202.285156 246.300781 199.0625 246.300781 L 175.644531 246.300781 C 172.425781 246.300781 169.789062 248.941406 169.789062 252.164062 C 169.789062 255.386719 172.425781 258.023438 175.644531 258.023438 L 199.0625 258.023438 C 202.285156 258.023438 204.917969 255.386719 204.917969 252.164062 Z M 204.917969 252.164062 " fill-opacity="1" fill-rule="nonzero"/><path fill="#000000" d="M 181.5 263.886719 C 178.277344 263.886719 175.644531 266.523438 175.644531 269.75 C 175.644531 272.972656 178.277344 275.609375 181.5 275.609375 L 193.207031 275.609375 C 196.429688 275.609375 199.0625 272.972656 199.0625 269.75 C 199.0625 266.523438 196.429688 263.886719 193.207031 263.886719 Z M 181.5 263.886719 " fill-opacity="1" fill-rule="nonzero"/><path fill="#000000" d="M 193.207031 129.074219 L 193.207031 123.210938 C 193.207031 119.988281 190.574219 117.347656 187.355469 117.347656 C 184.132812 117.347656 181.5 119.988281 181.5 123.210938 L 181.5 129.074219 C 181.5 132.296875 184.132812 134.933594 187.355469 134.933594 C 190.574219 134.933594 193.207031 132.296875 193.207031 129.074219 Z M 193.207031 129.074219 " fill-opacity="1" fill-rule="nonzero"/><path fill="#000000" d="M 152.808594 134.640625 C 150.46875 132.296875 146.957031 132.296875 144.613281 134.640625 C 142.273438 136.984375 142.273438 140.503906 144.613281 142.847656 L 148.710938 146.949219 C 149.882812 148.121094 151.347656 148.707031 152.808594 148.707031 C 154.273438 148.707031 155.738281 148.121094 156.910156 146.949219 C 159.25 144.605469 159.25 141.089844 156.910156 138.742188 Z M 152.808594 134.640625 " fill-opacity="1" fill-rule="nonzero"/><path fill="#000000" d="M 138.171875 171.570312 L 132.320312 171.570312 C 129.097656 171.570312 126.464844 174.207031 126.464844 177.429688 C 126.464844 180.652344 129.097656 183.292969 132.320312 183.292969 L 138.171875 183.292969 C 141.394531 183.292969 144.027344 180.652344 144.027344 177.429688 C 144.027344 174.207031 141.394531 171.570312 138.171875 171.570312 Z M 138.171875 171.570312 " fill-opacity="1" fill-rule="nonzero"/><path fill="#000000" d="M 241.511719 172.449219 L 235.65625 172.449219 C 232.4375 172.449219 229.800781 175.085938 229.800781 178.308594 C 229.800781 181.53125 232.4375 184.171875 235.65625 184.171875 L 241.511719 184.171875 C 244.730469 184.171875 247.367188 181.53125 247.367188 178.308594 C 247.367188 175.085938 244.730469 172.449219 241.511719 172.449219 Z M 241.511719 172.449219 " fill-opacity="1" fill-rule="nonzero"/><path fill="#000000" d="M 221.605469 135.519531 L 217.503906 139.625 C 215.164062 141.96875 215.164062 145.484375 217.503906 147.828125 C 218.675781 149 220.140625 149.585938 221.605469 149.585938 C 223.066406 149.585938 224.53125 149 225.703125 147.828125 L 229.800781 143.726562 C 232.144531 141.382812 232.144531 137.863281 229.800781 135.519531 C 227.457031 133.175781 223.945312 133.175781 221.605469 135.519531 Z M 221.605469 135.519531 " fill-opacity="1" fill-rule="nonzero"/></svg>